<svg xmlns="http://www.w3.org/2000/svg" xmlns:xlink="http://www.w3.org/1999/xlink" fill="none" version="1.1" width="16" height="16" viewBox="0 0 16 16"><g style="mix-blend-mode:passthrough"><g style="mix-blend-mode:passthrough"><path d="M1.4061958765625,11.34C1.3928624765625,11.33333,1.3861958765625,11.32667,1.3861958765625,11.31333C1.1528624765625,8.86667,1.6261954765625,6.3866700000000005,3.3595284765625,3.846667C3.3595284765625,3.84,3.3661984765625,3.833333,3.3728584765625,3.826667C4.2261984765625,3.446667,5.1395284765625,3.16,6.0861984765625,3C6.1061984765625,3,6.1261984765625,3.00666667,6.1328584765625,3.02C6.2528584765625,3.226667,6.3861984765625,3.486667,6.4795284765625,3.706667C7.4795284765625,3.553333,8.4995284765625,3.553333,9.5261984765625,3.706667C9.6128584765625,3.493333,9.7461984765625,3.226667,9.8595284765625,3.02C9.8728584765625,3.00666667,9.8861984765625,3,9.9061984765625,3C10.8595284765625,3.16,11.7728884765625,3.446667,12.6194884765625,3.826667L12.6394884765625,3.846667C14.1461884765625,6.02667,14.8861884765625,8.48,14.6061884765625,11.31333C14.6061884765625,11.32667,14.5994884765625,11.33333,14.5928884765625,11.34C13.4528884765625,12.16667,12.3461884765625,12.66667,11.2595284765625,13C11.2395284765625,13.0067,11.2195284765625,13,11.2128584765625,12.98C10.9595284765625,12.64,10.7328584765625,12.27333,10.5261984765625,11.89333C10.5195284765625,11.87333,10.5261984765625,11.84667,10.5528584765625,11.83333C10.9128584765625,11.7,11.2595284765625,11.54,11.5928884765625,11.34667C11.6194884765625,11.33333,11.6194884765625,11.29333,11.5994884765625,11.28C11.5261884765625,11.22667,11.4528884765625,11.17333,11.3861884765625,11.12C11.3794884765625,11.10667,11.3594884765625,11.10667,11.3461884765625,11.11333C9.186198476562499,12.09333,6.8261984765625,12.09333,4.6461984765625,11.11333C4.6328584765625,11.10667,4.6128584765625,11.10667,4.5995284765625,11.12C4.532858476562501,11.17333,4.4661984765625,11.22667,4.3928584765625,11.28C4.3728584765625005,11.29333,4.3728584765625005,11.33333,4.3995284765625,11.34667C4.7328584765625,11.53333,5.0795284765624995,11.7,5.4395284765625,11.83333C5.4661984765625,11.84667,5.4728584765625,11.87333,5.4595284765625,11.89333C5.2661984765625,12.27333,5.0395284765625,12.64,4.779528476562501,12.98C4.7728584765625,13,4.7528584765624995,13.0067,4.7328584765625,13C3.6528584765625,12.66667,2.5461984765625,12.16667,1.4061958765625,11.34ZM5.9440184765625,7.71111C5.2773484765625,7.71111,4.7440184765625,8.30444,4.7440184765625,9.03111C4.7440184765625,9.76444,5.284018476562499,10.35777,5.9440184765625,10.35777C6.6106884765625,10.35777,7.1373484765625,9.76444,7.1373484765625,9.03111C7.1506884765625,8.31111,6.6173484765625,7.71111,5.9440184765625,7.71111ZM10.3995884765625,7.71111C9.7329184765625,7.71111,9.1995884765625,8.30444,9.1995884765625,9.03111C9.1995884765625,9.76444,9.7395884765625,10.35777,10.3995884765625,10.35777C11.0729184765625,10.35777,11.5928884765625,9.76444,11.5928884765625,9.03111C11.6062884765625,8.31111,11.0729184765625,7.71111,10.3995884765625,7.71111Z" fill-rule="evenodd" fill="#5865F2" fill-opacity="1"/></g></g></svg>