<svg xmlns="http://www.w3.org/2000/svg" xmlns:xlink="http://www.w3.org/1999/xlink" fill="none" version="1.1" width="16" height="16" viewBox="0 0 16 16"><g style="mix-blend-mode:passthrough"><g style="mix-blend-mode:passthrough"><path d="M5.5267040234375,13.506631909179687C10.5600440234375,13.506631909179687,13.3066740234375,9.273331909179689,13.3066740234375,5.593331909179687C13.3066740234375,5.473331909179688,13.3066740234375,5.353331909179687,13.3000740234375,5.2400019091796874C13.8400740234375,4.840001909179687,14.3000740234375,4.353331909179688,14.6666740234375,3.8000019091796875C14.1733740234375,4.020001909179688,13.6466740234375,4.1666619091796875,13.0933740234375,4.233331909179688C13.6600740234375,3.8933319091796874,14.0933740234375,3.3466649091796876,14.3000740234375,2.6999989091796874C13.7600740234375,3.0199989091796873,13.1733740234375,3.2466649091796875,12.5600740234375,3.3733319091796874C12.0600740234375,2.8333319091796874,11.3533740234375,2.4933319091796875,10.5667040234375,2.4933319091796875C9.053374023437499,2.4933319091796875,7.8267040234375,3.7400019091796874,7.8267040234375,5.273331909179687C7.8267040234375,5.4933319091796875,7.8533740234375,5.7066619091796875,7.9000440234375,5.906661909179688C5.6267040234375,5.793331909179687,3.6133740234375,4.686661909179687,2.2600410234375,2.9999989091796877C2.0200410234375,3.4266649091796877,1.8933740234375,3.9066619091796877,1.8933740234375,4.400001909179688C1.8933740234375,5.366661909179688,2.3733740234375,6.213331909179688,3.1067040234375,6.713331909179687C2.6733740234375,6.700001909179687,2.2467070234374997,6.580001909179687,1.8667070234374998,6.366661909179688C1.8667070234374998,6.380001909179688,1.8667070234374998,6.386661909179688,1.8667070234374998,6.400001909179688C1.8667070234374998,7.7466619091796876,2.8133740234375,8.873331909179687,4.0667040234375005,9.126661909179688C3.8267040234375,9.193331909179687,3.5867040234375,9.226661909179686,3.3400440234375,9.226661909179686C3.1667040234375,9.226661909179686,2.9933740234375,9.206661909179687,2.8267040234375003,9.173331909179687C3.1733740234375,10.280001909179688,4.1867040234375,11.086661909179687,5.3867040234375,11.106661909179687C4.4467040234374995,11.853331909179687,3.2667040234374998,12.300001909179688,1.9867070234375,12.300001909179688C1.7667070234375,12.300001909179688,1.5467070234375,12.286661909179687,1.3333740234375,12.260001909179687C2.5467040234375,13.046631909179688,3.9800440234375,13.506631909179687,5.5267040234375,13.506631909179687Z" fill-rule="evenodd" fill="#1DA1F2" fill-opacity="1"/></g></g></svg>