<svg fill="none" height="25" viewBox="0 0 25 25" width="25" xmlns="http://www.w3.org/2000/svg"><path clip-rule="evenodd" d="m16.4098 18.4542s-.4932-.589-.9041-1.1096c1.7945-.5068 2.4794-1.6301 2.4794-1.6301-.5616.3699-1.0959.6301-1.5753.8082-.685.2877-1.3425.4795-1.9863.5891-1.3151.2465-2.5206.178-3.548-.0137-.7808-.1507-1.45202-.3699-2.01366-.5891-.31507-.1233-.65754-.2739-1-.4657-.02055-.0137-.0411-.024-.06165-.0343s-.04109-.0205-.06164-.0342c-.0274-.0137-.0411-.0274-.0548-.0411-.24657-.137-.38356-.2329-.38356-.2329s.65754 1.0959 2.39726 1.6164c-.41095.5206-.91781 1.137-.91781 1.137-3.02739-.0959-4.17808-2.0822-4.17808-2.0822 0-4.4109 1.97261-7.98626 1.97261-7.98626 1.9726-1.47946 3.84933-1.43836 3.84933-1.43836l.137.16438c-2.46579.71233-3.60277 1.79452-3.60277 1.79452s.30137-.16438.80822-.39726c1.46575-.64383 2.63015-.82191 3.10955-.86301l.0307-.00519c.0691-.01177.1305-.02221.2022-.02221.8356-.10959 1.7808-.13698 2.7671-.02739 1.3014.15068 2.6987.53424 4.1233 1.31506 0 0-1.0822-1.02739-3.4109-1.73972l.1917-.21918s1.8768-.0411 3.8494 1.43836c0 0 1.9726 3.57536 1.9726 7.98626 0 0-1.1644 1.9863-4.1918 2.0822zm-4.8082-5.0069c0 .8284-.6716 1.5-1.5 1.5-.82846 0-1.50004-.6716-1.50004-1.5 0-.8285.67158-1.5 1.50004-1.5.8284 0 1.5.6715 1.5 1.5zm3.5 1.5c.8284 0 1.5-.6716 1.5-1.5 0-.8285-.6716-1.5-1.5-1.5-.8285 0-1.5.6715-1.5 1.5 0 .8284.6715 1.5 1.5 1.5z" fill="#4a4bda" fill-rule="evenodd"/></svg>