<svg fill="none" height="25" viewBox="0 0 25 25" width="25" xmlns="http://www.w3.org/2000/svg"><path clip-rule="evenodd" d="m16.0589 6.94727c.9387 0 1.8417.371 2.506 1.0367.665.6643 1.0367 1.5603 1.0367 2.49833v5.53c0 1.953-1.589 3.535-3.5427 3.535h-6.91534c-1.9537 0-3.542-1.582-3.542-3.535v-5.53c0-1.95303 1.5813-3.53503 3.542-3.53503zm1.1125 4.57813.056-.056c.1673-.203.1673-.497-.0077-.7-.0973-.1043-.231-.168-.3703-.182-.147-.0077-.287.042-.3927.14l-3.1563 2.52c-.406.3367-.9877.3367-1.4 0l-3.14999-2.52c-.2177-.161-.5187-.14-.7.049-.189.189-.21.49-.0497.7l.0917.091 3.18499 2.485c.392.308.8673.476 1.365.476.4963 0 .98-.168 1.3713-.476z" fill="#f9b617" fill-rule="evenodd"/></svg>