<svg fill="none" height="25" viewBox="0 0 25 25" width="25" xmlns="http://www.w3.org/2000/svg"><path d="m7.26406 9.22227c0-.175-.0875-.35001-.175-.4375l-1.3125-1.57501v-.26249h4.025l3.15004 6.91253 2.8-6.91253h3.85v.26249l-1.1375 1.05001c-.0875.0875-.175.175-.0875.35v7.87503c0 .0875 0 .2625.0875.35l1.05 1.05v.2625h-5.5125v-.2625l1.1375-1.1375c.0875-.0875.0875-.175.0875-.35v-6.3875l-3.15 7.9625h-.35l-3.67504-7.9625v5.3375c0 .2625.0875.4375.175.6125l1.4875 1.75v.2625h-4.1125v-.2625l1.4875-1.75c.175-.175.2625-.35.175-.6125z" fill="#1a1323"/></svg>