<svg width="24" height="24" viewBox="0 0 24 24" fill="none" xmlns="http://www.w3.org/2000/svg">
<g id="vuesax/bold/calendar">
<g id="calendar">
<path id="Vector" d="M16.7502 3.56V2C16.7502 1.59 16.4102 1.25 16.0002 1.25C15.5902 1.25 15.2502 1.59 15.2502 2V3.5H8.75023V2C8.75023 1.59 8.41023 1.25 8.00023 1.25C7.59023 1.25 7.25023 1.59 7.25023 2V3.56C4.55023 3.81 3.24023 5.42 3.04023 7.81C3.02023 8.1 3.26023 8.34 3.54023 8.34H20.4602C20.7502 8.34 20.9902 8.09 20.9602 7.81C20.7602 5.42 19.4502 3.81 16.7502 3.56Z" fill="#FF7193"/>
<path id="Vector_2" d="M20 9.84009H4C3.45 9.84009 3 10.2901 3 10.8401V17.0001C3 20.0001 4.5 22.0001 8 22.0001H16C19.5 22.0001 21 20.0001 21 17.0001V10.8401C21 10.2901 20.55 9.84009 20 9.84009ZM9.21 18.2101C9.16 18.2501 9.11 18.3001 9.06 18.3301C9 18.3701 8.94 18.4001 8.88 18.4201C8.82 18.4501 8.76 18.4701 8.7 18.4801C8.63 18.4901 8.57 18.5001 8.5 18.5001C8.37 18.5001 8.24 18.4701 8.12 18.4201C7.99 18.3701 7.89 18.3001 7.79 18.2101C7.61 18.0201 7.5 17.7601 7.5 17.5001C7.5 17.2401 7.61 16.9801 7.79 16.7901C7.89 16.7001 7.99 16.6301 8.12 16.5801C8.3 16.5001 8.5 16.4801 8.7 16.5201C8.76 16.5301 8.82 16.5501 8.88 16.5801C8.94 16.6001 9 16.6301 9.06 16.6701C9.11 16.7101 9.16 16.7501 9.21 16.7901C9.39 16.9801 9.5 17.2401 9.5 17.5001C9.5 17.7601 9.39 18.0201 9.21 18.2101ZM9.21 14.7101C9.02 14.8901 8.76 15.0001 8.5 15.0001C8.24 15.0001 7.98 14.8901 7.79 14.7101C7.61 14.5201 7.5 14.2601 7.5 14.0001C7.5 13.7401 7.61 13.4801 7.79 13.2901C8.07 13.0101 8.51 12.9201 8.88 13.0801C9.01 13.1301 9.12 13.2001 9.21 13.2901C9.39 13.4801 9.5 13.7401 9.5 14.0001C9.5 14.2601 9.39 14.5201 9.21 14.7101ZM12.71 18.2101C12.52 18.3901 12.26 18.5001 12 18.5001C11.74 18.5001 11.48 18.3901 11.29 18.2101C11.11 18.0201 11 17.7601 11 17.5001C11 17.2401 11.11 16.9801 11.29 16.7901C11.66 16.4201 12.34 16.4201 12.71 16.7901C12.89 16.9801 13 17.2401 13 17.5001C13 17.7601 12.89 18.0201 12.71 18.2101ZM12.71 14.7101C12.66 14.7501 12.61 14.7901 12.56 14.8301C12.5 14.8701 12.44 14.9001 12.38 14.9201C12.32 14.9501 12.26 14.9701 12.2 14.9801C12.13 14.9901 12.07 15.0001 12 15.0001C11.74 15.0001 11.48 14.8901 11.29 14.7101C11.11 14.5201 11 14.2601 11 14.0001C11 13.7401 11.11 13.4801 11.29 13.2901C11.38 13.2001 11.49 13.1301 11.62 13.0801C11.99 12.9201 12.43 13.0101 12.71 13.2901C12.89 13.4801 13 13.7401 13 14.0001C13 14.2601 12.89 14.5201 12.71 14.7101ZM16.21 18.2101C16.02 18.3901 15.76 18.5001 15.5 18.5001C15.24 18.5001 14.98 18.3901 14.79 18.2101C14.61 18.0201 14.5 17.7601 14.5 17.5001C14.5 17.2401 14.61 16.9801 14.79 16.7901C15.16 16.4201 15.84 16.4201 16.21 16.7901C16.39 16.9801 16.5 17.2401 16.5 17.5001C16.5 17.7601 16.39 18.0201 16.21 18.2101ZM16.21 14.7101C16.16 14.7501 16.11 14.7901 16.06 14.8301C16 14.8701 15.94 14.9001 15.88 14.9201C15.82 14.9501 15.76 14.9701 15.7 14.9801C15.63 14.9901 15.56 15.0001 15.5 15.0001C15.24 15.0001 14.98 14.8901 14.79 14.7101C14.61 14.5201 14.5 14.2601 14.5 14.0001C14.5 13.7401 14.61 13.4801 14.79 13.2901C14.89 13.2001 14.99 13.1301 15.12 13.0801C15.3 13.0001 15.5 12.9801 15.7 13.0201C15.76 13.0301 15.82 13.0501 15.88 13.0801C15.94 13.1001 16 13.1301 16.06 13.1701C16.11 13.2101 16.16 13.2501 16.21 13.2901C16.39 13.4801 16.5 13.7401 16.5 14.0001C16.5 14.2601 16.39 14.5201 16.21 14.7101Z" fill="white"/>
</g>
</g>
</svg>
