<svg fill="none" height="16" viewBox="0 0 16 16" width="16" xmlns="http://www.w3.org/2000/svg"><g stroke="#b0b0b0" stroke-linecap="round" stroke-linejoin="round" stroke-width="1.5"><path d="m10.6673 8.60016v2.80004c0 2.3333-.93332 3.2666-3.26665 3.2666h-2.8c-2.33333 0-3.26667-.9333-3.26667-3.2666v-2.80004c0-2.33333.93334-3.26666 3.26667-3.26666h2.8c2.33333 0 3.26665.93333 3.26665 3.26666z"/><path d="m14.6673 4.60016v2.8c0 2.33334-.9333 3.26664-3.2666 3.26664h-.7334v-2.06664c0-2.33333-.93332-3.26666-3.26665-3.26666h-2.06667v-.73334c0-2.33333.93334-3.26666 3.26667-3.26666h2.80005c2.3333 0 3.2666.93333 3.2666 3.26666z"/></g></svg>