<svg fill="none" height="24" viewBox="0 0 24 24" width="24" xmlns="http://www.w3.org/2000/svg"><path clip-rule="evenodd" d="m21.0987 6.98485c-1.8835-.18664-3.7735-.32262-5.6649-.40612l-.1538-.90873c-.15-.92-.28-1.67-1.97-1.67h-2.62c-1.69 0-1.81.71-1.97 1.66l-.14583.86837c-1.21114.04873-2.42219.13424-3.63312.25652l-2.03855.19986c-.54965.05389-.95154.54315-.89766 1.0928.05389.54965.54315.95155 1.0928.89766l2.04-.2.00293-.00029c.01683-.0017.03366-.00339.05048-.00508l.60934 9.44006c.11 1.57.2 2.79 2.99 2.79h6.42001c2.79 0 2.88-1.22 2.99-2.79l.6081-9.42065c.6983.05481 1.396.11679 2.093.18586.5495.05446 1.0392-.34692 1.0937-.89651.0545-.5496-.3469-1.03928-.8965-1.09375zm-10.7686 8.76515c-.41424 0-.75002.3358-.75002.75s.33578.75.75002.75h3.33c.4142 0 .75-.3358.75-.75s-.3358-.75-.75-.75zm-1.5801-3.25c0-.4142.33579-.75.75-.75h5c.4142 0 .75.3358.75.75s-.3358.75-.75.75h-5c-.41421 0-.75-.3358-.75-.75z" fill="#ff7193" fill-rule="evenodd"/></svg>