<svg fill="none" height="24" viewBox="0 0 24 24" width="24" xmlns="http://www.w3.org/2000/svg"><path d="m21.6602 10.4405-.98 4.18c-.84 3.61-2.5 5.07-5.62 4.77-.5-.04-1.04-.13-1.62-.27l-1.68-.4c-4.17002-.99-5.46002-3.05-4.48002-7.23l.98-4.19c.2-.85.44-1.59.74-2.2 1.17002-2.42 3.16002-3.07 6.50002-2.28l1.67.39c4.19.98 5.47 3.05 4.49 7.23z" fill="#00a3ff"/><path d="m15.0603 19.3896c-.62.42-1.4.77-2.35 1.08l-1.58.52c-3.96996 1.28-6.05996.21-7.34996-3.76l-1.28-3.95c-1.28-3.96999-.22-6.06999 3.75-7.34999l1.58-.52c.41-.13.8-.24 1.17-.31-.3.61-.54 1.35-.74 2.2l-.98 4.18999c-.98 4.18.31 6.24 4.47996 7.23l1.68.4c.58.14 1.12.23 1.62.27z" fill="#00b3ff" fill-opacity=".19"/><g fill="#fff"><path d="m17.4904 10.5098c-.06 0-.12-.01-.19-.02l-4.85-1.23002c-.4-.1-.64-.51-.54-.91s.51-.64.91-.54l4.85 1.23c.4.1.64.51.54.91-.08.33002-.39.56002-.72.56002z"/><path d="m14.5601 13.8909c-.06 0-.12-.01-.19-.02l-2.91-.74c-.4-.1-.64-.51-.54-.91s.51-.64.91-.54l2.91.74c.4.1.64.51.54.91-.08.34-.38.56-.72.56z"/></g></svg>