<svg fill="none" height="22" viewBox="0 0 22 22" width="22" xmlns="http://www.w3.org/2000/svg"><path d="m15.584 1.83325h-9.16668c-2.53 0-4.58334 2.04417-4.58334 4.565v5.48165.9167c0 2.5208 2.05334 4.565 4.58334 4.565h1.375c.2475 0 .5775.165.73333.3667l1.375 1.8241c.60505.8067 1.59505.8067 2.20005 0l1.375-1.8241c.1741-.2292.4491-.3667.7333-.3667h1.375c2.53 0 4.5833-2.0442 4.5833-4.565v-6.39835c0-2.52083-2.0533-4.565-4.5833-4.565zm-3.6667 10.77085h-5.49998c-.37584 0-.6875-.3117-.6875-.6875s.31166-.6875.6875-.6875h5.49998c.3759 0 .6875.3117.6875.6875s-.3116.6875-.6875.6875zm3.6667-4.58335h-9.16668c-.37584 0-.6875-.31167-.6875-.6875s.31166-.6875.6875-.6875h9.16668c.3758 0 .6875.31167.6875.6875s-.3117.6875-.6875.6875z" fill="#fff"/></svg>