<svg fill="none" height="16" viewBox="0 0 16 16" width="16" xmlns="http://www.w3.org/2000/svg"><path d="m5.67611 1.95312c-1.65667 0-3 1.34314-3 3.00001 0 1.65686 1.34333 3 3 3 1.65666 0 3-1.34314 3-3 0-1.65687-1.34334-3.00001-3-3.00001zm0 1.33334c.92066 0 1.66666.7462 1.66666 1.66667 0 .92046-.746 1.6666-1.66666 1.66666-.92067 0-1.66667-.7462-1.66667-1.66666 0-.92047.746-1.6666 1.66667-1.66667zm6.99999 2.66667c-.368 0-.6667.29846-.6667.66666v.66667h-.6666c-.368 0-.6667.29847-.6667.66667s.2987.66666.6667.66666h.6666v.66667c0 .3682.2987.66667.6667.66667s.6667-.29847.6667-.66667v-.66667h.6666c.368 0 .6667-.29846.6667-.66666s-.2987-.66667-.6667-.66667h-.6666v-.66667c0-.3682-.2987-.66666-.6667-.66666zm-9.292 2.89586c-1.22266.50454-2.04133 1.74151-2.04133 3.10411v1.3334c0 .3682.29867.6666.66667.6666h7.33333c.368 0 .66663-.2984.66663-.6666v-1.3334c0-1.3305-.82329-2.53751-2.04129-3.06251-.172-.07386-.37134-.07613-.542 0-.59.2644-1.16467.39574-1.75.39587-.58334 0-1.16001-.13867-1.77067-.41667-.168-.0764-.35067-.091-.52134-.0208zm.25068 1.35411c.62933.239 1.39533.4168 2.04133.4167.64066 0 1.36199-.1469 1.97933-.375.60133.3432 1.02067.9746 1.02067 1.7083v.6667h-6v-.6667c0-.7764.43067-1.441.95867-1.75z" fill="#b0b0b0"/></svg>