<svg fill="none" height="800" viewBox="0 0 24 24" width="800" xmlns="http://www.w3.org/2000/svg"><g fill="#5200ff"><path d="m20 10.875c.3013 0 .5733-.1802.6907-.4577.1174-.2774.0575-.59814-.1523-.81441l-4-4.125c-.1412-.14567-.3355-.22789-.5384-.22789s-.3971.08222-.5384.22789l-4 4.125c-.2097.21627-.2697.53701-.1523.81441.1175.2775.3895.4577.6907.4577h3.25v7.125c0 .4142.3358.75.75.75s.75-.3358.75-.75v-7.125z"/><path d="m12 13.125c.3013 0 .5733.1802.6907.4577.1174.2774.0575.5981-.1523.8144l-3.99996 4.125c-.14125.1457-.33551.2279-.53842.2279s-.39717-.0822-.53843-.2279l-4-4.125c-.20971-.2163-.26967-.537-.15225-.8144.11742-.2775.38943-.4577.69068-.4577h3.25v-7.125c0-.41421.33578-.75.75-.75.41421 0 .75.33579.75.75v7.125z" opacity=".5"/></g></svg>