<svg fill="none" height="91" viewBox="0 0 134 91" width="134" xmlns="http://www.w3.org/2000/svg"><path d="m132.262 6.26966c-3.327-5.8247-13.194-6.935246-28.541-3.21832-6.7467 1.63183-14.2073 4.11356-22.0364 7.29786-10.2583-3.90956-21.4492-3.71691-31.5578.578-10.2123 4.3401-18.1104 12.3293-22.2206 22.5055-2.0724 5.1334-3.0511 10.5049-2.9589 15.8649-4.4902 3.581-8.5314 7.1506-12.0084 10.6296-11.06424 11.0941-15.12842 20.0125-11.73201 25.8032 3.39642 5.7907 13.27481 6.7879 28.57591 2.901 12.6646-3.2183 27.8276-9.4737 43.1863-17.7688 1.0017-.5439 2.1875-.6346 3.2467-.2266 1.4162.5439 2.7747 1.5072 4.306 2.935l2.7402 3.275-1.5083-3.9776c-1.1974-4.8728-.472-7.5358 3.0395-11.1734l3.3274-2.6971-4.0297 1.4959c-4.9507 1.1785-7.6563.4646-11.3521-2.9917l-2.7401-3.275 1.5082 3.9776c.6332 2.5837.7254 4.5442.1497 6.3686-.2878.9066-.9556 1.6432-1.8076 2.0965-8.2895 4.4535-16.4985 8.2837-24.2469 11.3321-5.3537-3.6943-9.7633-8.8391-12.538-15.1851-7.9902-18.2333.5526-39.3903 19.0775-47.2548-9.2567 3.9322-13.5281 14.5051-9.533 23.6274 3.9951 9.111 14.737 13.3152 24.0052 9.383 9.3948-3.9889 20.3324.3966 24.1778 9.8023 3.8109 9.315-1.2549 19.9331-10.7418 23.6387-7.0347 2.7424-14.4607 3.1844-21.3687 1.6545-2.4523 1.0879-4.8701 2.1191-7.2418 3.0824 4.9162 1.8924 10.0511 2.8443 15.186 2.8443 5.5954 0 11.1909-1.1219 16.487-3.377 17.6617-7.5018 27.3787-25.6785 24.7187-43.5832 4.64-3.5923 8.808-7.1846 12.389-10.6975 11.202-10.9582 15.37-19.8425 12.042-25.66724zm-92.2899 73.83994c-4.0066 1.4166-7.8636 2.6064-11.5018 3.5357-14.4031 3.6602-21.1844 2.153-22.72718-.4873-1.54278-2.6404.5181-9.179 10.93758-19.6159 2.6366-2.6404 5.607-5.3261 8.8652-8.0458.5527 3.1617 1.4968 6.2893 2.8208 9.315 2.648 6.0287 6.6201 11.2301 11.6054 15.2983zm66.6159-43.0846c-.472-1.5752-1.036-3.139-1.716-4.6915-2.648-6.0287-6.6198-11.2415-11.6165-15.3097-6.0675 2.1531-12.5034 4.8388-19.1121 7.9892-1.6694.7932-3.0049 2.1417-3.7533 3.8075-1.3701 3.0597-1.3701 6.2554-.2763 10.6975l2.2336 5.8701-4.0412-4.8275c-5.4457-5.0994-9.4409-6.1533-16.7403-4.4195l-5.9638 2.1984 4.9046-3.9776c5.181-5.36 6.2517-9.2923 4.4902-16.4768l-2.2336-5.8814 4.0412 4.8275c3.1546 2.9577 5.8142 4.5442 8.9228 5.0314 1.5658.238 3.1661-.068 4.5937-.7479 6.0791-2.9463 12.0429-5.5301 17.7535-7.6832-.0115-.0113-.023-.0113-.0345-.0226 5.9869-2.2664 11.6859-4.07957 16.924-5.34877 14.45-3.50162 21.208-1.91512 22.728.73659 1.519 2.65168-.622 9.16768-11.168 19.49118-2.925 2.8671-6.263 5.8021-9.936 8.7371z" fill="#3f3f3f"/></svg>