<svg data-v-0dd9719b="" version="1.0" xmlns="http://www.w3.org/2000/svg" xmlns:xlink="http://www.w3.org/1999/xlink" width="100%" height="100%" viewBox="0 0 340.000000 250.000000" preserveAspectRatio="xMidYMid meet" color-interpolation-filters="sRGB" style="margin: auto;"> <rect data-v-0dd9719b="" x="0" y="0" width="100%" height="100%" fill="#f8f9f7" fill-opacity="1" class="background"></rect> <!----> <g data-v-0dd9719b="" class="iconmbgsvg" transform="translate(113.75,63.362918853759766)"><g fill="#000000" hollow-target="textNormalTran"><g opacity="0.55"><g><rect fill="#000000" fill-opacity="0" stroke-width="2" x="0" y="0" width="112.5" height="123.2741617357002" class="image-rect"></rect> <svg x="0" y="0" width="112.5" height="123.2741617357002" filtersec="colorsb9179504328" class="image-svg-svg primary" style="overflow: visible;"><svg xmlns="http://www.w3.org/2000/svg" viewBox="0 0.0026276111602783203 172.0600128173828 188.5373992919922"><path d="M0 90.12V53.59v-1.94c.15-1.77.86-2.21 2.36-1.36q5.45 3 10.82 6.17Q26.1 64 39 71.52c2.47 1.44 4.92 2.93 7.42 4.31 1.21.66 1.29 1.5.25 2.09-4 2.28-7.7 5.39-12.47 6-2.52.31-4.88-.76-7.08-2-3.52-2.07-7.06-4.08-10.57-6.16-1.19-.71-1.49-.3-1.48.9Q15 92.27 15 108c0 2 1 1.46 2 .89 4.35-2.47 8.69-5 13-7.48C40.77 95.18 51.47 89 62.24 82.85c2.14-1.21 3.18-2.52 3.16-5.18-.14-17.19-.08-34.38-.09-51.57 0-3.06-.08-3.13-2.74-1.6q-12.66 7.26-25.28 14.59c-2.24 1.3-2.23 1.42.07 2.76 3.15 1.84 6.31 3.67 9.51 5.43 4.26 2.36 6.54 5.85 6.45 10.8v6.87c0 2.29-.66 2.77-2.72 1.62-5.5-3.07-10.94-6.24-16.39-9.38L7.6 41.86c-1.92-1.11-2-1.56-.06-2.72 7.13-4.24 14.3-8.4 21.47-12.57Q43.5 18.17 58 9.81c5.32-3.07 10.64-6.17 16-9.17 3.17-1.77 6.3.31 6.33 4.22.07 6.16.12 12.33 0 18.48-.4 20-.31 40-.37 59.93a10.42 10.42 0 0 1-5.61 9.49L39.46 113q-16.35 9.5-32.71 18.94c-3.67 2.11-6.72.27-6.73-4C0 115.33 0 102.72 0 90.12z" fill="#d3b26a"></path><path d="M91.11 161.57v-24.28c0-.9-.26-2 .71-2.54s1.74.27 2.52.71c1.86 1.06 3.71 2.16 5.58 3.21a10.54 10.54 0 0 1 5.87 10.17c-.1 4.22 0 8.45 0 12.68 0 1.62.48 1.91 1.83 1.12l27.3-15.82c1.75-1 .34-1.35-.38-1.77q-10.65-6.24-21.32-12.44c-8.42-4.89-16.87-9.73-25.27-14.65a3.18 3.18 0 0 0-3.59 0q-9.25 5.42-18.55 10.78c-9.35 5.41-18.69 10.84-28.08 16.18-1.61.92-1.48 1.41 0 2.23q13.41 7.66 26.79 15.4c1.62.95 1.74.29 1.73-1.11v-12.68a10.63 10.63 0 0 1 4.75-9.12 90 90 0 0 1 7.92-4.73c1.37-.78 2.19-.29 2.31 1.29v50.5c-.16 1.87-.86 2.26-2.52 1.31-5.52-3.17-11-6.38-16.54-9.55-10.36-6-20.74-11.88-31.09-17.86-6.31-3.66-12.61-7.35-18.86-11.12a4 4 0 0 1 .06-7c7.1-4.16 14.26-8.22 21.39-12.32l29-16.69q9.21-5.3 18.43-10.56a9.87 9.87 0 0 1 10.23.12c6.26 3.48 12.44 7.09 18.65 10.64l25.69 14.74c8.12 4.66 16.26 9.31 24.36 14a4.09 4.09 0 0 1 0 7.1Q144.1 158.8 128.1 168l-29.53 17.09c-1.55.9-3.08 1.81-4.62 2.73-.67.41-1.33 1-2.16.57s-.7-1.34-.7-2.1v-24.72z" fill="#8c6b46"></path><path d="M172 90.21v37.39c0 1.87-.14 3.65-1.92 4.69s-3.55.41-5.25-.58q-23.09-13.46-46.21-26.84c-7.05-4.1-14.12-8.18-21.1-12.4a9.67 9.67 0 0 1-5.14-8.8q.09-23 0-46c0-10.38-.53-20.76-.34-31.14A24.32 24.32 0 0 1 92.1 4c.49-3.59 3.48-5 6.61-3.17q18.77 10.83 37.54 21.64 13.94 8.06 27.85 16.15c.78.45 1.81.79 1.75 2s-1.08 1.24-1.79 1.66Q148.75 51.1 133.4 60q-6.14 3.54-12.3 7c-1.68 1-2.34.6-2.39-1.39a86.27 86.27 0 0 1 .05-8.81 10.32 10.32 0 0 1 5.09-8.5c3.87-2.31 7.74-4.62 11.67-6.83 1.5-.85 1.3-1.43 0-2.16L108.9 24c-1.28-.75-1.84-.45-1.84 1v8.17c0 15 0 29.94-.07 44.91a4.36 4.36 0 0 0 2.4 4.33c8.27 4.68 16.5 9.44 24.74 14.18 7.07 4.07 14.14 8.14 21.17 12.27 1.4.82 2 .85 2-1q-.06-15.36 0-30.73c0-1.71-.52-2-2-1.12-3.12 1.88-6.36 3.58-9.45 5.5-4.68 2.9-9.25 3.36-13.95 0-1.75-1.23-3.75-2.08-5.56-3.23s-1.85-1.78.16-2.94q17.19-9.95 34.39-19.88c3-1.72 5.94-3.45 9-5.11 1.87-1 2.16-.85 2.17 1.34v18.7z" fill="#b4accc"></path></svg></svg> <!----></g></g> <g transform="translate(56.25,61.637081146240234)"><g data-gra="path-name" fill-rule="" class="tp-name"><g transform="scale(1)"><g><path d="" transform="translate(0, 0)"></path></g> <!----> <!----> <!----> <!----> <!----> <!----> <!----></g></g> <!----></g></g></g><defs v-gra="od"></defs></svg>
