<svg xmlns="http://www.w3.org/2000/svg" xmlns:xlink="http://www.w3.org/1999/xlink" width="18" height="18" viewBox="0 0 18 18" fill="none"><defs><rect id="path_0" x="0" y="0" width="18" height="18" /></defs><g opacity="1" transform="translate(0 0)  rotate(0 9 9)"><mask id="bg-mask-0" fill="white"><use xlink:href="#path_0"></use></mask><g mask="url(#bg-mask-0)" ><g opacity="1" transform="translate(5 3)  rotate(0 4 6)"><path  fill-rule="evenodd" style="fill:#a16eff" transform="translate(0.20499999999992724 0.7050000000017462)  rotate(0 3.1475000000000004 5.2924999999999995)" opacity="1" d="M4.59 10.29L0.29 5.99C-0.1 5.6 -0.1 4.97 0.29 4.58L4.58 0.29C4.97 -0.1 5.6 -0.1 5.99 0.29L6 0.29C6.39 0.68 6.39 1.31 6 1.7L2.41 5.29L6 8.87C6.39 9.26 6.39 9.9 6 10.29C5.61 10.68 4.98 10.68 4.59 10.29Z" /></g></g></g></svg>
