<svg fill="none" height="54" viewBox="0 0 54 54" width="54" xmlns="http://www.w3.org/2000/svg" xmlns:xlink="http://www.w3.org/1999/xlink"><linearGradient id="a" gradientUnits="userSpaceOnUse" x1="27" x2="27" y1="0" y2="54"><stop offset="0" stop-color="#fff0bb"/><stop offset="1" stop-color="#854bff" stop-opacity=".3"/></linearGradient><linearGradient id="b" gradientUnits="userSpaceOnUse" x1="29" x2="29.7273" y1="28.5" y2="53.0239"><stop offset="0" stop-color="#ffe071"/><stop offset="1" stop-color="#ffe071"/></linearGradient><rect fill="url(#a)" height="54" rx="16" width="54"/><path d="m21.5 38.5167c0 1.2166.3667 2.3166 1.05 3.2666-4.4667-.2834-8.55-1.9166-8.55-4.9333v-1.4667c1.75 1.3667 4.3333 2.2834 7.5 2.5834zm.0666-6.7834c-.0166.0167-.0166.0333-.0166.05-.0333.1666-.05.3334-.05.5001v3.1833c-4.0333-.4667-7.5-2.0667-7.5-4.85v-1.4667c1.75 1.3834 4.35 2.3 7.55 2.5833zm6.5001-6.0999c-2.5334.7833-4.5167 2.0666-5.6167 3.6666-4.4333-.2834-8.45-1.9166-8.45-4.9166v-1.1334c2.1833 1.7166 5.6833 2.7166 10 2.7166 1.45 0 2.8167-.1166 4.0667-.3332zm5.9333-2.3834v1.1334c0 .15-.0167.2833-.0334.4166-1.3166 0-2.5666.1166-3.7333.3166 1.5-.45 2.7667-1.0833 3.7667-1.8666zm-10-9.75c-5 0-10 1.6667-10 4.9833 0 3.35 5 4.9833 10 4.9833s10-1.6333 10-4.9833c0-3.3166-5-4.9833-10-4.9833zm10 26.2667c-4.1833 0-7.75-1.1-10-2.8833v1.6333c0 3.3166 5 4.9833 10 4.9833s10-1.6667 10-4.9833v-1.6333c-2.25 1.7833-5.8167 2.8833-10 2.8833zm0-12.4667c-5.5167 0-10 2.2334-10 4.9834s4.4833 4.9833 10 4.9833 10-2.2333 10-4.9833-4.4833-4.9834-10-4.9834z" fill="url(#b)"/></svg>