<svg fill="none" height="54" viewBox="0 0 54 54" width="54" xmlns="http://www.w3.org/2000/svg" xmlns:xlink="http://www.w3.org/1999/xlink"><linearGradient id="a" gradientUnits="userSpaceOnUse" x1="27" x2="27" y1="0" y2="54"><stop offset="0" stop-color="#ffb84d" stop-opacity=".3"/><stop offset="1" stop-color="#7e42ff" stop-opacity=".3"/></linearGradient><linearGradient id="b" gradientUnits="userSpaceOnUse" x1="27" x2="26.9925" y1="12" y2="44.8126"><stop offset="0" stop-color="#ffa979"/><stop offset="1" stop-color="#ffa470"/></linearGradient><rect fill="url(#a)" height="54" rx="16" width="54"/><path d="m33.285 12.0001h-12.57c-5.46 0-8.715 3.255-8.715 8.715v12.555c0 5.475 3.255 8.73 8.715 8.73h12.555c5.46 0 8.715-3.255 8.715-8.715v-12.57c.015-5.46-3.24-8.715-8.7-8.715zm-9.51 21.675c0 1.695-1.38 3.075-3.075 3.075s-3.075-1.38-3.075-3.075c0-1.305.81-2.4 1.95-2.85v-6.435c-1.26-.465-2.175-1.665-2.175-3.09 0-1.815 1.485-3.3 3.3-3.3s3.3 1.485 3.3 3.3c0 1.425-.915 2.625-2.175 3.09v6.435c1.14.45 1.95 1.56 1.95 2.85zm10.35 3.075c-1.695 0-3.075-1.38-3.075-3.075 0-1.305.81-2.4 1.95-2.85v-8.7c0-.21-.165-.375-.375-.375h-1.695l.315.255c.48.405.54 1.11.15 1.59-.225.27-.555.405-.87.405-.255 0-.51-.09-.72-.255l-2.7-2.25c-.255-.225-.405-.54-.405-.87s.15-.645.405-.87l2.7-2.25c.48-.39 1.185-.33 1.59.15s.33 1.185-.15 1.59l-.315.255h1.695c1.44 0 2.625 1.185 2.625 2.625v8.7c1.14.45 1.95 1.56 1.95 2.85 0 1.695-1.38 3.075-3.075 3.075z" fill="url(#b)"/></svg>