<svg fill="none" height="54" viewBox="0 0 54 54" width="54" xmlns="http://www.w3.org/2000/svg" xmlns:xlink="http://www.w3.org/1999/xlink"><linearGradient id="a" gradientUnits="userSpaceOnUse" x1="27" x2="27" y1="0" y2="54"><stop offset="0" stop-color="#91ff87" stop-opacity=".3"/><stop offset="1" stop-color="#a378ff" stop-opacity=".3"/></linearGradient><linearGradient id="b" gradientUnits="userSpaceOnUse" x1="22.9561" x2="22.9561" y1="13" y2="30.8082"><stop offset="0" stop-color="#14ff00"/><stop offset="1" stop-color="#14ff00" stop-opacity=".77"/></linearGradient><linearGradient id="c" gradientUnits="userSpaceOnUse" x1="23.3875" x2="23.3875" y1="27.8757" y2="40.9999"><stop offset="0" stop-color="#14ff00"/><stop offset="1" stop-color="#14ff00" stop-opacity=".49"/></linearGradient><linearGradient id="d" gradientUnits="userSpaceOnUse" x1="34.3761" x2="34.3761" y1="15.9213" y2="27.9941"><stop offset="0" stop-color="#14ff00"/><stop offset="1" stop-color="#14ff00" stop-opacity=".67"/></linearGradient><linearGradient id="e" gradientUnits="userSpaceOnUse" x1="35.7131" x2="35.7131" y1="27.7733" y2="38.3414"><stop offset="0" stop-color="#14ff00"/><stop offset=".892378" stop-color="#14ff00" stop-opacity=".66"/></linearGradient><rect fill="url(#a)" height="54" rx="16" width="54"/><path d="m22.5 13c-3.5853 0-6.5 2.9178-6.5 6.5068 0 3.5206 2.7505 6.3699 6.3358 6.4932.1095-.0137.2189-.0137.301 0h.0685.0273c3.5032-.1233 6.2537-2.9726 6.2674-6.4932 0-3.589-2.9147-6.5068-6.5-6.5068z" fill="url(#b)"/><path d="m30.2159 29.9616c-3.9631-2.6155-10.4261-2.6155-14.4176 0-1.804 1.1952-2.7983 2.8123-2.7983 4.5419s.9943 3.3326 2.7841 4.5138c1.9886 1.3218 4.6023 1.9827 7.2159 1.9827s5.2273-.6609 7.2159-1.9827c1.7898-1.1952 2.7841-2.7983 2.7841-4.5419-.0142-1.7296-.9943-3.3326-2.7841-4.5138z" fill="url(#c)"/><path d="m37.9829 20.5739c.2172 2.7024-1.6563 5.0705-4.2494 5.3909-.0136 0-.0136 0-.0272 0h-.0407c-.0815 0-.1629 0-.2308.0279-1.3169.0696-2.5252-.3622-3.4348-1.1562 1.3984-1.2816 2.1994-3.2039 2.0364-5.2934-.095-1.1284-.4751-2.1592-1.0453-3.0368.5159-.2647 1.1132-.4318 1.7242-.4876 2.6609-.2368 5.0368 1.797 5.2676 4.5552z" fill="url(#d)"/><path d="m40.985 33.6398c-.1098 1.3374-.9612 2.4956-2.3892 3.2815-1.3731.7584-3.1033 1.1169-4.8197 1.0755.9887-.8962 1.5654-2.013 1.6752-3.1988.1373-1.7097-.6728-3.3505-2.2931-4.6603-.92-.7308-1.991-1.3099-3.1582-1.7373 3.0346-.8824 6.8519-.2896 9.2 1.6132 1.2632 1.0203 1.9086 2.3026 1.785 3.6262z" fill="url(#e)"/></svg>