<svg fill="none" height="64" viewBox="0 0 24 24" width="64" xmlns="http://www.w3.org/2000/svg"><path d="m9 10c0-.59334.17595-1.17336.50559-1.66671.32965-.49335.79821-.87786 1.34641-1.10493.5481-.22706 1.1513-.28647 1.7333-.17071.5819.11575 1.1165.40147 1.536.82103.4196.41956.7053.95411.8211 1.53605.1157.58194.0563 1.18517-.1708 1.73337-.227.5481-.6115 1.0167-1.1049 1.3463-.4933.3297-1.0734.5056-1.6667.5056v1m9-2c0 4.9706-4.0294 9-9 9-4.97056 0-9-4.0294-9-9 0-4.97056 4.02944-9 9-9 4.9706 0 9 4.02944 9 9z" stroke="#fff" stroke-linecap="round" stroke-linejoin="round" stroke-width="2"/><circle cx="12" cy="17" fill="#fff" r="1"/></svg>