<svg fill="none" height="195" viewBox="0 0 195 195" width="195" xmlns="http://www.w3.org/2000/svg" xmlns:xlink="http://www.w3.org/1999/xlink"><filter id="a" color-interpolation-filters="sRGB" filterUnits="userSpaceOnUse" height="193.33" width="193.331" x=".792969" y=".808594"><feFlood flood-opacity="0" result="BackgroundImageFix"/><feColorMatrix in="SourceAlpha" result="hardAlpha" type="matrix" values="0 0 0 0 0 0 0 0 0 0 0 0 0 0 0 0 0 0 127 0"/><feOffset dx="10" dy="10"/><feGaussianBlur stdDeviation="5"/><feComposite in2="hardAlpha" operator="out"/><feColorMatrix type="matrix" values="0 0 0 0 0.965202 0 0 0 0 0.959538 0 0 0 0 1 0 0 0 0.36 0"/><feBlend in2="BackgroundImageFix" mode="normal" result="effect1_dropShadow_743_7462"/><feBlend in="SourceGraphic" in2="effect1_dropShadow_743_7462" mode="normal" result="shape"/></filter><linearGradient id="b" gradientUnits="userSpaceOnUse" x1="77.2829" x2="111.845" y1="93.6481" y2="174.139"><stop offset="0" stop-color="#fff"/><stop offset="1" stop-color="#fbecff"/></linearGradient><linearGradient id="c" gradientUnits="userSpaceOnUse" x1="58.353" x2="58.353" y1="71.0059" y2="115.204"><stop offset="0" stop-color="#c9aaff"/><stop offset="1" stop-color="#c9aaff" stop-opacity="0"/></linearGradient><linearGradient id="d" gradientUnits="userSpaceOnUse" x1="95.4952" x2="95.4952" y1="61.6406" y2="125.154"><stop offset="0" stop-color="#5200ff"/><stop offset="1" stop-color="#5200ff" stop-opacity="0"/></linearGradient><linearGradient id="e" gradientUnits="userSpaceOnUse" x1="82.1379" x2="82.1379" y1="34.5586" y2="41.7104"><stop offset="0" stop-color="#b592ff"/><stop offset="1" stop-color="#f2ecff"/></linearGradient><linearGradient id="f" gradientUnits="userSpaceOnUse" x1="129.968" x2="129.968" y1="60.6914" y2="71.7603"><stop offset="0" stop-color="#b592ff"/><stop offset="1" stop-color="#e7dcff" stop-opacity=".42"/></linearGradient><linearGradient id="g" gradientUnits="userSpaceOnUse" x1="113.115" x2="113.115" y1="28.3105" y2="50.947"><stop offset="0" stop-color="#5200ff"/><stop offset="1" stop-color="#dac8ff" stop-opacity=".44"/></linearGradient><g filter="url(#a)"><circle cx="87.4583" cy="87.474" fill="url(#b)" r="86.6654"/></g><path clip-rule="evenodd" d="m62.7447 71.1338c-3.1202-.6632-6.1918 1.3165-6.855 4.4367l-6.8453 32.2035c-.6614 3.112 1.3377 6.179 4.4578 6.842l2.423.515c1.7867.38 3.541-.759 3.919-2.537l7.8715-37.0331c.3779-1.778-.7613-3.5323-2.548-3.9121z" fill="url(#c)" fill-rule="evenodd"/><path clip-rule="evenodd" d="m91.5734 58.5285-6.3718 12.492c-1.3175 2.5985-4.2352 3.9824-7.0939 3.3747l-1.6212-.3446c-1.7867-.3798-3.541.7595-3.9189 2.5375l-7.8734 37.0409c-.1797.846-.0139 1.738.4665 2.477.4735.729 1.2292 1.245 2.0834 1.427l34.8279 7.403c4.297.913 8.678-1.098 10.779-4.942l12.324-22.6225c1.483-2.7364 1.589-6.0205.278-8.8499-1.31-2.8382-3.889-4.8895-6.948-5.5397l-12.891-2.74c-1.786-.3798-2.928-2.1254-2.55-3.9034l3.079-14.4854c.758-3.5646-1.522-7.0646-5.105-7.826-3.8083-.8096-7.6979 1.0327-9.4646 4.5014z" fill="url(#d)" fill-rule="evenodd"/><path d="m82.1379 34.5586.5057 3.0702 3.0702.5057-3.0702.5057-.5057 3.0702-.5057-3.0702-3.0702-.5057 3.0702-.5057z" fill="url(#e)"/><path d="m129.968 60.6914.782 4.7517 4.752.7827-4.752.7827-.782 4.7518-.783-4.7518-4.752-.7827 4.752-.7827z" fill="url(#f)"/><path d="m113.115 28.3105 1.601 9.7176 9.717 1.6007-9.717 1.6006-1.601 9.7176-1.601-9.7176-9.717-1.6006 9.717-1.6007z" fill="url(#g)"/></svg>