<svg fill="none" height="194" viewBox="0 0 194 194" width="194" xmlns="http://www.w3.org/2000/svg" xmlns:xlink="http://www.w3.org/1999/xlink"><filter id="a" color-interpolation-filters="sRGB" filterUnits="userSpaceOnUse" height="193.331" width="193.331" x=".334961" y=".334595"><feFlood flood-opacity="0" result="BackgroundImageFix"/><feColorMatrix in="SourceAlpha" result="hardAlpha" type="matrix" values="0 0 0 0 0 0 0 0 0 0 0 0 0 0 0 0 0 0 127 0"/><feOffset dx="10" dy="10"/><feGaussianBlur stdDeviation="5"/><feComposite in2="hardAlpha" operator="out"/><feColorMatrix type="matrix" values="0 0 0 0 0.0717255 0 0 0 0 0.0443455 0 0 0 0 0.239925 0 0 0 0.36 0"/><feBlend in2="BackgroundImageFix" mode="normal" result="effect1_dropShadow_743_6989"/><feBlend in="SourceGraphic" in2="effect1_dropShadow_743_6989" mode="normal" result="shape"/></filter><linearGradient id="b" gradientUnits="userSpaceOnUse" x1="76.8249" x2="111.387" y1="93.1741" y2="173.665"><stop offset="0" stop-color="#fff"/><stop offset="1" stop-color="#fbecff"/></linearGradient><linearGradient id="c" gradientUnits="userSpaceOnUse" x1="57.895" x2="57.895" y1="70.5316" y2="114.73"><stop offset="0" stop-color="#c9aaff"/><stop offset="1" stop-color="#c9aaff" stop-opacity="0"/></linearGradient><linearGradient id="d" gradientUnits="userSpaceOnUse" x1="95.0372" x2="95.0372" y1="61.1665" y2="124.68"><stop offset="0" stop-color="#5200ff"/><stop offset="1" stop-color="#5200ff" stop-opacity="0"/></linearGradient><linearGradient id="e" gradientUnits="userSpaceOnUse" x1="81.6799" x2="81.6799" y1="34.0852" y2="41.237"><stop offset="0" stop-color="#b592ff"/><stop offset="1" stop-color="#f2ecff"/></linearGradient><linearGradient id="f" gradientUnits="userSpaceOnUse" x1="129.51" x2="129.51" y1="60.2164" y2="71.2853"><stop offset="0" stop-color="#b592ff"/><stop offset="1" stop-color="#e7dcff" stop-opacity=".42"/></linearGradient><linearGradient id="g" gradientUnits="userSpaceOnUse" x1="112.657" x2="112.657" y1="27.8369" y2="50.4733"><stop offset="0" stop-color="#5200ff"/><stop offset="1" stop-color="#dac8ff" stop-opacity=".44"/></linearGradient><g filter="url(#a)"><circle cx="87.0003" cy="87" fill="url(#b)" r="86.6654"/></g><path clip-rule="evenodd" d="m62.2867 70.6596c-3.1202-.6633-6.1918 1.3165-6.855 4.4366l-6.8453 32.2038c-.6614 3.112 1.3377 6.179 4.4578 6.842l2.423.515c1.7867.38 3.541-.76 3.919-2.537l7.8715-37.0334c.3779-1.778-.7613-3.5322-2.548-3.9121z" fill="url(#c)" fill-rule="evenodd"/><path clip-rule="evenodd" d="m91.1154 58.0544-6.3719 12.4919c-1.3174 2.5986-4.2351 3.9824-7.0938 3.3748l-1.6212-.3446c-1.7867-.3798-3.541.7595-3.9189 2.5375l-7.8734 37.041c-.1797.846-.0139 1.738.4664 2.477.4736.729 1.2293 1.245 2.0835 1.427l34.8279 7.402c4.297.914 8.678-1.097 10.779-4.941l12.324-22.6226c1.483-2.7364 1.589-6.0206.278-8.85-1.31-2.8381-3.889-4.8894-6.948-5.5396l-12.891-2.74c-1.786-.3798-2.928-2.1254-2.55-3.9034l3.079-14.4854c.758-3.5647-1.522-7.0647-5.105-7.826-3.8083-.8096-7.6979 1.0327-9.4646 4.5014z" fill="url(#d)" fill-rule="evenodd"/><path d="m81.6799 34.0852.5057 3.0702 3.0702.5057-3.0702.5057-.5057 3.0702-.5057-3.0702-3.0702-.5057 3.0702-.5057z" fill="url(#e)"/><path d="m129.51 60.2164.782 4.7518 4.752.7827-4.752.7826-.782 4.7518-.783-4.7518-4.752-.7826 4.752-.7827z" fill="url(#f)"/><path d="m112.657 27.8369 1.601 9.7176 9.717 1.6006-9.717 1.6007-1.601 9.7175-1.601-9.7175-9.717-1.6007 9.717-1.6006z" fill="url(#g)"/></svg>