<svg fill="none" height="24" viewBox="0 0 24 24" width="24" xmlns="http://www.w3.org/2000/svg"><g fill="#b0b0b0"><path d="m12.0004 8.74999c-.41 0-.75-.34-.75-.75v-4.19l-.72.72c-.29.29-.76997.29-1.05997 0s-.29-.77 0-1.06l1.99997-2c.21-.21.54-.28.82-.16.28.11.46.39.46.69v6c0 .41-.34.75-.75.75z"/><path d="m14.0004 4.74994c-.19 0-.38-.07-.53-.22l-2-2c-.29-.29-.29-.77 0-1.06s.77-.29 1.06 0l2 2c.29.29.29.77 0 1.06-.15.15-.34.22-.53.22z"/><path d="m16 22.75h-8c-5.75 0-5.75-3.05-5.75-5.75v-1c0-2.23 0-4.75 4.75-4.75 1.19 0 1.63.29 2.25.75.03.03.07.05.1.09l1.02 1.08c.86.91 2.42.91 3.28 0l1.02-1.08c.03-.03.06-.06.1-.09.62-.47 1.06-.75 2.25-.75 4.75 0 4.75 2.52 4.75 4.75v1c-.02 3.82-1.95 5.75-5.77 5.75zm-9-10c-3.25 0-3.25 1.02-3.25 3.25v1c0 2.74 0 4.25 4.25 4.25h8c2.98 0 4.25-1.27 4.25-4.25v-1c0-2.23 0-3.25-3.25-3.25-.72 0-.87.09-1.3.41l-.97 1.03c-.72.76-1.69 1.18-2.73 1.18s-2.01-.42-2.73-1.18l-.97-1.03c-.43-.32-.58-.41-1.3-.41z"/><path d="m5 12.75c-.41 0-.75-.34-.75-.75v-2.00003c0-1.94 0-4.35 3.68-4.7.4-.05.78.26.82.68.04.41-.26.78-.68.82-2.32.21-2.32 1.15-2.32 3.2v2.00003c0 .41-.34.75-.75.75z"/><path d="m19.0004 12.75c-.41 0-.75-.34-.75-.75v-2.00002c0-2.05 0-2.99-2.32-3.21-.41-.04-.71-.41-.67-.82s.4-.72.82-.67c3.68.35 3.68 2.76 3.68 4.7v2.00002c-.01.41-.35.75-.76.75z"/></g></svg>