<svg fill="none" height="24" viewBox="0 0 24 24" width="24" xmlns="http://www.w3.org/2000/svg"><path d="m10 8v-2m0 12v-2m0-3v-2m-4 10c-2.20914 0-4-1.7909-4-4v-1c0-.5523.46-.9837.98189-1.1644 1.17464-.4067 2.01811-1.5226 2.01811-2.8356s-.84347-2.42895-2.01811-2.83563c-.52189-.18069-.98189-.61209-.98189-1.16437v-1c0-2.20914 1.79086-4 4-4h12c2.2091 0 4 1.79086 4 4v1c0 .55228-.46.98368-.9819 1.16437-1.1746.40668-2.0181 1.52263-2.0181 2.83563s.8435 2.4289 2.0181 2.8356c.5219.1807.9819.6121.9819 1.1644v1c0 2.2091-1.7909 4-4 4z" stroke="#b0b0b0" stroke-linecap="round" stroke-linejoin="round" stroke-width="1.5"/></svg>