<svg fill="none" height="24" viewBox="0 0 24 24" width="24" xmlns="http://www.w3.org/2000/svg"><g stroke="#b0b0b0" stroke-linecap="round" stroke-linejoin="round" stroke-width="1.5"><path d="m16.1497 12.83-1.73.58c-.48.16-.85.53-1.01 1.01l-.58 1.73c-.49 1.49-2.59 1.46-3.05-.03l-1.95-6.28c-.38-1.25.77-2.39999 2-2.01999l6.29 1.94998c1.49.47001 1.51 2.57001.03 3.06001z"/><path d="m12 22c5.5228 0 10-4.4772 10-10 0-5.52285-4.4772-10-10-10-5.52285 0-10 4.47715-10 10 0 5.5228 4.47715 10 10 10z"/></g></svg>