<svg fill="none" height="24" viewBox="0 0 24 24" width="24" xmlns="http://www.w3.org/2000/svg" xmlns:xlink="http://www.w3.org/1999/xlink"><radialGradient id="a" cx="0" cy="0" gradientTransform="matrix(0 11 -9.9 0 11.9 12)" gradientUnits="userSpaceOnUse" r="1"><stop offset="0" stop-color="#ff7193"/><stop offset="1" stop-color="#5200ff"/></radialGradient><path clip-rule="evenodd" d="m21.8 9.96536v8.59814c0 2.4502-1.9699 4.4365-4.4 4.4365h-11c-2.43005 0-4.4-1.9863-4.4-4.4365v-8.59814c0-1.33205.59361-2.59361 1.61685-3.43618l5.49999-4.5289c1.61966-1.333706 3.94666-1.333708 5.56636 0l5.4999 4.52889c1.0233.84258 1.6169 2.10414 1.6169 3.43619zm-13.97785 5.67514c-.41945-.178-.90374.0178-1.08169.4372-.17794.4195.01783.9038.43728 1.0817 1.79189.7602 3.26746 1.1693 4.76876 1.1655 1.5022-.0037 2.9482-.4206 4.6801-1.1674.4184-.1804.6113-.6658.4309-1.0842s-.6658-.6113-1.0842-.4309c-1.6381.7064-2.8477 1.0296-4.0309 1.0325-1.184.003-2.42345-.3146-4.12025-1.0344z" fill="url(#a)" fill-rule="evenodd"/></svg>