<svg fill="none" height="24" viewBox="0 0 24 24" width="24" xmlns="http://www.w3.org/2000/svg"><g stroke="#b0b0b0" stroke-width="1.5"><path d="m2.98128 2h17.03742c.9448 0 1.3302 1.28435.6019 1.8844-.0378.03118-.0763.06213-.1115.09622l-7.8166 7.56318c-.0705.0682-.1449.1327-.2287.1837-.5976.3633-1.33.3633-1.9276 0-.0838-.051-.1582-.1155-.2287-.1837l-7.81662-7.56318c-.03523-.03409-.07364-.06504-.11147-.09622-.72829-.60005-.34287-1.8844.60187-1.8844z"/><path d="m17.2773 22h-11.65063" stroke-linecap="round"/><path d="m17.0039 7h-11.33886" stroke-linecap="round"/><path d="m11.5732 12v10"/></g></svg>