<svg width="24" height="24" viewBox="0 0 24 24" fill="none" xmlns="http://www.w3.org/2000/svg">
<g id="Vault">
<path id="Path_33948" fill-rule="evenodd" clip-rule="evenodd" d="M21.7673 9.75296C21.1282 5.81957 17.7872 2.89333 13.8039 2.77814C13.6145 2.77071 13.43 2.8389 13.2909 2.96767C13.1518 3.09645 13.0696 3.27523 13.0625 3.46464V3.46464V3.52871L13.511 10.2381C13.5404 10.6897 13.9287 11.0331 14.3806 11.007L21.1083 10.5585C21.2978 10.5444 21.474 10.4554 21.5977 10.3111C21.7214 10.1668 21.7824 9.97906 21.7673 9.78958V9.75296Z" stroke="#B0B0B0" stroke-width="1.5" stroke-linecap="round" stroke-linejoin="round"/>
<path id="Path_33949" d="M9.14516 6.76901C9.57312 6.67002 10.0111 6.88899 10.1886 7.29075C10.2352 7.38525 10.2631 7.48778 10.271 7.59281C10.3626 8.89258 10.5548 11.7393 10.6646 13.277C10.6834 13.554 10.8117 13.8121 11.0213 13.9942C11.2309 14.1763 11.5044 14.2674 11.7813 14.2473V14.2473L17.4289 13.8994C17.681 13.8843 17.9282 13.974 18.112 14.1473C18.2957 14.3207 18.3996 14.5622 18.3992 14.8148V14.8148C18.1703 18.2252 15.7201 21.0762 12.3829 21.8152C9.04567 22.5542 5.62083 21.0042 3.97354 18.0093C3.48179 17.1473 3.17037 16.1944 3.0582 15.2084C3.01025 14.9058 2.99186 14.5992 3.00328 14.293C3.013 10.651 5.57079 7.51297 9.13601 6.76901" stroke="#B0B0B0" stroke-width="1.5" stroke-linecap="round" stroke-linejoin="round"/>
</g>
</svg>
