<?xml version="1.0" standalone="no"?><!DOCTYPE svg PUBLIC "-//W3C//DTD SVG 1.1//EN" "http://www.w3.org/Graphics/SVG/1.1/DTD/svg11.dtd"><svg t="1742997446300" class="icon" viewBox="0 0 1024 1024" version="1.1" xmlns="http://www.w3.org/2000/svg" p-id="42993" xmlns:xlink="http://www.w3.org/1999/xlink" width="128" height="128"><path d="M844.373333 180.053333c-126.293333-125.866667-331.093333-125.866667-456.533333 0-88.32 87.466667-114.773333 213.333333-80.64 324.266667l-200.533333 200.533333c-14.08 14.506667-23.893333 43.093333-20.906667 63.573334l12.8 93.013333c4.693333 30.72 33.28 59.733333 64 64l93.013333 12.8c20.48 2.986667 49.066667-6.4 63.573334-21.333333l34.986666-34.986667c8.533333-8.106667 8.533333-21.76 0-30.293333l-82.773333-82.773334a32.170667 32.170667 0 0 1 0-45.226666c12.373333-12.373333 32.853333-12.373333 45.226667 0l83.2 83.2c8.106667 8.106667 21.76 8.106667 29.866666 0l90.453334-90.026667c110.506667 34.56 236.373333 7.68 324.266666-79.786667 125.866667-125.866667 125.866667-331.093333 0-456.96zM618.666667 512a106.666667 106.666667 0 0 1 0-213.333333 106.666667 106.666667 0 0 1 0 213.333333z" opacity=".4" p-id="42994" data-spm-anchor-id="a313x.search_index.0.i10.23cb3a81ksaFg5" class="" fill="#5200ff"></path><path d="M618.666667 405.333333m-106.666667 0a106.666667 106.666667 0 1 0 213.333333 0 106.666667 106.666667 0 1 0-213.333333 0Z" p-id="42995" data-spm-anchor-id="a313x.search_index.0.i11.23cb3a81ksaFg5" class="" fill="#5200ff"></path></svg>