<?xml version="1.0" standalone="no"?><!DOCTYPE svg PUBLIC "-//W3C//DTD SVG 1.1//EN" "http://www.w3.org/Graphics/SVG/1.1/DTD/svg11.dtd"><svg t="1742998065562" class="icon" viewBox="0 0 1024 1024" version="1.1" xmlns="http://www.w3.org/2000/svg" p-id="1447" width="64" height="64" xmlns:xlink="http://www.w3.org/1999/xlink"><path d="M517.5862429 521.20975181l-3.47252937 2.03822377c-18.87244225 8.15289505-29.44100989 25.21358284-27.32729637 44.31249438v390.05563622a37.74488448 37.74488448 0 0 1-37.74488447 37.74488448H348.41367066a37.74488448 37.74488448 0 0 1-37.74488448-37.74488448v-48.76639074H170.18232614a37.74488448 37.74488448 0 0 1-37.74488449-37.74488448v-101.60922903a37.74488448 37.74488448 0 0 1 37.74488449-37.74488449h140.48646004V546.42333465c0-4.07644753-7.02054851-10.19111881-13.96560726-15.70187195L293.8345677 529.36264687a61.82612078 61.82612078 0 0 1-7.02054851-4.07644753 264.28968114 264.28968114 0 0 1-150.22464024-288.89934582 272.06512734 272.06512734 0 0 1 237.64179269-221.41149237 269.57396497 269.57396497 0 0 1 275.38667718 175.13626399c46.12424883 129.46495377-9.81366997 273.19747388-132.10709568 331.09812667z m-179.66565012-301.20417816c-27.25180659 25.28907259-34.27235511 63.41140592-20.98615579 96.77788381 12.60679142 34.12137557 46.80365675 54.50361319 80.39660395 54.50361319A90.58772276 90.58772276 0 0 0 488.22072278 284.77579543c0-37.44292541-20.30674785-68.0917716-53.14479735-83.03874587l-2.11371353-0.7548977c-31.40374388-14.94697425-69.90352606-6.7940792-95.04161912 19.09891156z" fill="#5200ff" p-id="1448" data-spm-anchor-id="a313x.manage_type_myprojects.0.i1.28673a81qZma0U" class=""></path><path d="M575.56238547 21.16552221c123.04832341-29.36552012 249.56917618 40.83996501 293.65520127 164.8696554l1.35881584 4.07644753c46.80365675 130.82376961-8.37936436 276.59451348-127.87966863 333.13635044a41.44388316 41.44388316 0 0 0-26.57239867 42.95367854v391.41445206a37.74488448 37.74488448 0 0 1-37.74488449 37.74488448h-36.38606864a37.74488448 37.74488448 0 0 1-37.74488447-37.74488448V567.56046996a40.00957755 40.00957755 0 0 1 24.45868515-44.31249438c97.91023035-48.31345214 156.56578082-156.03735244 144.71388709-269.80043428-12.60679142-114.44248975-92.24849768-207.14392603-197.78319468-232.28201909z" fill="#5200ff" fill-opacity=".3" p-id="1449"></path></svg>