<svg fill="none" height="16" viewBox="0 0 16 16" width="16" xmlns="http://www.w3.org/2000/svg"><path d="m10.6673 1.3335h-5.33332c-2.66666 0-4 1.33333-4 4v8.6667c0 .3666.3.6666.66667.6666h8.66665c2.6667 0 4-1.3333 4-4v-5.3333c0-2.66667-1.3333-4-4-4zm-3.25998 9.7733c-.16667.1667-.47334.32-.7.3534l-1.38667.1933c-.05333.0067-.10667.0133-.15333.0133-.23334 0-.44667-.08-.6-.2333-.18667-.1867-.26667-.46-.22-.7533l.19333-1.3867c.03333-.22667.18667-.54.35333-.7l2.51334-2.51334c.04.12.09333.24.15333.37334.06.12.12.24.18667.35333.05333.09333.11333.18667.16666.25333.06667.1.13334.18667.18.23334.02667.04.05334.06666.06.08.14667.16666.3.32666.44667.44666.04.04.06667.06.07333.06667.08667.06667.16667.14.24667.18667.08667.06666.18.12666.27333.18.11334.06666.23334.13333.36.19333.12667.06.24667.10667.36667.14667zm3.62668-3.61997-.52.52c-.0333.03333-.08.05333-.1267.05333-.0133 0-.04 0-.0533-.00666-1.14668-.32667-2.06002-1.24-2.38668-2.38667-.02-.06 0-.12667.04666-.17333l.52667-.52667c.86-.86 1.67335-.84 2.51335 0 .4266.42667.64.84.6333 1.26667 0 .42-.2067.82666-.6333 1.25333z" fill="#f9b617"/></svg>