<svg fill="none" height="16" viewBox="0 0 16 16" width="16" xmlns="http://www.w3.org/2000/svg"><path clip-rule="evenodd" d="m11.3322 13.0686s-.4315-.5154-.7911-.9709c1.5702-.4435 2.1695-1.4264 2.1695-1.4264-.4914.3237-.9589.5514-1.3784.7072-.5993.2517-1.1747.4195-1.73802.5154-1.15069.2158-2.20548.1559-3.10445-.012-.68322-.1318-1.27055-.3236-1.76199-.5154-.27568-.1078-.57534-.2397-.875-.4075-.01798-.012-.03596-.021-.05394-.03s-.03596-.0179-.05394-.0299c-.02397-.012-.03596-.024-.04794-.036-.21576-.1198-.33562-.2038-.33562-.2038s.57534.959 2.09761 1.4144c-.35959.4555-.80309.9949-.80309.9949-2.64897-.0839-3.65582-1.8219-3.65582-1.8219 0-3.85961 1.72603-6.98804 1.72603-6.98804 1.72602-1.29452 3.36815-1.25856 3.36815-1.25856l.11986.14384c-2.15753.62328-3.1524 1.5702-3.1524 1.5702s.2637-.14383.7072-.3476c1.28253-.56336 2.30137-.71918 2.72089-.75514l.02687-.00454c.06046-.0103.11411-.01943.17689-.01943.73117-.09589 1.55822-.11986 2.42124-.02397 1.13867.13185 2.36127.46746 3.60787 1.15068 0 0-.9469-.89897-2.98459-1.52226l.16781-.19178s1.64208-.03596 3.36818 1.25856c0 0 1.726 3.12843 1.726 6.98804 0 0-1.0188 1.738-3.6678 1.8219zm-4.2072-4.38109c0 .72487-.58763 1.31249-1.3125 1.31249s-1.3125-.58762-1.3125-1.31249c0-.72488.58763-1.3125 1.3125-1.3125s1.3125.58762 1.3125 1.3125zm3.0625 1.31249c.7249 0 1.3125-.58762 1.3125-1.31249 0-.72488-.5876-1.3125-1.3125-1.3125-.72487 0-1.3125.58762-1.3125 1.3125 0 .72487.58763 1.31249 1.3125 1.31249z" fill="#793aff" fill-rule="evenodd"/></svg>