<svg fill="none" height="32" viewBox="0 0 32 32" width="32" xmlns="http://www.w3.org/2000/svg"><rect fill="#4a4bda" height="32" rx="8" width="32"/><path clip-rule="evenodd" d="m19.8082 21.507s-.4931-.5891-.9041-1.1096c1.7945-.5069 2.4795-1.6302 2.4795-1.6302-.5617.3699-1.0959.6302-1.5754.8083-.6849.2876-1.3424.4794-1.9863.589-1.315.2466-2.5205.1781-3.5479-.0137-.7808-.1507-1.4521-.3699-2.0137-.589-.3151-.1233-.6576-.274-1-.4658-.0206-.0137-.0411-.024-.0617-.0342-.0205-.0103-.0411-.0206-.0616-.0343-.0274-.0137-.0411-.0274-.0548-.0411-.2466-.137-.3836-.2329-.3836-.2329s.6576 1.0959 2.3973 1.6165c-.411.5205-.9178 1.137-.9178 1.137-3.02742-.0959-4.1781-2.0822-4.1781-2.0822 0-4.411 1.9726-7.9863 1.9726-7.9863 1.9726-1.47948 3.8493-1.4384 3.8493-1.4384l.137.1644c-2.4657.7123-3.6027 1.7945-3.6027 1.7945s.3013-.1644.8082-.3972c1.4657-.6439 2.6301-.822 3.1096-.8631l.0307-.0051c.0691-.0118.1304-.0223.2021-.0223.8357-.1095 1.7809-.1369 2.7672-.0273 1.3013.1506 2.6986.5342 4.1233 1.315 0 0-1.0822-1.0274-3.411-1.7397l.1918-.2192s1.8767-.04108 3.8493 1.4384c0 0 1.9726 3.5753 1.9726 7.9863 0 0-1.1644 1.9863-4.1918 2.0822zm-4.8082-5.007c0 .8284-.6716 1.5-1.5 1.5s-1.5-.6716-1.5-1.5.6716-1.5 1.5-1.5 1.5.6716 1.5 1.5zm3.5 1.5c.8284 0 1.5-.6716 1.5-1.5s-.6716-1.5-1.5-1.5-1.5.6716-1.5 1.5.6716 1.5 1.5 1.5z" fill="#fff" fill-rule="evenodd"/></svg>