<svg width="16" height="12" viewBox="0 0 16 12" fill="none" xmlns="http://www.w3.org/2000/svg">
<g id="Dis">
<path id="Exclude" fill-rule="evenodd" clip-rule="evenodd" d="M11.8082 11.507C11.8082 11.507 11.3151 10.9179 10.9041 10.3974C12.6986 9.89052 13.3836 8.76723 13.3836 8.76723C12.8219 9.13709 12.2877 9.39737 11.8082 9.57545C11.1233 9.86312 10.4658 10.0549 9.82192 10.1645C8.50685 10.4111 7.30137 10.3426 6.27397 10.1508C5.49315 10.0001 4.82192 9.78093 4.26027 9.56175C3.94521 9.43846 3.60274 9.28778 3.26027 9.096C3.23973 9.0823 3.21918 9.07202 3.19863 9.06175C3.17808 9.05148 3.15753 9.0412 3.13699 9.0275C3.10959 9.0138 3.09589 9.0001 3.08219 8.98641C2.83562 8.84942 2.69863 8.75353 2.69863 8.75353C2.69863 8.75353 3.35617 9.84942 5.09589 10.37C4.68493 10.8905 4.17808 11.507 4.17808 11.507C1.15068 11.4111 0 9.42476 0 9.42476C0 5.0138 1.9726 1.43846 1.9726 1.43846C3.94521 -0.0409903 5.82192 0.000105455 5.82192 0.000105455L5.9589 0.16449C3.49315 0.876818 2.35617 1.95901 2.35617 1.95901C2.35617 1.95901 2.65753 1.79463 3.16438 1.56175C4.63014 0.917914 5.79452 0.739832 6.27397 0.698736L6.30468 0.693544C6.37378 0.681778 6.4351 0.671339 6.50685 0.671339C7.34247 0.56175 8.28767 0.534353 9.27397 0.643942C10.5753 0.794627 11.9726 1.17819 13.3973 1.95901C13.3973 1.95901 12.3151 0.931612 9.9863 0.219284L10.1781 0.000105455C10.1781 0.000105455 12.0548 -0.0409903 14.0274 1.43846C14.0274 1.43846 16 5.0138 16 9.42476C16 9.42476 14.8356 11.4111 11.8082 11.507ZM7 6.49999C7 7.32842 6.32843 7.99999 5.5 7.99999C4.67157 7.99999 4 7.32842 4 6.49999C4 5.67156 4.67157 4.99999 5.5 4.99999C6.32843 4.99999 7 5.67156 7 6.49999ZM10.5 7.99999C11.3284 7.99999 12 7.32842 12 6.49999C12 5.67156 11.3284 4.99999 10.5 4.99999C9.67157 4.99999 9 5.67156 9 6.49999C9 7.32842 9.67157 7.99999 10.5 7.99999Z" fill="#B0B0B0"/>
</g>
</svg>
