<svg width="14" height="13" viewBox="0 0 14 13" fill="none" xmlns="http://www.w3.org/2000/svg">
<path id="Message" fill-rule="evenodd" clip-rule="evenodd" d="M10.4573 0C11.396 0 12.299 0.371 12.9633 1.0367C13.6283 1.701 14 2.597 14 3.535V9.065C14 11.018 12.411 12.6 10.4573 12.6H3.542C1.5883 12.6 0 11.018 0 9.065V3.535C0 1.582 1.5813 0 3.542 0H10.4573ZM11.5714 4.57778L11.6274 4.52178C11.7947 4.31878 11.7947 4.02478 11.6197 3.82177C11.5224 3.71747 11.3887 3.65377 11.2494 3.63978C11.1024 3.63208 10.9624 3.68178 10.8567 3.77978L7.70041 6.29978C7.29441 6.63648 6.71271 6.63648 6.30041 6.29978L3.15041 3.77978C2.93271 3.61878 2.63171 3.63978 2.45041 3.82877C2.26141 4.01778 2.24041 4.31878 2.40071 4.52878L2.49241 4.61978L5.67741 7.10478C6.06941 7.41278 6.54471 7.58078 7.04241 7.58078C7.53871 7.58078 8.02241 7.41278 8.41371 7.10478L11.5714 4.57778Z" fill="#B0B0B0"/>
</svg>
