<svg fill="none" height="16" viewBox="0 0 16 16" width="16" xmlns="http://www.w3.org/2000/svg"><path clip-rule="evenodd" d="m10.9634 3c.8046 0 1.5786.318 2.148.8886.57.5694.8886 1.3374.8886 2.1414v4.74c0 1.674-1.362 3.03-3.0366 3.03h-5.9274c-1.6746 0-3.036-1.356-3.036-3.03v-4.74c0-1.674 1.3554-3.03 3.036-3.03zm.9547 3.92395.048-.048c.1434-.174.1434-.426-.0066-.6-.0834-.0894-.198-.144-.3174-.156-.126-.0066-.246.036-.3366.12l-2.70538 2.16c-.348.2886-.8466.2886-1.19999 0l-2.70001-2.16c-.18659-.138-.44459-.12-.59999.042-.162.162-.18.42-.0426.6l.0786.078 2.72999 2.13c.336.264.7434.408 1.17.408.4254 0 .84-.144 1.1754-.408z" fill="#ff4949" fill-rule="evenodd"/></svg>