<svg fill="none" height="32" viewBox="0 0 32 32" width="32" xmlns="http://www.w3.org/2000/svg"><rect fill="#fff" height="32" rx="8" width="32"/><path d="m15.9982 2c-7.7297 0-13.99819 6.42679-13.99819 14.3548-.00316 3.0089.91965 5.9426 2.638 8.3867 1.71836 2.4441 4.14535 4.2749 6.93799 5.2336.7.1323.9555-.311.9555-.6916 0-.3414-.0122-1.2439-.0192-2.4414-3.8938.8668-4.7163-1.9248-4.7163-1.9248-.63525-1.6585-1.55399-2.0999-1.55399-2.0999-1.27225-.8901.0945-.8722.0945-.8722 1.40524.1019 2.14374 1.4798 2.14374 1.4798 1.2495 2.1929 3.27775 1.5602 4.07575 1.1921.126-.9276.4883-1.5603.889-1.9195-3.108-.3628-6.377-1.5942-6.377-7.0934 0-1.5674.546-2.8488 1.442-3.8532-.14525-.3628-.62475-1.82296.1365-3.79782 0 0 1.176-.38604 3.85 1.47087 1.1423-.31882 2.3211-.48109 3.5053-.48255 1.1842.0024 2.3629.16527 3.5052.48433 2.6722-1.8569 3.8465-1.47087 3.8465-1.47087.763 1.97665.2835 3.43504.14 3.79784.8977 1.0044 1.4385 2.2858 1.4385 3.8532 0 5.5135-3.2725 6.727-6.391 7.0827.5022.4432.9502 1.3189.9502 2.6575 0 1.9195-.0175 3.4672-.0175 3.9373 0 .3842.252.831.9625.6898 2.79-.961 5.214-2.7925 6.9299-5.2359 1.716-2.4435 2.6373-5.3756 2.6339-8.3826 0-7.92801-6.2685-14.3548-14.0018-14.3548z" fill="#0d0c0f"/></svg>