<svg fill="none" height="16" viewBox="0 0 16 16" width="16" xmlns="http://www.w3.org/2000/svg"><rect fill="#fff" height="16" rx="4" width="16"/><path d="m7.99912 1c-3.86487 0-6.99912 3.21339-6.99912 7.17741-.001575 1.50442.45983 2.97129 1.31901 4.19339.85917 1.222 2.07267 2.1374 3.46899 2.6168.35.0661.47775-.1555.47775-.3459 0-.1706-.00612-.6219-.00962-1.2206-1.94688.4334-2.35813-.9624-2.35813-.9624-.31762-.8293-.777-1.05-.777-1.05-.63612-.445.04725-.4361.04725-.4361.70263.0509 1.07188.7399 1.07188.7399.62475 1.0965 1.63887.7801 2.03787.596.063-.4637.24413-.7801.4445-.9597-1.554-.1814-3.1885-.7971-3.1885-3.5467 0-.78369.273-1.4244.721-1.92661-.07262-.1814-.31237-.91147.06825-1.8989 0 0 .588-.19302 1.925.73543.57115-.1594 1.16053-.24054 1.75263-.24127.59212.0012 1.18147.08263 1.75262.24217 1.3361-.92846 1.9232-.73544 1.9232-.73544.3815.98833.1418 1.7175.07 1.89891.4489.5022.7193 1.14291.7193 1.9266 0 2.75681-1.6363 3.36351-3.1955 3.54131.25112.2217.47512.6595.47512 1.3288 0 .9598-.00875 1.7336-.00875 1.9686 0 .1922.126.4156.48123.345 1.395-.4805 2.607-1.3963 3.465-2.618.8579-1.2218 1.3186-2.68782 1.3169-4.19129 0-3.96402-3.1343-7.17741-7.00088-7.17741z" fill="#0d0c0f"/></svg>