<svg fill="none" height="19" viewBox="0 0 19 19" width="19" xmlns="http://www.w3.org/2000/svg"><g fill="#5200ff"><path d="m17.0001 4.78701v7.18499c0 2.07-1.68 3.75-3.75 3.75h-7.50005c-.345 0-.675-.045-.9975-.135-.465-.1275-.615-.72-.27-1.065l7.97255-7.97249c.165-.165.4125-.2025.645-.1575.24.045.5025-.0225.69-.2025l1.9275-1.935c.705-.705 1.2825-.4725 1.2825.5325z"/><path d="m11.48 6.02453-7.8525 7.85247c-.36.36-.96.27-1.2-.18-.2775-.51-.4275-1.1025-.4275-1.725v-7.18497c0-1.005.5775-1.2375 1.2825-.5325l1.935 1.9425c.2925.285.7725.285 1.065 0l2.685-2.6925c.2925-.2925.7725-.2925 1.065 0l1.455 1.455c.285.2925.285.7725-.0075 1.065z" opacity=".4"/></g></svg>