<svg fill="none" height="32" viewBox="0 0 32 32" width="32" xmlns="http://www.w3.org/2000/svg"><rect fill="#f9b617" height="32" rx="8" width="32"/><path clip-rule="evenodd" d="m19.4573 10c.9387 0 1.8417.371 2.506 1.0367.665.6643 1.0367 1.5603 1.0367 2.4983v5.53c0 1.953-1.589 3.535-3.5427 3.535h-6.9153c-1.9537 0-3.542-1.582-3.542-3.535v-5.53c0-1.953 1.5813-3.535 3.542-3.535zm1.1141 4.5778.056-.056c.1673-.203.1673-.497-.0077-.7-.0973-.1043-.231-.168-.3703-.182-.147-.0077-.287.042-.3927.14l-3.1563 2.52c-.406.3367-.9877.3367-1.4 0l-3.15-2.52c-.2177-.161-.5187-.14-.7.049-.189.189-.21.49-.0497.7l.0917.091 3.185 2.485c.392.308.8673.476 1.365.476.4963 0 .98-.168 1.3713-.476z" fill="#fff" fill-rule="evenodd"/></svg>