<svg width="32" height="33" viewBox="0 0 32 33" fill="none" xmlns="http://www.w3.org/2000/svg">
<g id="Dis">
<rect id="Rectangle 2058" x="0.5" y="0.941406" width="31" height="31" rx="7.5" fill="white" stroke="#29282F"/>
<path id="medium" d="M10.6625 12.7164C10.6625 12.5414 10.575 12.3664 10.4875 12.2789L9.175 10.7039V10.4414H13.2L16.35 17.3539L19.15 10.4414H23V10.7039L21.8625 11.7539C21.775 11.8414 21.6875 11.9289 21.775 12.1039V19.9789C21.775 20.0664 21.775 20.2414 21.8625 20.3289L22.9125 21.3789V21.6414H17.4V21.3789L18.5375 20.2414C18.625 20.1539 18.625 20.0664 18.625 19.8914V13.5039L15.475 21.4664H15.125L11.45 13.5039V18.8414C11.45 19.1039 11.5375 19.2789 11.625 19.4539L13.1125 21.2039V21.4664H9V21.2039L10.4875 19.4539C10.6625 19.2789 10.75 19.1039 10.6625 18.8414V12.7164Z" fill="black"/>
</g>
</svg>
