<svg width="14" height="12" viewBox="0 0 14 12" fill="none" xmlns="http://www.w3.org/2000/svg">
<path id="medium" d="M1.6625 2.275C1.6625 2.1 1.575 1.925 1.4875 1.8375L0.175 0.262499V0H4.2L7.35 6.9125L10.15 0H14V0.262499L12.8625 1.3125C12.775 1.4 12.6875 1.4875 12.775 1.6625V9.5375C12.775 9.625 12.775 9.8 12.8625 9.8875L13.9125 10.9375V11.2H8.4V10.9375L9.5375 9.8C9.625 9.7125 9.625 9.625 9.625 9.45V3.0625L6.475 11.025H6.125L2.45 3.0625V8.4C2.45 8.6625 2.5375 8.8375 2.625 9.0125L4.1125 10.7625V11.025H0V10.7625L1.4875 9.0125C1.6625 8.8375 1.75 8.6625 1.6625 8.4V2.275Z" fill="#B0B0B0"/>
</svg>
