<svg fill="none" height="32" viewBox="0 0 32 32" width="32" xmlns="http://www.w3.org/2000/svg"><rect fill="#fff" height="32" rx="8" width="32"/><path d="m10.6625 12.275c0-.175-.0875-.35-.175-.4375l-1.3125-1.575v-.2625h4.025l3.15 6.9125 2.8-6.9125h3.85v.2625l-1.1375 1.05c-.0875.0875-.175.175-.0875.35v7.875c0 .0875 0 .2625.0875.35l1.05 1.05v.2625h-5.5125v-.2625l1.1375-1.1375c.0875-.0875.0875-.175.0875-.35v-6.3875l-3.15 7.9625h-.35l-3.675-7.9625v5.3375c0 .2625.0875.4375.175.6125l1.4875 1.75v.2625h-4.1125v-.2625l1.4875-1.75c.175-.175.2625-.35.175-.6125z" fill="#000"/></svg>