<svg fill="none" height="16" viewBox="0 0 16 16" width="16" xmlns="http://www.w3.org/2000/svg"><rect fill="#fff" height="15" rx="3.5" stroke="#0d0c0f" width="15" x=".5" y=".5"/><path d="m4.1875 5.625c0-.125-.0625-.25-.125-.3125l-.9375-1.125v-.1875h2.875l2.25 4.9375 2-4.9375h2.75v.1875l-.8125.75c-.0625.0625-.125.125-.0625.25v5.625c0 .0625 0 .1875.0625.25l.75.75v.1875h-3.9375v-.1875l.8125-.8125c.0625-.0625.0625-.125.0625-.25v-4.5625l-2.25 5.6875h-.25l-2.625-5.6875v3.8125c0 .1875.0625.3125.125.4375l1.0625 1.25v.1875h-2.9375v-.1875l1.0625-1.25c.125-.125.1875-.25.125-.4375z" fill="#0d0c0f"/></svg>