<svg width="16" height="16" viewBox="0 0 16 16" fill="none" xmlns="http://www.w3.org/2000/svg">
<g id="frame">
<path id="Vector" d="M8 1C6.34526 1 5 2.34668 5 4.00316C5 5.62803 6.26947 6.9431 7.92421 7C7.97474 6.99368 8.02526 6.99368 8.06316 7C8.07579 7 8.0821 7 8.09474 7C8.10105 7 8.10105 7 8.10737 7C9.72421 6.9431 10.9937 5.62803 11 4.00316C11 2.34668 9.65474 1 8 1Z" fill="#B0B0B0"/>
<path id="Vector_2" d="M12.3295 10.0562C9.9517 8.64792 6.07386 8.64792 3.67898 10.0562C2.59659 10.6998 2 11.5706 2 12.5019C2 13.4332 2.59659 14.2964 3.67045 14.9324C4.86364 15.6441 6.43182 16 8 16C9.56818 16 11.1364 15.6441 12.3295 14.9324C13.4034 14.2888 14 13.4256 14 12.4868C13.9915 11.5554 13.4034 10.6923 12.3295 10.0562Z" fill="#B0B0B0"/>
</g>
</svg>
