<svg fill="none" height="16" viewBox="0 0 16 16" width="16" xmlns="http://www.w3.org/2000/svg"><g fill="#0085ff"><path d="m8 1c-1.65474 0-3 1.34668-3 3.00316 0 1.62487 1.26947 2.93994 2.92421 2.99684.05053-.00632.10105-.00632.13895 0h.03158.01263c1.61684-.0569 2.88633-1.37197 2.89263-2.99684 0-1.65648-1.34526-3.00316-3-3.00316z"/><path d="m12.3295 9.05625c-2.3778-1.40833-6.25564-1.40833-8.65052 0-1.08239.64359-1.67898 1.51435-1.67898 2.44565s.59659 1.7945 1.67045 2.4305c1.19319.7117 2.76137 1.0676 4.32955 1.0676s3.1364-.3559 4.3295-1.0676c1.0739-.6436 1.6705-1.5068 1.6705-2.4456-.0085-.9314-.5966-1.79453-1.6705-2.43055z"/></g></svg>