<svg fill="none" height="25" viewBox="0 0 24 25" width="24" xmlns="http://www.w3.org/2000/svg"><g fill="#bbb"><path d="m15 23.5137h-6c-5.43 0-7.75-2.32-7.75-7.75v-6.00003c0-5.43 2.32-7.75 7.75-7.75h6c5.43 0 7.75 2.32 7.75 7.75v6.00003c0 5.43-2.32 7.75-7.75 7.75zm-6-20.00003c-4.61 0-6.25 1.64-6.25 6.25v6.00003c0 4.61 1.64 6.25 6.25 6.25h6c4.61 0 6.25-1.64 6.25-6.25v-6.00003c0-4.61-1.64-6.25-6.25-6.25z"/><path d="m10.7402 17.0438c-.19 0-.38-.07-.53-.22-.29003-.29-.29003-.77 0-1.06l3-3-3-2.99997c-.29003-.29-.29003-.77 0-1.06.29-.29.77-.29 1.06 0l3.53 3.52997c.29.29.29.77 0 1.06l-3.53 3.53c-.15.15-.34.22-.53.22z"/></g></svg>