<svg fill="none" height="19" viewBox="0 0 19 19" width="19" xmlns="http://www.w3.org/2000/svg"><g fill="#5200ff"><path d="m14 16.2429h-.75v-.1875c0-.825-.675-1.5-1.5-1.5h-1.6875v-1.7175c-.1875.0225-.375.03-.5625.03s-.375-.0075-.5625-.03v1.7175h-1.6875c-.825 0-1.5.675-1.5 1.5v.1875h-.75c-.3075 0-.5625.255-.5625.5625s.255.5625.5625.5625h9c.3075 0 .5625-.255.5625-.5625s-.255-.5625-.5625-.5625z" opacity=".4"/><path d="m4.64002 9.59719c-.495-.1875-.93-.495-1.275-.84-.6975-.7725-1.155-1.695-1.155-2.775s.8475-1.9275 1.9275-1.9275h.42c-.195.3975-.3075.84-.3075 1.3125v2.25c0 .705.135 1.3725.39 1.98z" opacity=".4"/><path d="m16.79 5.98219c0 1.08-.4575 2.0025-1.155 2.775-.345.345-.78.6525-1.275.84.255-.6075.39-1.275.39-1.98v-2.25c0-.4725-.1125-.915-.3075-1.3125h.42c1.08 0 1.9275.8475 1.9275 1.9275z" opacity=".4"/><path d="m11.75 2.36719h-4.5c-1.6575 0-3 1.3425-3 3v2.25c0 2.90251 2.3475 5.25001 5.25 5.25001s5.25-2.3475 5.25-5.25001v-2.25c0-1.6575-1.3425-3-3-3zm-.12 4.8375-.465.57c-.075.0825-.1275.2475-.12.36l.045.735c.03.45-.2925.6825-.7125.5175l-.6825-.27c-.105-.0375-.285-.0375-.39 0l-.6825.27c-.42.165-.7425-.0675-.7125-.5175l.045-.735c.0075-.1125-.045-.2775-.12-.36l-.465-.57c-.2925-.345-.165-.7275.27-.84l.7125-.18c.1125-.03.2475-.135.3075-.2325l.3975-.615c.2475-.3825.6375-.3825.885 0l.3975.615c.06.0975.195.2025.3075.2325l.7125.18c.435.1125.5625.495.27.84z"/></g><path d="m11.63 7.20516-.465.57c-.075.0825-.1275.2475-.12.36l.045.73499c.03.45-.2925.6825-.7125.5175l-.6825-.27c-.105-.0375-.285-.0375-.39 0l-.6825.27c-.42.165-.74251-.0675-.71251-.5175l.045-.73499c.0075-.1125-.045-.2775-.12-.36l-.465-.57c-.2925-.345-.165-.7275.27-.84l.71251-.18c.1125-.03.2475-.135.3075-.2325l.3975-.615c.2475-.3825.6375-.3825.885 0l.3975.615c.06.0975.195.2025.3075.2325l.7125.18c.435.1125.5625.495.27.84z" fill="#fcfaff" opacity=".4"/></svg>