<?xml version="1.0" standalone="no"?><!DOCTYPE svg PUBLIC "-//W3C//DTD SVG 1.1//EN" "http://www.w3.org/Graphics/SVG/1.1/DTD/svg11.dtd"><svg t="1752931413601" class="icon" viewBox="0 0 1024 1024" version="1.1" xmlns="http://www.w3.org/2000/svg" p-id="11364" xmlns:xlink="http://www.w3.org/1999/xlink" width="64" height="64"><path d="M860.68 532.51m-61.53 0a61.53 61.53 0 1 0 123.06 0 61.53 61.53 0 1 0-123.06 0Z" fill="#5200FF" opacity=".4" p-id="11365"></path><path d="M119.19 242.99L830.54 52.27c0.53-0.14 1.08 0.17 1.23 0.71l73.85 275.46a0.994 0.994 0 0 1-0.71 1.22L193.56 520.38a1.01 1.01 0 0 1-1.23-0.71l-73.85-275.46c-0.14-0.53 0.18-1.07 0.71-1.22z" fill="#5200FF" opacity=".4" p-id="11366" data-spm-anchor-id="a313x.search_index.0.i7.143f3a81uzByvN" class=""></path><path d="M922.22 402.75c-71.66-33.94-157.27-3.36-191.21 68.31-33.94 71.66-3.36 157.27 68.31 191.21a143.574 143.574 0 0 0 122.9 0v95.86c0 45.31-36.73 82.04-82.04 82.04H183.83c-45.31 0-82.04-36.73-82.04-82.04V265.87c0-45.31 36.73-82.04 82.04-82.04h656.35c45.31 0 82.04 36.73 82.04 82.04v136.88z" fill="#5200FF" p-id="11367" data-spm-anchor-id="a313x.search_index.0.i6.143f3a81uzByvN" class=""></path></svg>
