<svg fill="none" height="19" viewBox="0 0 19 19" width="19" xmlns="http://www.w3.org/2000/svg"><g fill="#5200ff"><path d="m4.80502 12.7656c.0825-.3675-.0675-.8925-.33-1.155l-1.8225-1.82247c-.57-.57001-.795-1.1775-.63-1.7025.1725-.525.705-.88501 1.5-1.02001l2.34-.39c.3375-.06.75-.36.9075-.6675l1.29-2.5875c.375-.7425.885-1.155 1.44-1.155.55498 0 1.06498.4125 1.43998 1.155l1.29 2.5875c.0975.195.3.3825.5175.51001l-8.07748 8.07747c-.105.105-.285.0075-.255-.1425z" opacity=".4"/><path d="m14.525 11.6101c-.27.27-.42.7875-.33 1.155l.5175 2.2575c.2175.9375.0825 1.6425-.3825 1.98-.1875.135-.4125.2025-.675.2025-.3825 0-.8325-.1425-1.3275-.435l-2.1975-1.305c-.34502-.2025-.91502-.2025-1.26002 0l-2.1975 1.305c-.8325.4875-1.545.57-2.0025.2325-.1725-.1275-.3-.3-.3825-.525l9.12002-9.12004c.345-.345.8325-.5025 1.305-.42l.7575.1275c.795.135 1.3275.495 1.5 1.02.165.525-.06 1.1325-.63 1.7025z"/></g></svg>