<svg fill="none" height="12" viewBox="0 0 14 12" width="14" xmlns="http://www.w3.org/2000/svg"><path d="m14 1.3125c-.525.2625-1.05.35-1.6625.4375.6125-.35 1.05-.875 1.225-1.575-.525.35-1.1375.525-1.8375.7-.525-.525-1.3125-.875-2.1-.875-1.8375 0-3.2375 1.75-2.8 3.5-2.3625-.0875-4.4625-1.225-5.95-2.975-.7875 1.3125-.35 2.975.875 3.85-.4375 0-.875-.175-1.3125-.35 0 1.3125.9625 2.5375 2.275 2.8875-.4375.0875-.875.175-1.3125.0875.35 1.1375 1.4 2.0125 2.7125 2.0125-1.05.7875-2.625 1.225-4.1125 1.05 1.3125.7875 2.8 1.3125 4.375 1.3125 5.3375 0 8.3125-4.4625 8.1375-8.575.6125-.35 1.1375-.875 1.4875-1.4875z" fill="#2f8fff"/></svg>