<svg width="14" height="12" viewBox="0 0 14 12" fill="none" xmlns="http://www.w3.org/2000/svg">
<path id="twitter" d="M14 1.3125C13.475 1.575 12.95 1.6625 12.3375 1.75C12.95 1.4 13.3875 0.875 13.5625 0.175C13.0375 0.525 12.425 0.7 11.725 0.875C11.2 0.35 10.4125 0 9.625 0C7.7875 0 6.3875 1.75 6.825 3.5C4.4625 3.4125 2.3625 2.275 0.875 0.525C0.0875 1.8375 0.525 3.5 1.75 4.375C1.3125 4.375 0.875 4.2 0.4375 4.025C0.4375 5.3375 1.4 6.5625 2.7125 6.9125C2.275 7 1.8375 7.0875 1.4 7C1.75 8.1375 2.8 9.0125 4.1125 9.0125C3.0625 9.8 1.4875 10.2375 0 10.0625C1.3125 10.85 2.8 11.375 4.375 11.375C9.7125 11.375 12.6875 6.9125 12.5125 2.8C13.125 2.45 13.65 1.925 14 1.3125Z" fill="#2F8FFF"/>
</svg>
