<svg fill="none" height="16" viewBox="0 0 16 16" width="16" xmlns="http://www.w3.org/2000/svg"><g stroke="#b0b0b0" stroke-linecap="round" stroke-linejoin="round" stroke-width="1.5"><path d="m5.99935 6.66667c.73638 0 1.33333-.59696 1.33333-1.33334s-.59695-1.33333-1.33333-1.33333-1.33333.59695-1.33333 1.33333.59695 1.33334 1.33333 1.33334z"/><path d="m8.66732 1.3335h-2.66667c-3.33333 0-4.66667 1.33333-4.66667 4.66666v4.00004c0 3.3333 1.33334 4.6666 4.66667 4.6666h4.00005c3.3333 0 4.6666-1.3333 4.6666-4.6666v-3.33337"/><path d="m12 5.3335v-4l1.3333 1.33333"/><path d="m11.9993 1.3335-1.3333 1.33333"/><path d="m1.7793 12.6335 3.28666-2.2066c.52667-.3534 1.28667-.3134 1.76.0933l.22.1933c.52.4467 1.36.4467 1.88 0l2.77334-2.37996c.52-.44667 1.36-.44667 1.88 0l1.0867.93333"/></g></svg>