<svg fill="none" height="12" viewBox="0 0 14 12" width="14" xmlns="http://www.w3.org/2000/svg"><g fill="#1ddf5b"><path d="m6.56034 4.60209c-1.24285.99441-1.69804 2.28409-1.36554 3.86904.00879.03965-.0064.06071-.04556.06319-.59306.0289-1.06382-.01074-1.4123-.11894-.37526-.11645-.56468-.19202-.93155.02726-.3261.19574-.66019.39479-1.00227.59714-.04744.02796-.10627.02493-.15078-.00777s-.06661-.08913-.05663-.14461c.05395-.30105.39443-1.1819.1067-1.40242-.852818-.65744-1.401913-1.49079-1.6472878-2.50007-.2070102-1.39499.1690448-2.56491 1.1281678-3.50977.7617-.749937 1.64368-1.210803 2.64596-1.3825948.77929-.1329738 1.57536-.1226498 2.38821.0309718 1.44267.273381 2.55925 1.097653 3.34972 2.472813.14626.25398.20501.62316.31171.91059.00644.01788.00379.0379-.00705.05334-.01085.01544-.02845.02425-.0469.02347-1.22847-.05617-2.31667.28329-3.2646 1.01836zm-2.58602-1.71462c0-.38042-.29844-.68882-.66659-.68882-.36814 0-.66659.3084-.66659.68882 0 .38043.29845.68882.66659.68882.36815 0 .66659-.30839.66659-.68882zm3.32335 0c0-.38179-.29952-.6913-.66899-.6913s-.66899.30951-.66899.6913c0 .3818.29952.6913.66899.6913s.66899-.3095.66899-.6913z"/><path d="m13.0203 5.31529c1.4803 1.45591 1.2312 3.66107-.3873 4.89561-.3123.2372-.0298.8624.0524 1.1762.0088.0333.0021.069-.0181.0967s-.0517.0445-.0856.0456c-.0254.0008-.0615-.013-.1084-.0414-.3242-.197-.6563-.3855-.9964-.5656-.0341-.0174-.0723-.0237-.1096-.0182-.2209.0365-.4402.0754-.6579.1168-.88756.1662-1.75005.0847-2.58752-.2445-2.49809-.98279-3.28351-3.97732-1.00829-5.76772 1.81636-1.23211 4.20001-1.23819 5.90671.30651zm-3.96282 1.17738c0-.30967-.24599-.56072-.54944-.56072s-.54944.25105-.54944.56072.24599.56072.54944.56072.54944-.25105.54944-.56072zm2.75192 0c0-.30967-.246-.56072-.5494-.56072-.3035 0-.5494.25105-.5494.56072s.2459.56072.5494.56072c.3034 0 .5494-.25105.5494-.56072z"/></g></svg>