<svg fill="none" height="32" viewBox="0 0 32 32" width="32" xmlns="http://www.w3.org/2000/svg"><rect fill="#1ddd5a" height="32" rx="8" width="32"/><g fill="#fff"><path d="m15.9661 14.5883c-1.5092 1.2075-2.0619 2.7735-1.6581 4.6981.0106.0481-.0078.0737-.0554.0767-.7201.0351-1.2917-.013-1.7149-.1444-.4557-.1414-.6857-.2332-1.1311.0331-.396.2377-.8017.4794-1.2171.7251-.0576.0339-.129.0302-.1831-.0095-.05404-.0397-.08087-.1082-.06876-.1756.06556-.3655.47896-1.4351.12956-1.7029-1.03555-.7983-1.70231-1.8102-2.00027-3.0358-.25136-1.6939.20527-3.1145 1.36992-4.2619.92495-.9106 1.99595-1.47022 3.21295-1.67882.9463-.16147 1.9129-.14894 2.9.03761 1.7518.33196 3.1076 1.33281 4.0675 3.00271.1776.3084.2489.7567.3785 1.1057.0078.0217.0046.046-.0086.0648-.0131.0187-.0345.0294-.0569.0285-1.4917-.0682-2.8131.344-3.9642 1.2366zm-3.1401-2.0821c0-.4619-.3624-.8364-.8095-.8364-.447 0-.8094.3745-.8094.8364 0 .462.3624.8364.8094.8364.4471 0 .8095-.3744.8095-.8364zm4.0355 0c0-.4636-.3637-.8394-.8124-.8394-.4486 0-.8123.3758-.8123.8394s.3637.8395.8123.8395c.4487 0 .8124-.3759.8124-.8395z"/><path d="m23.8093 15.4542c1.7975 1.7679 1.495 4.4456-.4704 5.9447-.3791.288-.0361 1.0472.0637 1.4282.0107.0406.0025.0838-.022.1175s-.0628.054-.1039.0554c-.0309.0009-.0748-.0158-.1317-.0503-.3936-.2393-.7969-.4682-1.2099-.6868-.0413-.0211-.0878-.0288-.1331-.0221-.2682.0443-.5345.0915-.7989.1418-1.0777.2018-2.125.1029-3.1419-.2969-3.0334-1.1934-3.9872-4.8296-1.2244-7.0036 2.2056-1.4962 5.1001-1.5036 7.1725.3721zm-4.8121 1.4297c0-.376-.2987-.6808-.6671-.6808-.3685 0-.6672.3048-.6672.6808 0 .3761.2987.6809.6672.6809.3684 0 .6671-.3048.6671-.6809zm3.3417 0c0-.376-.2987-.6808-.6672-.6808-.3684 0-.6671.3048-.6671.6808 0 .3761.2987.6809.6671.6809.3685 0 .6672-.3048.6672-.6809z"/></g></svg>