<svg width="17" height="14" viewBox="0 0 17 14" fill="none" xmlns="http://www.w3.org/2000/svg">
<g id="Group 650">
<path id="&#229;&#189;&#162;&#231;&#138;&#182;" d="M7.96613 5.58825C6.45695 6.79575 5.90423 8.3618 6.30797 10.2864C6.31865 10.3345 6.3002 10.3601 6.25265 10.3631C5.53251 10.3982 4.96086 10.3501 4.53771 10.2187C4.08204 10.0773 3.85203 9.9855 3.40655 10.2518C3.01057 10.4895 2.60489 10.7312 2.1895 10.9769C2.13189 11.0108 2.06046 11.0071 2.00641 10.9674C1.95236 10.9277 1.92553 10.8592 1.93764 10.7918C2.00315 10.4263 2.4166 9.35668 2.06721 9.0889C1.03165 8.29059 0.364889 7.27865 0.0669341 6.0531C-0.184435 4.35919 0.272203 2.93857 1.43685 1.79124C2.36177 0.880604 3.43275 0.320981 4.64981 0.112376C5.59608 -0.0490919 6.56273 -0.0365556 7.54977 0.149985C9.30159 0.481948 10.6574 1.48285 11.6173 3.15269C11.7949 3.46109 11.8662 3.90939 11.9958 4.2584C12.0036 4.28011 12.0004 4.30443 11.9872 4.32317C11.9741 4.34192 11.9527 4.35262 11.9303 4.35167C10.4386 4.28347 9.11719 4.69567 7.96613 5.58825ZM4.82596 3.50622C4.82596 3.04427 4.46357 2.66979 4.01653 2.66979C3.5695 2.66979 3.2071 3.04427 3.2071 3.50622C3.2071 3.96816 3.5695 4.34264 4.01653 4.34264C4.46357 4.34264 4.82596 3.96816 4.82596 3.50622ZM8.86145 3.50622C8.86145 3.04261 8.49775 2.66678 8.04911 2.66678C7.60047 2.66678 7.23677 3.04261 7.23677 3.50622C7.23677 3.96982 7.60047 4.34565 8.04911 4.34565C8.49775 4.34565 8.86145 3.96982 8.86145 3.50622Z" fill="#B0B0B0"/>
<path id="&#229;&#189;&#162;&#231;&#138;&#182;_2" d="M15.8093 6.45425C17.6068 8.22214 17.3043 10.8998 15.3389 12.3989C14.9598 12.6869 15.3028 13.4461 15.4026 13.8271C15.4133 13.8677 15.4051 13.9109 15.3806 13.9446C15.3561 13.9783 15.3178 13.9986 15.2767 14C15.2458 14.0009 15.2019 13.9842 15.145 13.9497C14.7514 13.7104 14.3481 13.4815 13.9351 13.2629C13.8938 13.2418 13.8473 13.2341 13.802 13.2408C13.5338 13.2851 13.2675 13.3323 13.0031 13.3826C11.9254 13.5844 10.8781 13.4855 9.86117 13.0857C6.82777 11.8923 5.87404 8.25611 8.63681 6.08206C10.8424 4.58592 13.7369 4.57853 15.8093 6.45425ZM10.9972 7.88392C10.9972 7.50789 10.6985 7.20305 10.3301 7.20305C9.9616 7.20305 9.6629 7.50789 9.6629 7.88392C9.6629 8.25996 9.9616 8.56479 10.3301 8.56479C10.6985 8.56479 10.9972 8.25996 10.9972 7.88392ZM14.3389 7.88392C14.3389 7.50789 14.0402 7.20305 13.6717 7.20305C13.3033 7.20305 13.0046 7.50789 13.0046 7.88392C13.0046 8.25996 13.3033 8.56479 13.6717 8.56479C14.0402 8.56479 14.3389 8.25996 14.3389 7.88392Z" fill="#B0B0B0"/>
</g>
</svg>
