<svg width="30" height="31" viewBox="0 0 30 31" fill="none" xmlns="http://www.w3.org/2000/svg">
<path id="coins" d="M7.5 25.5167C7.5 26.7333 7.86667 27.8333 8.55001 28.7833C4.08334 28.4999 0 26.8667 0 23.85V22.3833C1.75 23.75 4.33333 24.6667 7.5 24.9667V25.5167ZM7.56663 18.7333C7.54996 18.75 7.55005 18.7666 7.55005 18.7833C7.51672 18.9499 7.5 19.1167 7.5 19.2834V22.4667C3.46667 22 0 20.4 0 17.6167V16.15C1.75 17.5334 4.35005 18.45 7.55005 18.7333H7.56663V18.7333ZM14.0667 12.6334C11.5333 13.4167 9.55001 14.7 8.45001 16.3C4.01668 16.0166 0 14.3834 0 11.3834V10.25C2.18333 11.9666 5.68333 12.9666 10 12.9666C11.45 12.9666 12.8167 12.85 14.0667 12.6334ZM20 10.25V11.3834C20 11.5334 19.9833 11.6667 19.9666 11.8C18.65 11.8 17.4 11.9166 16.2333 12.1166C17.7333 11.6666 19 11.0333 20 10.25ZM10 0.5C5 0.5 0 2.16665 0 5.48332C0 8.83332 5 10.4666 10 10.4666C15 10.4666 20 8.83332 20 5.48332C20 2.16665 15 0.5 10 0.5ZM20 26.7667C15.8167 26.7667 12.25 25.6667 10 23.8834V25.5167C10 28.8333 15 30.5 20 30.5C25 30.5 30 28.8333 30 25.5167V23.8834C27.75 25.6667 24.1833 26.7667 20 26.7667ZM20 14.3C14.4833 14.3 10 16.5334 10 19.2834C10 22.0334 14.4833 24.2667 20 24.2667C25.5167 24.2667 30 22.0334 30 19.2834C30 16.5334 25.5167 14.3 20 14.3Z" fill="url(#paint0_linear_92_2398)"/>
<defs>
<linearGradient id="paint0_linear_92_2398" x1="15" y1="15.5" x2="15.7273" y2="40.0239" gradientUnits="userSpaceOnUse">
<stop stop-color="#FFE071"/>
<stop offset="1" stop-color="#FFE071"/>
</linearGradient>
</defs>
</svg>
