<svg width="36" height="36" viewBox="0 0 36 36" fill="none" xmlns="http://www.w3.org/2000/svg">
<g id="Multi-Signer">
<g id="vuesax/bold/hierarchy-square">
<g id="hierarchy-square">
<path id="Vector" d="M24.285 3H11.715C6.255 3 3 6.255 3 11.715V24.27C3 29.745 6.255 33 11.715 33H24.27C29.73 33 32.985 29.745 32.985 24.285V11.715C33 6.255 29.745 3 24.285 3ZM14.775 24.675C14.775 26.37 13.395 27.75 11.7 27.75C10.005 27.75 8.625 26.37 8.625 24.675C8.625 23.37 9.435 22.275 10.575 21.825V15.39C9.315 14.925 8.4 13.725 8.4 12.3C8.4 10.485 9.885 9 11.7 9C13.515 9 15 10.485 15 12.3C15 13.725 14.085 14.925 12.825 15.39V21.825C13.965 22.275 14.775 23.385 14.775 24.675ZM25.125 27.75C23.43 27.75 22.05 26.37 22.05 24.675C22.05 23.37 22.86 22.275 24 21.825V13.125C24 12.915 23.835 12.75 23.625 12.75H21.93L22.245 13.005C22.725 13.41 22.785 14.115 22.395 14.595C22.17 14.865 21.84 15 21.525 15C21.27 15 21.015 14.91 20.805 14.745L18.105 12.495C17.85 12.27 17.7 11.955 17.7 11.625C17.7 11.295 17.85 10.98 18.105 10.755L20.805 8.505C21.285 8.115 21.99 8.175 22.395 8.655C22.8 9.135 22.725 9.84 22.245 10.245L21.93 10.5H23.625C25.065 10.5 26.25 11.685 26.25 13.125V21.825C27.39 22.275 28.2 23.385 28.2 24.675C28.2 26.37 26.82 27.75 25.125 27.75Z" fill="url(#paint0_linear_92_2391)"/>
</g>
</g>
</g>
<defs>
<linearGradient id="paint0_linear_92_2391" x1="17.9925" y1="15.1875" x2="17.9925" y2="35.8125" gradientUnits="userSpaceOnUse">
<stop stop-color="#FFA370"/>
<stop offset="1" stop-color="#FFA370"/>
</linearGradient>
</defs>
</svg>
