<svg width="13" height="13" viewBox="0 0 13 13" fill="none" xmlns="http://www.w3.org/2000/svg">
    <g id="Group-45">
        <path id="Oval"
            d="M6.59033 12.763C9.90404 12.763 12.5903 10.0767 12.5903 6.76297C12.5903 3.44926 9.90404 0.76297 6.59033 0.76297C3.27662 0.76297 0.590332 3.44926 0.590332 6.76297C0.590332 10.0767 3.27662 12.763 6.59033 12.763Z"
            fill="#627EEA" />
        <path id="Path" d="M6.7771 2.26215V5.58855L9.58847 6.84498L6.7771 2.26215Z" fill="white"
            fill-opacity="0.602" />
        <path id="Path_1_" d="M6.77719 2.26215L3.96582 6.84498L6.77719 5.58855V2.26215Z"
            fill="white" />
        <path id="Path_2_" d="M6.7771 9.00026V11.2605L9.59011 7.36823L6.7771 9.00026Z" fill="white"
            fill-opacity="0.602" />
        <path id="Path_3_" d="M6.77719 11.2605V9.00026L3.96582 7.36823L6.77719 11.2605Z"
            fill="white" />
        <path id="Path_4_" d="M6.7771 8.47703L9.58847 6.84499L6.7771 5.58856V8.47703Z" fill="white"
            fill-opacity="0.2" />
        <path id="Path_5_" d="M3.96582 6.84499L6.77719 8.47703V5.58856L3.96582 6.84499Z"
            fill="white" fill-opacity="0.602" />
    </g>
</svg>