<svg width="36" height="36" viewBox="0 0 36 36" fill="none" xmlns="http://www.w3.org/2000/svg">
<g id="Multi-Signer">
<g id="profile-2user">
<path id="Vector" d="M13.5 4C9.91474 4 7 6.91781 7 10.5068C7 14.0274 9.75053 16.8767 13.3358 17C13.4453 16.9863 13.5547 16.9863 13.6368 17C13.6642 17 13.6779 17 13.7053 17C13.7189 17 13.7189 17 13.7326 17C17.2358 16.8767 19.9863 14.0274 20 10.5068C20 6.91781 17.0853 4 13.5 4Z" fill="url(#paint0_linear_92_2382)"/>
<path id="Vector_2" d="M21.2159 20.9616C17.2528 18.3461 10.7898 18.3461 6.7983 20.9616C4.99432 22.1568 4 23.7739 4 25.5035C4 27.2331 4.99432 28.8361 6.78409 30.0173C8.77273 31.3391 11.3864 32 14 32C16.6136 32 19.2273 31.3391 21.2159 30.0173C23.0057 28.8221 24 27.219 24 25.4754C23.9858 23.7458 23.0057 22.1428 21.2159 20.9616Z" fill="url(#paint1_linear_92_2382)"/>
<path id="Vector_3" d="M28.9829 11.5739C29.2001 14.2763 27.3266 16.6444 24.7335 16.9648C24.7199 16.9648 24.7199 16.9648 24.7063 16.9648H24.6656C24.5841 16.9648 24.5027 16.9648 24.4348 16.9927C23.1179 17.0623 21.9096 16.6305 21 15.8365C22.3984 14.5549 23.1994 12.6326 23.0364 10.5431C22.9414 9.41473 22.5613 8.3839 21.9911 7.5063C22.507 7.24163 23.1043 7.07447 23.7153 7.01875C26.3762 6.78194 28.7521 8.81573 28.9829 11.5739Z" fill="url(#paint2_linear_92_2382)"/>
<path id="Vector_4" d="M31.985 24.6398C31.8752 25.9772 31.0238 27.1354 29.5958 27.9213C28.2227 28.6797 26.4925 29.0382 24.7761 28.9968C25.7648 28.1006 26.3415 26.9838 26.4513 25.798C26.5886 24.0883 25.7785 22.4475 24.1582 21.1377C23.2382 20.4069 22.1672 19.8278 21 19.4004C24.0346 18.518 27.8519 19.1108 30.2 21.0136C31.4632 22.0339 32.1086 23.3162 31.985 24.6398Z" fill="url(#paint3_linear_92_2382)"/>
</g>
</g>
<defs>
<linearGradient id="paint0_linear_92_2382" x1="13.9561" y1="4" x2="13.9561" y2="21.8082" gradientUnits="userSpaceOnUse">
<stop stop-color="#14FF00"/>
<stop offset="1" stop-color="#14FF00" stop-opacity="0.77"/>
</linearGradient>
<linearGradient id="paint1_linear_92_2382" x1="14.3875" y1="18.8757" x2="14.3875" y2="31.9999" gradientUnits="userSpaceOnUse">
<stop stop-color="#14FF00"/>
<stop offset="1" stop-color="#14FF00" stop-opacity="0.49"/>
</linearGradient>
<linearGradient id="paint2_linear_92_2382" x1="25.3761" y1="6.92133" x2="25.3761" y2="18.9941" gradientUnits="userSpaceOnUse">
<stop stop-color="#14FF00"/>
<stop offset="1" stop-color="#14FF00" stop-opacity="0.67"/>
</linearGradient>
<linearGradient id="paint3_linear_92_2382" x1="26.7131" y1="18.7733" x2="26.7131" y2="29.3414" gradientUnits="userSpaceOnUse">
<stop stop-color="#14FF00"/>
<stop offset="0.892378" stop-color="#14FF00" stop-opacity="0.66"/>
</linearGradient>
</defs>
</svg>
