<svg width="36" height="36" viewBox="0 0 36 36" fill="none" xmlns="http://www.w3.org/2000/svg">
<g id="empty-wallet-remove">
<g id="vuesax/bulk/empty-wallet-remove">
<g id="empty-wallet-remove_2">
<path id="Vector" d="M27.22 17.425H30.25V15.265C30.25 12.16 27.715 9.625 24.61 9.625H7.39C4.285 9.625 1.75 12.16 1.75 15.265V25.36C1.75 28.465 4.285 31 7.39 31H24.61C27.715 31 30.25 28.465 30.25 25.36V23.575H27.4C25.78 23.575 24.295 22.39 24.16 20.77C24.07 19.825 24.43 18.94 25.06 18.325C25.615 17.755 26.38 17.425 27.22 17.425Z" fill="url(#paint0_linear_92_2371)"/>
<path id="Vector_2" d="M20.275 3.92494V9.75996H7.39C4.285 9.75996 1.75 12.295 1.75 15.4V9.75996C1.75 7.97496 2.845 6.3849 4.51 5.7549L16.42 1.2549C18.28 0.564897 20.275 1.92994 20.275 3.92494Z" fill="#A83752"/>
<path id="Vector_3" d="M31.6937 18.955V22.0451C31.6937 22.8701 31.0337 23.545 30.1937 23.575H25.2537C23.6337 23.575 22.1487 22.39 22.0137 20.77C21.9237 19.825 22.2837 18.94 22.9137 18.325C23.4687 17.755 24.2337 17.425 25.0737 17.425H30.1937C31.0337 17.455 31.6937 18.13 31.6937 18.955Z" fill="#A83752"/>
<g id="Group">
<path id="Vector_4" d="M17.1176 16H8.88235C8.4 16 8 15.5467 8 15C8 14.4533 8.4 14 8.88235 14H17.1176C17.6 14 18 14.4533 18 15C18 15.5467 17.6 16 17.1176 16Z" fill="#281932"/>
</g>
</g>
</g>
</g>
<defs>
<linearGradient id="paint0_linear_92_2371" x1="17.5907" y1="14.3182" x2="18.0272" y2="33.9448" gradientUnits="userSpaceOnUse">
<stop stop-color="#FF7193"/>
<stop offset="1" stop-color="#FF7193"/>
</linearGradient>
</defs>
</svg>
