<svg fill="none" height="54" viewBox="0 0 54 54" width="54" xmlns="http://www.w3.org/2000/svg" xmlns:xlink="http://www.w3.org/1999/xlink"><linearGradient id="a" gradientUnits="userSpaceOnUse" x1="27" x2="27" y1="0" y2="121"><stop offset="0" stop-color="#14ff00" stop-opacity=".3"/><stop offset="1" stop-color="#5200ff" stop-opacity=".3"/></linearGradient><linearGradient id="b"><stop offset="0" stop-color="#14ff00"/><stop offset="1" stop-color="#1f9e14"/></linearGradient><linearGradient id="c" gradientUnits="userSpaceOnUse" x1="23.5" x2="23" xlink:href="#b" y1="24" y2="36"/><linearGradient id="d" gradientUnits="userSpaceOnUse" x1="40.5" x2="24" y1="7" y2="30"><stop offset="0" stop-color="#14ff00"/><stop offset="1" stop-color="#051703"/></linearGradient><linearGradient id="e" gradientUnits="userSpaceOnUse" x1="19.2948" x2="19.2948" xlink:href="#b" y1="17" y2="21.594"/><linearGradient id="f" gradientUnits="userSpaceOnUse" x1="34.7049" x2="34.7049" xlink:href="#b" y1="32.406" y2="37"/><circle cx="27" cy="27" fill="url(#a)" r="27"/><path d="m30 30.5c0 3.59-2.91 6.5-6.5 6.5s-6.5-2.91-6.5-6.5 2.91-6.5 6.5-6.5c.17 0 .35.01.52.02 3.17.25 5.71 2.79 5.96 5.96.01.17.02.35.02.52z" fill="url(#c)"/><path d="m37.0001 23.5c0 3.26-2.4 5.95-5.52 6.42v-.06c-.31-3.88-3.46-7.03-7.37-7.34h-.03c.47-3.12 3.16-5.52 6.42-5.52 3.59 0 6.5 2.91 6.5 6.5z" fill="url(#d)"/><path d="m20.59 17h-2.59c-.55 0-1 .45-1 1v2.59c0 .89 1.08 1.34 1.71.71l2.59-2.59c.62-.63.18-1.71-.71-1.71z" fill="url(#e)"/><path d="m33.4097 37h2.59c.55 0 1-.45 1-1v-2.59c0-.89-1.08-1.34-1.71-.71l-2.59 2.59c-.62.63-.18 1.71.71 1.71z" fill="url(#f)"/></svg>