<svg width="18" height="19" viewBox="0 0 18 19" fill="none" xmlns="http://www.w3.org/2000/svg">
<path d="M10.75 10.0625V12.8375C10.75 15.1775 8.5675 17.075 5.875 17.075C3.1825 17.075 1 15.1775 1 12.8375V10.0625C1 12.4025 3.1825 14.075 5.875 14.075C8.5675 14.075 10.75 12.4025 10.75 10.0625Z" stroke="#fff" stroke-linecap="round" stroke-linejoin="round"/>
<path d="M10.75 6.31172C10.75 6.99422 10.5625 7.62422 10.2325 8.16422C9.43 9.48422 7.78 10.3242 5.875 10.3242C3.97 10.3242 2.32 9.48422 1.5175 8.16422C1.1875 7.62422 1 6.99422 1 6.31172C1 5.14172 1.54749 4.08422 2.42499 3.31922C3.30999 2.54672 4.525 2.07422 5.875 2.07422C7.225 2.07422 8.44 2.54672 9.325 3.31172C10.2025 4.08422 10.75 5.14172 10.75 6.31172Z" stroke="#fff" stroke-linecap="round" stroke-linejoin="round"/>
<path d="M10.75 6.31172V10.0617C10.75 12.4017 8.5675 14.0742 5.875 14.0742C3.1825 14.0742 1 12.4017 1 10.0617V6.31172C1 3.97172 3.1825 2.07422 5.875 2.07422C7.225 2.07422 8.44 2.54672 9.325 3.31172C10.2025 4.08422 10.75 5.14172 10.75 6.31172Z" stroke="#fff" stroke-linecap="round" stroke-linejoin="round"/>
</svg>
