<svg fill="none" height="44" viewBox="0 0 44 44" width="44" xmlns="http://www.w3.org/2000/svg"><rect fill="#f9b617" height="44" rx="8" width="44"/><path d="m31.4332 29.5176h-4.7906c-1.5338 1.4873-3.848 4.0988-4.0669 4.3464-.0123.014-.023.026-.0367.0384-.15.1356-.3777.1299-.5207-.0171-.0014-.0015-.0012-.0013-.0027-.0028-.0467-.0484-3.3828-3.5017-4.193-4.3649h-4.6807c-1.7356 0-3.1419-1.622-3.1419-3.3818v-11.949c0-1.7598 1.3756-3.1868 3.0718-3.1868h18.431c1.6967 0 3.0718 1.427 3.0718 3.1868v11.949c0 1.7595-1.4063 3.3818-3.1414 3.3818zm-15.2895-10.5795c-.8482 0-1.536.7135-1.536 1.5935 0 .8797.6878 1.5932 1.536 1.5932.8481 0 1.5359-.7135 1.5359-1.5932 0-.88-.6878-1.5935-1.5359-1.5935zm6.1436 0c-.8481 0-1.5359.7135-1.5359 1.5935 0 .8797.6883 1.5932 1.5359 1.5932.8481 0 1.5359-.7135 1.5359-1.5932 0-.88-.6878-1.5935-1.5359-1.5935zm6.1437 0c-.8477 0-1.536.7135-1.536 1.5935 0 .8797.6883 1.5932 1.536 1.5932.8486 0 1.5359-.7135 1.5359-1.5932 0-.88-.6873-1.5935-1.5359-1.5935z" fill="#fff"/></svg>