<svg fill="none" height="20" viewBox="0 0 20 20" width="20" xmlns="http://www.w3.org/2000/svg" xmlns:xlink="http://www.w3.org/1999/xlink"><clipPath id="a"><path d="m0 0h20v20h-20z"/></clipPath><g clip-path="url(#a)"><path d="m17.5053.957031h-15.00549c-1.37852 0-2.49981 1.121289-2.49981 2.499809v10.01246c0 1.3785 1.12129 2.4998 2.49981 2.4998h4.90729l2.59215 3.166 2.58555-3.166h4.9139c1.3785 0 2.4998-1.1213 2.4998-2.4998v-10.01246c.0066-1.37852-1.1147-2.499809-2.4932-2.499809zm-12.92781 8.772429c-.66617 0-1.20703-.54085-1.20703-1.20703s.54086-1.20704 1.20703-1.20704c.66618 0 1.20704.54086 1.20704 1.20704s-.54086 1.20703-1.20704 1.20703zm5.43491 0c-.66613 0-1.20699-.54085-1.20699-1.20703s.54086-1.20704 1.20699-1.20704c.6662 0 1.2071.54086 1.2071 1.20704s-.5409 1.20703-1.2071 1.20703zm5.435 0c-.6662 0-1.207-.54085-1.207-1.20703s.5408-1.20704 1.207-1.20704 1.207.54086 1.207 1.20704-.5408 1.20703-1.207 1.20703z" fill="#1a1323"/></g></svg>