<svg fill="none" height="16" viewBox="0 0 16 16" width="16" xmlns="http://www.w3.org/2000/svg"><path d="m7.6435 13.354-1.8505-1.855h-2.792c-.13151.0002-.26176-.0256-.3833-.0758-.12153-.0502-.23196-.124-.32495-.217s-.16672-.2034-.21695-.3249c-.05024-.1216-.076-.2518-.0758-.3833l.005-6.99701c0-.554.445-1.0005 1.001-1.0005h9.9935c.553 0 1.001.4465 1.0005 1.001l-.005 6.99751c0 .5525-.448 1-1.0005 1h-2.7865l-1.858 1.855c-.04639.0464-.10146.0832-.16207.1083s-.12557.038-.19118.038-.13057-.0129-.19118-.038-.11569-.0619-.16207-.1083zm5.352-2.856.0045-6.99701s-9.995-.0015-9.995.0005c0 0-.0045 6.99701-.0035 6.99701h2.9985c.1325 0 .26.0525.3535.1465l1.6445 1.648 1.65-1.6485c.04644-.0464.10157-.0831.16222-.1082.06066-.025.12565-.0379.19128-.0378h2.994zm-7.7455-2.49751c-.19891 0-.38968-.07902-.53033-.21967-.14065-.14066-.21967-.33142-.21967-.53033 0-.19892.07902-.38968.21967-.53033.14065-.14066.33142-.21967.53033-.21967s.38968.07901.53033.21967c.14065.14065.21967.33141.21967.53033 0 .19891-.07902.38967-.21967.53033-.14065.14065-.33142.21967-.53033.21967zm2.75 0c-.19891 0-.38968-.07902-.53033-.21967-.14065-.14066-.21967-.33142-.21967-.53033 0-.19892.07902-.38968.21967-.53033.14065-.14066.33142-.21967.53033-.21967s.38968.07901.53033.21967c.14065.14065.21967.33141.21967.53033 0 .19891-.07902.38967-.21967.53033-.14065.14065-.33142.21967-.53033.21967zm2.75 0c-.1989 0-.3897-.07902-.5303-.21967-.1407-.14066-.2197-.33142-.2197-.53033 0-.19892.079-.38968.2197-.53033.1406-.14066.3314-.21967.5303-.21967s.3897.07901.5303.21967c.1407.14065.2197.33141.2197.53033 0 .19891-.079.38967-.2197.53033-.1406.14065-.3314.21967-.5303.21967z" fill="#2f8fff"/></svg>