<svg fill="none" height="44" viewBox="0 0 44 44" width="44" xmlns="http://www.w3.org/2000/svg"><rect fill="#2f8fff" height="44" rx="8" width="44" y=".000488"/><path clip-rule="evenodd" d="m14.4074 9.77832h16c1.6569 0 3 1.34318 3 2.99998v17.176c0 2.0778-2.0612 3.5264-4.0162 2.8226l-.9537-.3433c-.732-.2635-1.5378-.2324-2.2473.0869l-2.5517 1.1483c-.7829.3523-1.6793.3523-2.4622 0l-2.5517-1.1483c-.7095-.3193-1.5153-.3504-2.2473-.0869l-.9537.3433c-1.955.7038-4.0162-.7448-4.0162-2.8226v-17.176c0-1.6568 1.3432-2.99998 3-2.99998zm14.1111 7.23608c.6213 0 1.125-.5037 1.125-1.125s-.5037-1.125-1.125-1.125h-12.2222c-.6214 0-1.125.5037-1.125 1.125s.5036 1.125 1.125 1.125zm1.125 3.7639c0 .6213-.5037 1.125-1.125 1.125h-12.2222c-.6214 0-1.125-.5037-1.125-1.125s.5036-1.125 1.125-1.125h12.2222c.6213 0 1.125.5037 1.125 1.125zm-7.2361 6.0139c.6213 0 1.125-.5037 1.125-1.125s-.5037-1.125-1.125-1.125h-6.1111c-.6214 0-1.125.5037-1.125 1.125s.5036 1.125 1.125 1.125z" fill="#fff" fill-rule="evenodd"/></svg>