<svg fill="none" height="16" viewBox="0 0 16 16" width="16" xmlns="http://www.w3.org/2000/svg"><g fill="#fff"><path d="m12.1817 14.909h-8.36361c-.72302-.001-1.41615-.2886-1.92741-.7999-.51125-.5112-.7989-1.2043-.79986-1.9274v-8.36361c.00096-.72302.28861-1.41615.79986-1.92741.51126-.51125 1.20439-.7989 1.92741-.79986h4.18182c.14467 0 .2834.05747.3857.15976.10229.10229.15976.24103.15976.38569 0 .14467-.05747.28341-.15976.3857-.1023.10229-.24103.15976-.3857.15976h-4.18182c-.43369.00096-.84935.17367-1.15602.48034s-.47938.72233-.48034 1.15602v8.36361c.00096.4337.17367.8494.48034 1.1561.30667.3066.72233.4793 1.15602.4803h8.36361c.4337-.001.8494-.1737 1.1561-.4803.3066-.3067.4793-.7224.4803-1.1561v-4.18179c0-.14466.0575-.2834.1598-.38569.1022-.10229.241-.15976.3856-.15976.1447 0 .2835.05747.3857.15976.1023.10229.1598.24103.1598.38569v4.18179c-.001.7231-.2886 1.4162-.7999 1.9274-.5112.5113-1.2043.7989-1.9274.7999z"/><path d="m7.81798 8.72725c-.14454-.00052-.28304-.05801-.38546-.16-.05101-.05039-.09151-.11042-.11916-.17658-.02764-.06617-.04188-.13716-.04188-.20887s.01424-.14271.04188-.20888c.02765-.06616.06815-.12618.11916-.17658l6.54548-6.54545c.1034-.09635.2401-.14881.3815-.14631.1413.00249.2761.05974.376.15967.1.09994.1572.23476.1597.37607s-.05.27808-.1463.38148l-6.54547 6.54545c-.10242.10199-.24092.15948-.38545.16z"/><path d="m14.3637 2.18173h-2.9091c-.1446 0-.2834-.05747-.3857-.15976s-.1597-.24103-.1597-.3857c0-.14466.0574-.2834.1597-.38569s.2411-.15976.3857-.15976h2.9091c.1447 0 .2834.05747.3857.15976s.1598.24103.1598.38569c0 .14467-.0575.28341-.1598.3857s-.241.15976-.3857.15976z"/><path d="m14.3638 5.09082c-.1447 0-.2834-.05747-.3857-.15976s-.1597-.24103-.1597-.38569v-2.9091c0-.14466.0574-.2834.1597-.38569s.241-.15976.3857-.15976.2834.05747.3857.15976.1598.24103.1598.38569v2.9091c0 .14466-.0575.2834-.1598.38569s-.241.15976-.3857.15976z"/></g></svg>