<svg fill="none" height="20" viewBox="0 0 20 20" width="20" xmlns="http://www.w3.org/2000/svg" xmlns:xlink="http://www.w3.org/1999/xlink"><clipPath id="a"><path d="m0 0h20v20h-20z"/></clipPath><g clip-path="url(#a)"><path d="m1.4321 11.4251c-.791367 0-1.4321.6377-1.4321 1.4243v5.7228c0 .7854.641175 1.4243 1.4321 1.4243h17.1358c.7914 0 1.4321-.6377 1.4321-1.4243v-5.7228c0-.7854-.6412-1.4243-1.4321-1.4243-.787 0-1.425.6333-1.425 1.4272v3.5749c0 .3933-.3253.7122-.7085.7122h-12.86883c-.39125 0-.70843-.3236-.70843-.7122v-3.5749c0-.7882-.6458-1.4272-1.42504-1.4272zm12.1393-3.51466v2.13796c0 .7904.4641.9954 1.0421.4526l5.2684-4.94728c.156-.16508.1585-.44318.0013-.6108l-5.2411-4.655236c-.5913-.525237-1.0707-.3119572-1.0707.482308v2.141278c-7.33343-.12433-10.71426 3.85091-10.71426 7.85393 0 0 1.09115-2.85476 10.71426-2.85476z" fill="#1a1323"/></g></svg>