<svg fill="none" height="44" viewBox="0 0 44 44" width="44" xmlns="http://www.w3.org/2000/svg"><rect fill="#ff7193" height="44" rx="8" width="44" y=".000244"/><path clip-rule="evenodd" d="m21.033 18.0529c-.7236-.144-1.2703-.7645-1.2703-1.5022v-1.0651c0-1.3207-1.5967-1.9821-2.5306-1.0482l-6.7979 6.7979c-.57893.5789-.57893 1.5175 0 2.0964l6.7979 6.798c.9339.9338 2.5306.2724 2.5306-1.0483v-1.0166c0-.8187.6649-1.4866 1.4828-1.4492 3.9035.1783 7.1525 1.0801 9.8695 2.779 1.3544.8468 3.4653-.3486 2.7357-1.7695-2.3227-4.5243-6.3139-8.2777-12.8177-9.5722z" fill="#fff" fill-rule="evenodd"/></svg>