<svg fill="none" height="20" viewBox="0 0 20 20" width="20" xmlns="http://www.w3.org/2000/svg"><g fill="#1a1323"><path d="m4.44466 5.55566v4.44444h-.55555c-.30112 0-.55556.2489-.55556.5556 0 .2977.24889.5555.55556.5555h12.22219c.3011 0 .5556-.2489.5556-.5555l-.0089-.0978c-.0241-.1278-.0918-.2432-.1915-.3266-.0997-.0835-.2252-.1299-.3552-.1312h-.5555v-4.44444h2.2133c.6189 0 1.12.49445 1.12 1.10667v10.00887c0 .6111-.4944 1.1067-1.1111 1.1067h-15.55556c-.61333 0-1.11111-.4945-1.11111-1.1067v-10.00887c0-.61111.49222-1.10667 1.10778-1.10667zm11.11114 8.88894h-11.11114v1.6666h11.11114zm-1.1111-8.88894v4.44444h-8.88893v-4.44444z"/><path d="m5.55566 2.22217h8.88894v5.55555h-8.88894z"/></g></svg>