<svg fill="none" height="44" viewBox="0 0 44 44" width="44" xmlns="http://www.w3.org/2000/svg"><rect fill="#1f9e14" height="44" rx="8" width="44"/><g fill="#fff"><path d="m11.8794 21.9299h3.5201c.5867 0 .88.3036.88.9108v10.0191c0 .6072-.2933.9108-.88.9108h-3.5201c-.5867 0-.88-.3036-.88-.9108v-10.0191c0-.6072.2933-.9108.88-.9108z"/><path d="m20.2396 11h3.5201c.5867 0 .8801.3036.8801.9108v20.949c0 .6072-.2934.9108-.8801.9108h-3.5201c-.5866 0-.88-.3036-.88-.9108v-20.949c0-.6072.2934-.9108.88-.9108z"/><path d="m28.5999 17.3758h3.5201c.5867 0 .88.3036.88.9108v14.5732c0 .6072-.2933.9108-.88.9108h-3.5201c-.5867 0-.88-.3036-.88-.9108v-14.5732c0-.6072.2933-.9108.88-.9108z"/></g></svg>