<svg fill="none" height="13" viewBox="0 0 13 13" width="13" xmlns="http://www.w3.org/2000/svg" xmlns:xlink="http://www.w3.org/1999/xlink"><mask id="a" height="8" maskUnits="userSpaceOnUse" width="9" x="2" y="2"><path d="m10.4774 2.84302h-7.86387v6.8912h7.86387z" fill="#fff"/></mask><path d="m6.58679.248474c3.31458 0 6.00121 2.686606 6.00121 6.001176 0 3.31458-2.68663 5.99885-5.99885 5.99885-3.31457 0-5.998816-2.68663-5.998816-5.99885-.002361-3.31457 2.684236-6.001176 5.996456-6.001176z" fill="#8247e5"/><g mask="url(#a)"><path d="m8.15608 5.21165c-.11505-.06601-.26216-.06601-.3923 0l-.91664.54319-.6224.34516-.89966.5413c-.11505.06601-.26217.06601-.3923 0l-.70351-.42814c-.11505-.06601-.19615-.19804-.19615-.34515v-.82233c0-.13203.06601-.26216.19615-.34515l.70351-.41117c.11505-.06601.26216-.06601.3923 0l.70351.42814c.11505.06602.19615.19804.19615.34515v.54319l.6224-.36212v-.55828c0-.13203-.06601-.26217-.19615-.34515l-1.30894-.77329c-.11505-.06602-.26216-.06602-.3923 0l-1.341.79026c-.13014.06601-.19615.19804-.19615.32818v1.5447c0 .13202.06601.26216.19615.34515l1.32591.77329c.11505.06601.26217.06601.39231 0l.89965-.52622.62241-.36212.89966-.52622c.11505-.06601.26216-.06601.3923 0l.70351.41117c.11505.06601.19615.19804.19615.34515v.82233c0 .13202-.06601.26216-.19615.34515l-.68653.41116c-.11505.06602-.26217.06602-.39231 0l-.70539-.41116c-.11505-.06601-.19615-.19804-.19615-.34515v-.52622l-.62241.36213v.54319c0 .13203.06602.26216.19615.34515l1.32592.77329c.11505.06602.26216.06602.3923 0l1.32591-.77329c.11505-.06601.19615-.19804.19615-.34515v-1.56167c0-.13203-.06601-.26217-.19615-.34515z" fill="#fff"/></g></svg>