<svg fill="none" height="24" viewBox="0 0 24 24" width="24" xmlns="http://www.w3.org/2000/svg"><path clip-rule="evenodd" d="m14.593 7.5c.704 0 1.3812.27825 1.8795.77753.4987.49822.7775 1.17022.7775 1.87377v4.1475c0 1.4647-1.1917 2.6512-2.657 2.6512h-5.1865c-1.46527 0-2.6565-1.1865-2.6565-2.6512v-4.1475c0-1.4648 1.18597-2.6513 2.6565-2.6513zm.8354 3.4335.042-.042c.1254-.1523.1254-.3728-.0058-.525-.073-.0783-.1733-.126-.2777-.1365-.1103-.0058-.2153.0315-.2946.105l-2.3672 1.89c-.3045.2525-.7408.2525-1.05 0l-2.36249-1.89c-.16328-.1208-.38903-.105-.525.0367-.14175.1418-.1575.3675-.03728.525l.06878.0683 2.38879 1.8637c.294.231.6504.357 1.0237.357.3722 0 .735-.126 1.0285-.357z" fill="#f9b617" fill-rule="evenodd"/></svg>