<svg fill="none" height="24" viewBox="0 0 24 24" width="24" xmlns="http://www.w3.org/2000/svg"><path d="m11.9993 6c-3.3128 0-5.9993 2.75434-5.9993 6.1521-.00135 1.2895.39414 2.5468 1.13058 3.5943.73643 1.0474 1.77658 1.832 2.97342 2.2429.3.0567.4095-.1332.4095-.2964 0-.1463-.0052-.5331-.0082-1.0463-1.6688.3715-2.0213-.8249-2.0213-.8249-.27225-.7108-.666-.9-.666-.9-.54525-.3814.0405-.3738.0405-.3738.60225.0437.91875.6342.91875.6342.5355.9399 1.40475.6687 1.74675.5109.054-.3975.2093-.6686.381-.8226-1.332-.1555-2.733-.6832-2.733-3.04 0-.6718.234-1.2209.618-1.6514-.06225-.1555-.26775-.78127.0585-1.62764 0 0 .504-.16544 1.65.63037.4896-.13663.9947-.20618 1.5023-.2068.5075.00103 1.0126.07083 1.5022.20757 1.1452-.79582 1.6485-.63037 1.6485-.63037.327.84713.1215 1.47217.06 1.62767.3847.4304.6165.9796.6165 1.6513 0 2.363-1.4025 2.8831-2.739 3.0355.2152.1899.4072.5652.4072 1.1389 0 .8227-.0075 1.486-.0075 1.6874 0 .1647.108.3562.4125.2957 1.1957-.4119 2.2346-1.1968 2.97-2.244s1.1302-2.3038 1.1288-3.5925c0-3.39776-2.6865-6.1521-6.0007-6.1521z" fill="#fff"/></svg>