<svg fill="none" height="24" viewBox="0 0 24 24" width="24" xmlns="http://www.w3.org/2000/svg"><path d="m7.99687 9.20625c0-.13125-.06562-.2625-.13125-.32813l-.98437-1.18125v-.19687h3.01875l2.3625 5.1844 2.1-5.1844h2.8875v.19687l-.8531.78751c-.0656.06562-.1313.13124-.0656.26249v5.90623c0 .0657 0 .1969.0656.2625l.7875.7875v.1969h-4.1344v-.1969l.8531-.8531c.0657-.0656.0657-.1313.0657-.2625v-4.79062l-2.3626 5.97192h-.2624l-2.7563-5.97192v4.00312c0 .1969.06563.3281.13125.4594l1.11562 1.3125v.1969h-3.08437v-.1969l1.11562-1.3125c.13125-.1313.19688-.2625.13125-.4594z" fill="#fff"/></svg>