<svg fill="none" height="24" viewBox="0 0 24 24" width="24" xmlns="http://www.w3.org/2000/svg"><path d="m18 8.625c-.45.225-.9.3-1.425.375.525-.3.9-.75 1.05-1.35-.45.3-.975.45-1.575.6-.45-.45-1.125-.75-1.8-.75-1.575 0-2.775 1.5-2.4 3-2.025-.075-3.825-1.05-5.1-2.55-.675 1.125-.3 2.55.75 3.3-.375 0-.75-.15-1.125-.3 0 1.125.825 2.175 1.95 2.475-.375.075-.75.15-1.125.075.3.975 1.2 1.725 2.325 1.725-.9.675-2.25 1.05-3.525.9 1.125.675 2.4 1.125 3.75 1.125 4.575 0 7.125-3.825 6.975-7.35.525-.3.975-.75 1.275-1.275z" fill="#1da1f2"/></svg>