<svg fill="none" height="512" viewBox="0 0 512 512" width="512" xmlns="http://www.w3.org/2000/svg" xmlns:xlink="http://www.w3.org/1999/xlink"><filter id="a" color-interpolation-filters="sRGB" filterUnits="userSpaceOnUse" height="121.4" width="437.401" x="37.7997" y="194.8"><feFlood flood-opacity="0" result="BackgroundImageFix"/><feBlend in="SourceGraphic" in2="BackgroundImageFix" mode="normal" result="shape"/><feColorMatrix in="SourceAlpha" result="hardAlpha" type="matrix" values="0 0 0 0 0 0 0 0 0 0 0 0 0 0 0 0 0 0 127 0"/><feOffset dy="2"/><feGaussianBlur stdDeviation="3"/><feComposite in2="hardAlpha" k2="-1" k3="1" operator="arithmetic"/><feColorMatrix type="matrix" values="0 0 0 0 0.541974 0 0 0 0 0.756243 0 0 0 0 0.596256 0 0 0 0.5 0"/><feBlend in2="shape" mode="normal" result="effect1_innerShadow_5689_1860"/><feColorMatrix in="SourceAlpha" result="hardAlpha" type="matrix" values="0 0 0 0 0 0 0 0 0 0 0 0 0 0 0 0 0 0 127 0"/><feOffset dy="-2"/><feGaussianBlur stdDeviation="2.5"/><feComposite in2="hardAlpha" k2="-1" k3="1" operator="arithmetic"/><feColorMatrix type="matrix" values="0 0 0 0 0.203045 0 0 0 0 0.694118 0 0 0 0 0.706243 0 0 0 1 0"/><feBlend in2="effect1_innerShadow_5689_1860" mode="normal" result="effect2_innerShadow_5689_1860"/></filter><linearGradient id="b" gradientUnits="userSpaceOnUse" x1="-4.32765" x2="467.101" y1="154.814" y2="365.337"><stop offset="0" stop-color="#adf8bb"/><stop offset="1" stop-color="#97e9ef"/></linearGradient><path d="m0 0h512v512h-512z" fill="#000"/><g fill="url(#b)" filter="url(#a)"><path d="m137.371 264.399c0 3.955-1.378 7.305-4.134 10.052-2.645 2.636-5.952 3.955-9.92 3.955-3.858 0-7.22-1.319-10.086-3.955-2.756-2.747-4.134-6.097-4.134-10.052 0-5.823-2.094-10.822-6.283-14.996-4.1885-4.285-9.2038-6.427-15.0459-6.427-5.9524 0-11.0229 2.142-15.2115 6.427-4.1887 4.174-6.283 9.173-6.283 14.996 0 5.822 2.0943 10.876 6.283 15.16 4.1886 4.175 9.2591 6.262 15.2115 6.262 3.7477 0 6.9995 1.373 9.7552 4.12 2.8657 2.636 4.2987 5.932 4.2987 9.887 0 3.845-1.378 7.141-4.1334 9.887-2.7557 2.747-6.0625 4.175-9.9205 4.285-13.999-.22-25.6832-5.054-35.0526-14.501-9.3694-9.448-14.2746-21.148-14.7155-35.1.4409-13.953 5.291-25.598 14.5501-34.936 9.3694-9.448 21.0536-14.336 35.0526-14.666 14.1093.33 25.8483 5.273 35.2183 14.831 9.479 9.448 14.329 21.038 14.55 34.771zm-63.657 0c0-3.845 1.3227-7.141 3.9682-9.888 2.7557-2.856 6.1176-4.284 10.0859-4.284 3.858 0 7.1648 1.428 9.9205 4.284 2.8664 2.747 4.2994 6.043 4.2994 9.888 0 3.955-1.433 7.305-4.2994 10.052-2.7557 2.636-6.0625 3.955-9.9205 3.955-3.9683 0-7.3302-1.319-10.0859-3.955-2.6455-2.747-3.9682-6.097-3.9682-10.052z"/><path d="m249.969 264.399c-.22 13.732-5.071 25.377-14.55 34.935-9.37 9.448-21.109 14.336-35.218 14.666-13.999-.33-25.683-5.163-35.053-14.501-9.259-9.448-14.109-21.533-14.55-36.254.441-13.183 5.346-24.499 14.716-33.946 9.369-9.448 21.053-14.282 35.052-14.502 3.858.11 7.165 1.538 9.921 4.285 2.755 2.746 4.133 6.042 4.133 9.887 0 3.955-1.433 7.306-4.299 10.052-2.755 2.637-6.007 3.955-9.755 3.955-5.952 0-11.023 2.142-15.211 6.427-4.189 4.174-6.283 9.173-6.283 14.996 0 5.822 2.094 10.876 6.283 15.16 4.188 4.175 9.259 6.262 15.211 6.262 5.842 0 10.858-2.087 15.046-6.262 4.189-4.284 6.283-9.338 6.283-15.16 0-3.955 1.378-7.251 4.134-9.888 2.866-2.746 6.228-4.119 10.086-4.119 3.968 0 7.275 1.373 9.92 4.119 2.756 2.637 4.134 5.933 4.134 9.888z"/><path d="m277.25 197c3.858 0 7.165 1.428 9.921 4.285 2.866 2.746 4.299 6.042 4.299 9.887v88.656c0 3.955-1.433 7.306-4.299 10.052-2.756 2.637-6.063 3.955-9.921 3.955-3.968 0-7.33-1.318-10.085-3.955-2.646-2.746-3.969-6.097-3.969-10.052v-88.656c0-3.845 1.323-7.141 3.969-9.887 2.755-2.857 6.117-4.285 10.085-4.285zm35.384 45.976c-3.748 0-7.055-1.318-9.921-3.955-2.756-2.746-4.133-6.097-4.133-10.052 0-3.845 1.377-7.141 4.133-9.887 2.756-2.747 6.063-4.175 9.921-4.285 13.999.22 25.683 5.054 35.052 14.502 9.37 9.447 14.275 20.818 14.716 34.111v36.583c0 3.955-1.378 7.306-4.134 10.052-2.645 2.637-5.952 3.955-9.92 3.955-3.858 0-7.22-1.318-10.086-3.955-2.756-2.746-4.134-6.097-4.134-10.052v-35.594c0-5.823-2.094-10.822-6.283-14.996-4.188-4.285-9.259-6.427-15.211-6.427z"/><path d="m425.397 214.797c13.999.33 25.628 5.218 34.888 14.666 9.369 9.338 14.274 20.983 14.715 34.936-.441 13.952-5.346 25.652-14.715 35.1-9.26 9.338-20.889 14.171-34.888 14.501-14.109-.33-25.848-5.163-35.218-14.501-9.259-9.448-14.109-21.148-14.55-35.1.441-13.953 5.291-25.598 14.55-34.936 9.37-9.448 21.109-14.336 35.218-14.666zm21.329 49.602c0-5.823-2.094-10.822-6.283-14.996-4.188-4.285-9.204-6.427-15.046-6.427-5.952 0-11.023 2.142-15.211 6.427-4.189 4.174-6.283 9.173-6.283 14.996 0 5.822 2.094 10.876 6.283 15.16 4.188 4.175 9.259 6.262 15.211 6.262 5.842 0 10.858-2.087 15.046-6.262 4.189-4.284 6.283-9.338 6.283-15.16z"/></g><g stroke-width=".2"><path d="m460.355 229.393c-9.278-9.467-20.932-14.366-34.955-14.696h-.005c-14.133.33-25.898 5.229-35.287 14.696-9.278 9.357-14.137 21.027-14.579 35.002v.007c.442 13.975 5.301 25.7 14.579 35.167h.001c9.389 9.358 21.153 14.201 35.286 14.531h.005c14.023-.33 25.677-5.173 34.956-14.531 9.388-9.467 14.302-21.191 14.744-35.167v-.007c-.442-13.975-5.356-25.645-14.745-35.002zm0 0h.001l-.071.07m.07-.07-.07.07m0 0c9.369 9.338 14.274 20.983 14.715 34.936-.441 13.952-5.346 25.652-14.715 35.1-9.26 9.338-20.889 14.171-34.888 14.501-14.109-.33-25.848-5.163-35.218-14.501-9.259-9.448-14.109-21.148-14.55-35.1.441-13.953 5.291-25.598 14.55-34.936 9.37-9.448 21.109-14.336 35.218-14.666 13.999.33 25.628 5.218 34.888 14.666zm-322.814 34.936v-.002c-.221-13.757-5.081-25.373-14.579-34.839-9.389-9.577-21.153-14.531-35.2869-14.861h-.0047c-14.0234.33-25.7326 5.229-35.1213 14.696-9.2781 9.357-14.1374 21.027-14.5791 35.002h-.0001l.0001.007c.4417 13.976 5.3563 25.7 14.7445 35.167 9.3888 9.467 21.0984 14.311 35.122 14.531h.0044c3.8837-.111 7.2147-1.549 9.9883-4.314 2.7738-2.765 4.1628-6.086 4.1628-9.958 0-3.982-1.444-7.304-4.3295-9.959-2.7734-2.764-6.0497-4.148-9.8244-4.148-5.9258 0-10.9708-2.077-15.1404-6.232-4.1708-4.267-6.2541-9.295-6.2541-15.09 0-5.796 2.0834-10.769 6.2536-14.925l.0009-.001c4.17-4.266 9.2148-6.397 15.14-6.397 5.8144 0 10.8042 2.131 14.9749 6.397l.001.001c4.17 4.156 6.253 9.129 6.253 14.925 0 3.981 1.388 7.357 4.163 10.123l.003.002c2.884 2.654 6.27 3.982 10.154 3.982 3.993 0 7.325-1.328 9.991-3.984 2.775-2.766 4.163-6.142 4.163-10.123zm-59.8608-9.957c-2.6636 2.765-3.9962 6.086-3.9962 9.957 0 3.979 1.332 7.355 3.9962 10.121h-.0001l.0029.003c2.7752 2.655 6.1622 3.983 10.1551 3.983 3.8834 0 7.2151-1.328 9.9896-3.983h.0001c2.8852-2.765 4.3302-6.142 4.3302-10.124 0-3.873-1.445-7.194-4.3288-9.959-2.7737-2.874-6.1058-4.313-9.9911-4.313-3.9954 0-7.3833 1.439-10.1579 4.315zm87.4668 45.127h.001c9.388 9.358 21.098 14.201 35.121 14.531h.004c14.134-.33 25.898-5.228 35.287-14.696 9.498-9.576 14.358-21.246 14.579-35.004v-.001c0-3.981-1.388-7.303-4.163-9.959-2.665-2.766-5.998-4.148-9.991-4.148-3.885 0-7.271 1.383-10.155 4.147-2.776 2.656-4.165 5.979-4.165 9.96 0 5.795-2.083 10.824-6.254 15.09-4.17 4.156-9.16 6.232-14.975 6.232-5.926 0-10.97-2.077-15.14-6.232-4.171-4.267-6.254-9.295-6.254-15.09 0-5.796 2.083-10.769 6.253-14.925l.001-.001c4.17-4.266 9.215-6.397 15.14-6.397 3.774 0 7.051-1.329 9.825-3.983l-.07-.072.07.072c2.885-2.765 4.329-6.142 4.329-10.124 0-3.872-1.388-7.193-4.163-9.958-2.773-2.764-6.104-4.203-9.988-4.314h-.004c-14.024.22-25.734 5.064-35.122 14.531-9.387 9.466-14.303 20.805-14.745 34.014v.006c.442 14.743 5.3 26.853 14.579 36.321zm102.015 10.381.003.003c2.776 2.655 6.163 3.982 10.155 3.982 3.884 0 7.216-1.328 9.99-3.982l-.069-.073.069.072c2.886-2.765 4.33-6.142 4.33-10.124v-88.656c0-3.873-1.444-7.194-4.328-9.958-2.774-2.875-6.106-4.314-9.992-4.314-3.995 0-7.383 1.439-10.157 4.315l.072.07-.072-.07c-2.664 2.765-3.997 6.086-3.997 9.957v88.656c0 3.98 1.332 7.356 3.996 10.122zm35.551-70.858.002.003c2.884 2.653 6.215 3.981 9.989 3.981 5.925 0 10.97 2.131 15.14 6.397l.001.001c4.17 4.156 6.253 9.129 6.253 14.925v35.594c0 3.981 1.388 7.357 4.163 10.123l.003.003c2.884 2.653 6.27 3.981 10.154 3.981 3.993 0 7.325-1.328 9.991-3.984 2.775-2.766 4.163-6.142 4.163-10.123v-36.583-.003c-.442-13.319-5.357-24.713-14.745-34.179-9.389-9.467-21.098-14.311-35.122-14.531h-.004c-3.884.111-7.215 1.55-9.988 4.314-2.775 2.765-4.163 6.086-4.163 9.958 0 3.981 1.388 7.357 4.163 10.123zm137.729 10.381.001.001c4.17 4.156 6.253 9.129 6.253 14.925 0 5.795-2.083 10.824-6.254 15.09-4.17 4.156-9.16 6.232-14.975 6.232-5.926 0-10.97-2.077-15.14-6.232-4.171-4.267-6.254-9.295-6.254-15.09 0-5.796 2.083-10.769 6.253-14.925l.001-.001c4.17-4.266 9.215-6.397 15.14-6.397 5.815 0 10.805 2.131 14.975 6.397z" stroke="#89cfbb"/><path d="m460.355 229.393c-9.278-9.467-20.932-14.366-34.955-14.696h-.005c-14.133.33-25.898 5.229-35.287 14.696-9.278 9.357-14.137 21.027-14.579 35.002v.007c.442 13.975 5.301 25.7 14.579 35.167h.001c9.389 9.358 21.153 14.201 35.286 14.531h.005c14.023-.33 25.677-5.173 34.956-14.531 9.388-9.467 14.302-21.191 14.744-35.167v-.007c-.442-13.975-5.356-25.645-14.745-35.002zm0 0h.001l-.071.07m.07-.07-.07.07m0 0c9.369 9.338 14.274 20.983 14.715 34.936-.441 13.952-5.346 25.652-14.715 35.1-9.26 9.338-20.889 14.171-34.888 14.501-14.109-.33-25.848-5.163-35.218-14.501-9.259-9.448-14.109-21.148-14.55-35.1.441-13.953 5.291-25.598 14.55-34.936 9.37-9.448 21.109-14.336 35.218-14.666 13.999.33 25.628 5.218 34.888 14.666zm-322.814 34.936v-.002c-.221-13.757-5.081-25.373-14.579-34.839-9.389-9.577-21.153-14.531-35.2869-14.861h-.0047c-14.0234.33-25.7326 5.229-35.1213 14.696-9.2781 9.357-14.1374 21.027-14.5791 35.002h-.0001l.0001.007c.4417 13.976 5.3563 25.7 14.7445 35.167 9.3888 9.467 21.0984 14.311 35.122 14.531h.0044c3.8837-.111 7.2147-1.549 9.9883-4.314 2.7738-2.765 4.1628-6.086 4.1628-9.958 0-3.982-1.444-7.304-4.3295-9.959-2.7734-2.764-6.0497-4.148-9.8244-4.148-5.9258 0-10.9708-2.077-15.1404-6.232-4.1708-4.267-6.2541-9.295-6.2541-15.09 0-5.796 2.0834-10.769 6.2536-14.925l.0009-.001c4.17-4.266 9.2148-6.397 15.14-6.397 5.8144 0 10.8042 2.131 14.9749 6.397l.001.001c4.17 4.156 6.253 9.129 6.253 14.925 0 3.981 1.388 7.357 4.163 10.123l.003.002c2.884 2.654 6.27 3.982 10.154 3.982 3.993 0 7.325-1.328 9.991-3.984 2.775-2.766 4.163-6.142 4.163-10.123zm-59.8608-9.957c-2.6636 2.765-3.9962 6.086-3.9962 9.957 0 3.979 1.332 7.355 3.9962 10.121h-.0001l.0029.003c2.7752 2.655 6.1622 3.983 10.1551 3.983 3.8834 0 7.2151-1.328 9.9896-3.983h.0001c2.8852-2.765 4.3302-6.142 4.3302-10.124 0-3.873-1.445-7.194-4.3288-9.959-2.7737-2.874-6.1058-4.313-9.9911-4.313-3.9954 0-7.3833 1.439-10.1579 4.315zm87.4668 45.127h.001c9.388 9.358 21.098 14.201 35.121 14.531h.004c14.134-.33 25.898-5.228 35.287-14.696 9.498-9.576 14.358-21.246 14.579-35.004v-.001c0-3.981-1.388-7.303-4.163-9.959-2.665-2.766-5.998-4.148-9.991-4.148-3.885 0-7.271 1.383-10.155 4.147-2.776 2.656-4.165 5.979-4.165 9.96 0 5.795-2.083 10.824-6.254 15.09-4.17 4.156-9.16 6.232-14.975 6.232-5.926 0-10.97-2.077-15.14-6.232-4.171-4.267-6.254-9.295-6.254-15.09 0-5.796 2.083-10.769 6.253-14.925l.001-.001c4.17-4.266 9.215-6.397 15.14-6.397 3.774 0 7.051-1.329 9.825-3.983l-.07-.072.07.072c2.885-2.765 4.329-6.142 4.329-10.124 0-3.872-1.388-7.193-4.163-9.958-2.773-2.764-6.104-4.203-9.988-4.314h-.004c-14.024.22-25.734 5.064-35.122 14.531-9.387 9.466-14.303 20.805-14.745 34.014v.006c.442 14.743 5.3 26.853 14.579 36.321zm102.015 10.381.003.003c2.776 2.655 6.163 3.982 10.155 3.982 3.884 0 7.216-1.328 9.99-3.982l-.069-.073.069.072c2.886-2.765 4.33-6.142 4.33-10.124v-88.656c0-3.873-1.444-7.194-4.328-9.958-2.774-2.875-6.106-4.314-9.992-4.314-3.995 0-7.383 1.439-10.157 4.315l.072.07-.072-.07c-2.664 2.765-3.997 6.086-3.997 9.957v88.656c0 3.98 1.332 7.356 3.996 10.122zm35.551-70.858.002.003c2.884 2.653 6.215 3.981 9.989 3.981 5.925 0 10.97 2.131 15.14 6.397l.001.001c4.17 4.156 6.253 9.129 6.253 14.925v35.594c0 3.981 1.388 7.357 4.163 10.123l.003.003c2.884 2.653 6.27 3.981 10.154 3.981 3.993 0 7.325-1.328 9.991-3.984 2.775-2.766 4.163-6.142 4.163-10.123v-36.583-.003c-.442-13.319-5.357-24.713-14.745-34.179-9.389-9.467-21.098-14.311-35.122-14.531h-.004c-3.884.111-7.215 1.55-9.988 4.314-2.775 2.765-4.163 6.086-4.163 9.958 0 3.981 1.388 7.357 4.163 10.123zm137.729 10.381.001.001c4.17 4.156 6.253 9.129 6.253 14.925 0 5.795-2.083 10.824-6.254 15.09-4.17 4.156-9.16 6.232-14.975 6.232-5.926 0-10.97-2.077-15.14-6.232-4.171-4.267-6.254-9.295-6.254-15.09 0-5.796 2.083-10.769 6.253-14.925l.001-.001c4.17-4.266 9.215-6.397 15.14-6.397 5.815 0 10.805 2.131 14.975 6.397z" stroke="#000" stroke-opacity=".1"/><path d="m460.355 229.393c-9.278-9.467-20.932-14.366-34.955-14.696h-.005c-14.133.33-25.898 5.229-35.287 14.696-9.278 9.357-14.137 21.027-14.579 35.002v.007c.442 13.975 5.301 25.7 14.579 35.167h.001c9.389 9.358 21.153 14.201 35.286 14.531h.005c14.023-.33 25.677-5.173 34.956-14.531 9.388-9.467 14.302-21.191 14.744-35.167v-.007c-.442-13.975-5.356-25.645-14.745-35.002zm0 0h.001l-.071.07m.07-.07-.07.07m0 0c9.369 9.338 14.274 20.983 14.715 34.936-.441 13.952-5.346 25.652-14.715 35.1-9.26 9.338-20.889 14.171-34.888 14.501-14.109-.33-25.848-5.163-35.218-14.501-9.259-9.448-14.109-21.148-14.55-35.1.441-13.953 5.291-25.598 14.55-34.936 9.37-9.448 21.109-14.336 35.218-14.666 13.999.33 25.628 5.218 34.888 14.666zm-322.814 34.936v-.002c-.221-13.757-5.081-25.373-14.579-34.839-9.389-9.577-21.153-14.531-35.2869-14.861h-.0047c-14.0234.33-25.7326 5.229-35.1213 14.696-9.2781 9.357-14.1374 21.027-14.5791 35.002h-.0001l.0001.007c.4417 13.976 5.3563 25.7 14.7445 35.167 9.3888 9.467 21.0984 14.311 35.122 14.531h.0044c3.8837-.111 7.2147-1.549 9.9883-4.314 2.7738-2.765 4.1628-6.086 4.1628-9.958 0-3.982-1.444-7.304-4.3295-9.959-2.7734-2.764-6.0497-4.148-9.8244-4.148-5.9258 0-10.9708-2.077-15.1404-6.232-4.1708-4.267-6.2541-9.295-6.2541-15.09 0-5.796 2.0834-10.769 6.2536-14.925l.0009-.001c4.17-4.266 9.2148-6.397 15.14-6.397 5.8144 0 10.8042 2.131 14.9749 6.397l.001.001c4.17 4.156 6.253 9.129 6.253 14.925 0 3.981 1.388 7.357 4.163 10.123l.003.002c2.884 2.654 6.27 3.982 10.154 3.982 3.993 0 7.325-1.328 9.991-3.984 2.775-2.766 4.163-6.142 4.163-10.123zm-59.8608-9.957c-2.6636 2.765-3.9962 6.086-3.9962 9.957 0 3.979 1.332 7.355 3.9962 10.121h-.0001l.0029.003c2.7752 2.655 6.1622 3.983 10.1551 3.983 3.8834 0 7.2151-1.328 9.9896-3.983h.0001c2.8852-2.765 4.3302-6.142 4.3302-10.124 0-3.873-1.445-7.194-4.3288-9.959-2.7737-2.874-6.1058-4.313-9.9911-4.313-3.9954 0-7.3833 1.439-10.1579 4.315zm87.4668 45.127h.001c9.388 9.358 21.098 14.201 35.121 14.531h.004c14.134-.33 25.898-5.228 35.287-14.696 9.498-9.576 14.358-21.246 14.579-35.004v-.001c0-3.981-1.388-7.303-4.163-9.959-2.665-2.766-5.998-4.148-9.991-4.148-3.885 0-7.271 1.383-10.155 4.147-2.776 2.656-4.165 5.979-4.165 9.96 0 5.795-2.083 10.824-6.254 15.09-4.17 4.156-9.16 6.232-14.975 6.232-5.926 0-10.97-2.077-15.14-6.232-4.171-4.267-6.254-9.295-6.254-15.09 0-5.796 2.083-10.769 6.253-14.925l.001-.001c4.17-4.266 9.215-6.397 15.14-6.397 3.774 0 7.051-1.329 9.825-3.983l-.07-.072.07.072c2.885-2.765 4.329-6.142 4.329-10.124 0-3.872-1.388-7.193-4.163-9.958-2.773-2.764-6.104-4.203-9.988-4.314h-.004c-14.024.22-25.734 5.064-35.122 14.531-9.387 9.466-14.303 20.805-14.745 34.014v.006c.442 14.743 5.3 26.853 14.579 36.321zm102.015 10.381.003.003c2.776 2.655 6.163 3.982 10.155 3.982 3.884 0 7.216-1.328 9.99-3.982l-.069-.073.069.072c2.886-2.765 4.33-6.142 4.33-10.124v-88.656c0-3.873-1.444-7.194-4.328-9.958-2.774-2.875-6.106-4.314-9.992-4.314-3.995 0-7.383 1.439-10.157 4.315l.072.07-.072-.07c-2.664 2.765-3.997 6.086-3.997 9.957v88.656c0 3.98 1.332 7.356 3.996 10.122zm35.551-70.858.002.003c2.884 2.653 6.215 3.981 9.989 3.981 5.925 0 10.97 2.131 15.14 6.397l.001.001c4.17 4.156 6.253 9.129 6.253 14.925v35.594c0 3.981 1.388 7.357 4.163 10.123l.003.003c2.884 2.653 6.27 3.981 10.154 3.981 3.993 0 7.325-1.328 9.991-3.984 2.775-2.766 4.163-6.142 4.163-10.123v-36.583-.003c-.442-13.319-5.357-24.713-14.745-34.179-9.389-9.467-21.098-14.311-35.122-14.531h-.004c-3.884.111-7.215 1.55-9.988 4.314-2.775 2.765-4.163 6.086-4.163 9.958 0 3.981 1.388 7.357 4.163 10.123zm137.729 10.381.001.001c4.17 4.156 6.253 9.129 6.253 14.925 0 5.795-2.083 10.824-6.254 15.09-4.17 4.156-9.16 6.232-14.975 6.232-5.926 0-10.97-2.077-15.14-6.232-4.171-4.267-6.254-9.295-6.254-15.09 0-5.796 2.083-10.769 6.253-14.925l.001-.001c4.17-4.266 9.215-6.397 15.14-6.397 5.815 0 10.805 2.131 14.975 6.397z" stroke="#fffefe" stroke-opacity=".1"/></g></svg>