<svg width="512" height="512" viewBox="0 0 512 512" fill="none" xmlns="http://www.w3.org/2000/svg">
<rect width="512" height="512" fill="black"/>
<g filter="url(#filter0_ii_5689_1860)">
<path d="M137.371 264.399C137.371 268.354 135.993 271.704 133.237 274.451C130.592 277.087 127.285 278.406 123.317 278.406C119.459 278.406 116.097 277.087 113.231 274.451C110.475 271.704 109.097 268.354 109.097 264.399C109.097 258.576 107.003 253.577 102.814 249.403C98.6255 245.118 93.6102 242.976 87.7681 242.976C81.8157 242.976 76.7452 245.118 72.5566 249.403C68.3679 253.577 66.2736 258.576 66.2736 264.399C66.2736 270.221 68.3679 275.275 72.5566 279.559C76.7452 283.734 81.8157 285.821 87.7681 285.821C91.5158 285.821 94.7676 287.194 97.5233 289.941C100.389 292.577 101.822 295.873 101.822 299.828C101.822 303.673 100.444 306.969 97.6886 309.715C94.9329 312.462 91.6261 313.89 87.7681 314C73.7691 313.78 62.0849 308.946 52.7155 299.499C43.3461 290.051 38.4409 278.351 38 264.399C38.4409 250.446 43.291 238.801 52.5501 229.463C61.9195 220.015 73.6037 215.127 87.6027 214.797C101.712 215.127 113.451 220.07 122.821 229.628C132.3 239.076 137.15 250.666 137.371 264.399ZM73.714 264.399C73.714 260.554 75.0367 257.258 77.6822 254.511C80.4379 251.655 83.7998 250.227 87.7681 250.227C91.6261 250.227 94.9329 251.655 97.6886 254.511C100.555 257.258 101.988 260.554 101.988 264.399C101.988 268.354 100.555 271.704 97.6886 274.451C94.9329 277.087 91.6261 278.406 87.7681 278.406C83.7998 278.406 80.4379 277.087 77.6822 274.451C75.0367 271.704 73.714 268.354 73.714 264.399Z" fill="url(#paint0_linear_5689_1860)"/>
<path d="M249.969 264.399C249.749 278.131 244.898 289.776 235.419 299.334C226.049 308.782 214.31 313.67 200.201 314C186.202 313.67 174.518 308.837 165.148 299.499C155.889 290.051 151.039 277.966 150.598 263.245C151.039 250.062 155.944 238.746 165.314 229.299C174.683 219.851 186.367 215.017 200.366 214.797C204.224 214.907 207.531 216.335 210.287 219.082C213.042 221.828 214.42 225.124 214.42 228.969C214.42 232.924 212.987 236.275 210.121 239.021C207.366 241.658 204.114 242.976 200.366 242.976C194.414 242.976 189.343 245.118 185.155 249.403C180.966 253.577 178.872 258.576 178.872 264.399C178.872 270.221 180.966 275.275 185.155 279.559C189.343 283.734 194.414 285.821 200.366 285.821C206.208 285.821 211.224 283.734 215.412 279.559C219.601 275.275 221.695 270.221 221.695 264.399C221.695 260.444 223.073 257.148 225.829 254.511C228.695 251.765 232.057 250.392 235.915 250.392C239.883 250.392 243.19 251.765 245.835 254.511C248.591 257.148 249.969 260.444 249.969 264.399Z" fill="url(#paint1_linear_5689_1860)"/>
<path d="M277.25 197C281.108 197 284.415 198.428 287.171 201.285C290.037 204.031 291.47 207.327 291.47 211.172V299.828C291.47 303.783 290.037 307.134 287.171 309.88C284.415 312.517 281.108 313.835 277.25 313.835C273.282 313.835 269.92 312.517 267.165 309.88C264.519 307.134 263.196 303.783 263.196 299.828V211.172C263.196 207.327 264.519 204.031 267.165 201.285C269.92 198.428 273.282 197 277.25 197ZM312.634 242.976C308.886 242.976 305.579 241.658 302.713 239.021C299.957 236.275 298.58 232.924 298.58 228.969C298.58 225.124 299.957 221.828 302.713 219.082C305.469 216.335 308.776 214.907 312.634 214.797C326.633 215.017 338.317 219.851 347.686 229.299C357.056 238.746 361.961 250.117 362.402 263.41V299.993C362.402 303.948 361.024 307.299 358.268 310.045C355.623 312.682 352.316 314 348.348 314C344.49 314 341.128 312.682 338.262 310.045C335.506 307.299 334.128 303.948 334.128 299.993V264.399C334.128 258.576 332.034 253.577 327.845 249.403C323.657 245.118 318.586 242.976 312.634 242.976Z" fill="url(#paint2_linear_5689_1860)"/>
<path d="M425.397 214.797C439.396 215.127 451.025 220.015 460.285 229.463C469.654 238.801 474.559 250.446 475 264.399C474.559 278.351 469.654 290.051 460.285 299.499C451.025 308.837 439.396 313.67 425.397 314C411.288 313.67 399.549 308.837 390.179 299.499C380.92 290.051 376.07 278.351 375.629 264.399C376.07 250.446 380.92 238.801 390.179 229.463C399.549 220.015 411.288 215.127 425.397 214.797ZM446.726 264.399C446.726 258.576 444.632 253.577 440.443 249.403C436.255 245.118 431.239 242.976 425.397 242.976C419.445 242.976 414.374 245.118 410.186 249.403C405.997 253.577 403.903 258.576 403.903 264.399C403.903 270.221 405.997 275.275 410.186 279.559C414.374 283.734 419.445 285.821 425.397 285.821C431.239 285.821 436.255 283.734 440.443 279.559C444.632 275.275 446.726 270.221 446.726 264.399Z" fill="url(#paint3_linear_5689_1860)"/>
</g>
<path d="M460.355 229.393C451.077 219.926 439.423 215.027 425.4 214.697L425.395 214.697C411.262 215.027 399.497 219.926 390.108 229.393C380.83 238.75 375.971 250.42 375.529 264.395L375.529 264.402C375.971 278.377 380.83 290.102 390.108 299.569L390.109 299.569C399.498 308.927 411.262 313.77 425.395 314.1L425.4 314.1C439.423 313.77 451.077 308.927 460.356 299.569C469.744 290.102 474.658 278.378 475.1 264.402L475.1 264.395C474.658 250.42 469.744 238.75 460.355 229.393ZM460.355 229.393C460.356 229.393 460.356 229.393 460.356 229.393L460.285 229.463M460.355 229.393C460.355 229.393 460.355 229.393 460.355 229.393L460.285 229.463M460.285 229.463C469.654 238.801 474.559 250.446 475 264.399C474.559 278.351 469.654 290.051 460.285 299.499C451.025 308.837 439.396 313.67 425.397 314C411.288 313.67 399.549 308.837 390.179 299.499C380.92 290.051 376.07 278.351 375.629 264.399C376.07 250.446 380.92 238.801 390.179 229.463C399.549 220.015 411.288 215.127 425.397 214.797C439.396 215.127 451.025 220.015 460.285 229.463ZM137.471 264.399L137.471 264.397C137.25 250.64 132.39 239.024 122.892 229.558C113.503 219.981 101.739 215.027 87.6051 214.697L87.6051 214.697L87.6004 214.697C73.577 215.027 61.8678 219.926 52.4791 229.393C43.201 238.75 38.3417 250.42 37.9 264.395L37.8999 264.395L37.9 264.402C38.3417 278.378 43.2563 290.102 52.6445 299.569C62.0333 309.036 73.7429 313.88 87.7665 314.1L87.7709 314.1C91.6546 313.989 94.9856 312.551 97.7592 309.786C100.533 307.021 101.922 303.7 101.922 299.828C101.922 295.846 100.478 292.524 97.5925 289.869C94.8191 287.105 91.5428 285.721 87.7681 285.721C81.8423 285.721 76.7973 283.644 72.6277 279.489C68.4569 275.222 66.3736 270.194 66.3736 264.399C66.3736 258.603 68.457 253.63 72.6272 249.474L72.6281 249.473C76.7981 245.207 81.8429 243.076 87.7681 243.076C93.5825 243.076 98.5723 245.207 102.743 249.473L102.744 249.474C106.914 253.63 108.997 258.603 108.997 264.399C108.997 268.38 110.385 271.756 113.16 274.522L113.16 274.522L113.163 274.524C116.047 277.178 119.433 278.506 123.317 278.506C127.31 278.506 130.642 277.178 133.308 274.522C136.083 271.756 137.471 268.38 137.471 264.399ZM77.6102 254.442L77.6102 254.442C74.9466 257.207 73.614 260.528 73.614 264.399C73.614 268.378 74.946 271.754 77.6102 274.52L77.6101 274.52L77.613 274.523C80.3882 277.178 83.7752 278.506 87.7681 278.506C91.6515 278.506 94.9832 277.178 97.7577 274.523L97.7578 274.523C100.643 271.758 102.088 268.381 102.088 264.399C102.088 260.526 100.643 257.205 97.7592 254.44C94.9855 251.566 91.6534 250.127 87.7681 250.127C83.7727 250.127 80.3848 251.566 77.6102 254.442ZM165.077 299.569L165.078 299.569C174.466 308.927 186.176 313.77 200.199 314.1L200.203 314.1C214.337 313.77 226.101 308.872 235.49 299.404C244.988 289.828 249.848 278.158 250.069 264.4V264.399C250.069 260.418 248.681 257.096 245.906 254.44C243.241 251.674 239.908 250.292 235.915 250.292C232.03 250.292 228.644 251.675 225.76 254.439C222.984 257.095 221.595 260.418 221.595 264.399C221.595 270.194 219.512 275.223 215.341 279.489C211.171 283.645 206.181 285.721 200.366 285.721C194.44 285.721 189.396 283.644 185.226 279.489C181.055 275.222 178.972 270.194 178.972 264.399C178.972 258.603 181.055 253.63 185.225 249.474L185.226 249.473C189.396 245.207 194.441 243.076 200.366 243.076C204.14 243.076 207.417 241.747 210.191 239.093L210.121 239.021L210.191 239.093C213.076 236.328 214.52 232.951 214.52 228.969C214.52 225.097 213.132 221.776 210.357 219.011C207.584 216.247 204.253 214.808 200.369 214.697L200.365 214.697C186.341 214.917 174.631 219.761 165.243 229.228C155.856 238.694 150.94 250.033 150.498 263.242L150.498 263.242L150.498 263.248C150.94 277.991 155.798 290.101 165.077 299.569ZM267.092 309.95L267.095 309.953C269.871 312.608 273.258 313.935 277.25 313.935C281.134 313.935 284.466 312.607 287.24 309.953L287.171 309.88L287.24 309.952C290.126 307.187 291.57 303.81 291.57 299.828V211.172C291.57 207.299 290.126 203.978 287.242 201.214C284.468 198.339 281.136 196.9 277.25 196.9C273.255 196.9 269.867 198.339 267.093 201.215L267.165 201.285L267.093 201.215C264.429 203.98 263.096 207.301 263.096 211.172V299.828C263.096 303.808 264.428 307.184 267.092 309.95ZM302.643 239.092L302.645 239.095C305.529 241.748 308.86 243.076 312.634 243.076C318.559 243.076 323.604 245.207 327.774 249.473L327.775 249.474C331.945 253.63 334.028 258.603 334.028 264.399V299.993C334.028 303.974 335.416 307.35 338.191 310.116L338.194 310.119C341.078 312.772 344.464 314.1 348.348 314.1C352.341 314.1 355.673 312.772 358.339 310.116C361.114 307.35 362.502 303.974 362.502 299.993L362.502 263.41L362.502 263.407C362.06 250.088 357.145 238.694 347.757 229.228C338.368 219.761 326.659 214.917 312.635 214.697L312.631 214.697C308.747 214.808 305.416 216.247 302.643 219.011C299.868 221.776 298.48 225.097 298.48 228.969C298.48 232.95 299.868 236.326 302.643 239.092ZM440.372 249.473L440.373 249.474C444.543 253.63 446.626 258.603 446.626 264.399C446.626 270.194 444.543 275.223 440.372 279.489C436.202 283.645 431.212 285.721 425.397 285.721C419.471 285.721 414.427 283.644 410.257 279.489C406.086 275.222 404.003 270.194 404.003 264.399C404.003 258.603 406.086 253.63 410.256 249.474L410.257 249.473C414.427 245.207 419.472 243.076 425.397 243.076C431.212 243.076 436.202 245.207 440.372 249.473Z" stroke="#89CFBB" stroke-width="0.2"/>
<path d="M460.355 229.393C451.077 219.926 439.423 215.027 425.4 214.697L425.395 214.697C411.262 215.027 399.497 219.926 390.108 229.393C380.83 238.75 375.971 250.42 375.529 264.395L375.529 264.402C375.971 278.377 380.83 290.102 390.108 299.569L390.109 299.569C399.498 308.927 411.262 313.77 425.395 314.1L425.4 314.1C439.423 313.77 451.077 308.927 460.356 299.569C469.744 290.102 474.658 278.378 475.1 264.402L475.1 264.395C474.658 250.42 469.744 238.75 460.355 229.393ZM460.355 229.393C460.356 229.393 460.356 229.393 460.356 229.393L460.285 229.463M460.355 229.393C460.355 229.393 460.355 229.393 460.355 229.393L460.285 229.463M460.285 229.463C469.654 238.801 474.559 250.446 475 264.399C474.559 278.351 469.654 290.051 460.285 299.499C451.025 308.837 439.396 313.67 425.397 314C411.288 313.67 399.549 308.837 390.179 299.499C380.92 290.051 376.07 278.351 375.629 264.399C376.07 250.446 380.92 238.801 390.179 229.463C399.549 220.015 411.288 215.127 425.397 214.797C439.396 215.127 451.025 220.015 460.285 229.463ZM137.471 264.399L137.471 264.397C137.25 250.64 132.39 239.024 122.892 229.558C113.503 219.981 101.739 215.027 87.6051 214.697L87.6051 214.697L87.6004 214.697C73.577 215.027 61.8678 219.926 52.4791 229.393C43.201 238.75 38.3417 250.42 37.9 264.395L37.8999 264.395L37.9 264.402C38.3417 278.378 43.2563 290.102 52.6445 299.569C62.0333 309.036 73.7429 313.88 87.7665 314.1L87.7709 314.1C91.6546 313.989 94.9856 312.551 97.7592 309.786C100.533 307.021 101.922 303.7 101.922 299.828C101.922 295.846 100.478 292.524 97.5925 289.869C94.8191 287.105 91.5428 285.721 87.7681 285.721C81.8423 285.721 76.7973 283.644 72.6277 279.489C68.4569 275.222 66.3736 270.194 66.3736 264.399C66.3736 258.603 68.457 253.63 72.6272 249.474L72.6281 249.473C76.7981 245.207 81.8429 243.076 87.7681 243.076C93.5825 243.076 98.5723 245.207 102.743 249.473L102.744 249.474C106.914 253.63 108.997 258.603 108.997 264.399C108.997 268.38 110.385 271.756 113.16 274.522L113.16 274.522L113.163 274.524C116.047 277.178 119.433 278.506 123.317 278.506C127.31 278.506 130.642 277.178 133.308 274.522C136.083 271.756 137.471 268.38 137.471 264.399ZM77.6102 254.442L77.6102 254.442C74.9466 257.207 73.614 260.528 73.614 264.399C73.614 268.378 74.946 271.754 77.6102 274.52L77.6101 274.52L77.613 274.523C80.3882 277.178 83.7752 278.506 87.7681 278.506C91.6515 278.506 94.9832 277.178 97.7577 274.523L97.7578 274.523C100.643 271.758 102.088 268.381 102.088 264.399C102.088 260.526 100.643 257.205 97.7592 254.44C94.9855 251.566 91.6534 250.127 87.7681 250.127C83.7727 250.127 80.3848 251.566 77.6102 254.442ZM165.077 299.569L165.078 299.569C174.466 308.927 186.176 313.77 200.199 314.1L200.203 314.1C214.337 313.77 226.101 308.872 235.49 299.404C244.988 289.828 249.848 278.158 250.069 264.4V264.399C250.069 260.418 248.681 257.096 245.906 254.44C243.241 251.674 239.908 250.292 235.915 250.292C232.03 250.292 228.644 251.675 225.76 254.439C222.984 257.095 221.595 260.418 221.595 264.399C221.595 270.194 219.512 275.223 215.341 279.489C211.171 283.645 206.181 285.721 200.366 285.721C194.44 285.721 189.396 283.644 185.226 279.489C181.055 275.222 178.972 270.194 178.972 264.399C178.972 258.603 181.055 253.63 185.225 249.474L185.226 249.473C189.396 245.207 194.441 243.076 200.366 243.076C204.14 243.076 207.417 241.747 210.191 239.093L210.121 239.021L210.191 239.093C213.076 236.328 214.52 232.951 214.52 228.969C214.52 225.097 213.132 221.776 210.357 219.011C207.584 216.247 204.253 214.808 200.369 214.697L200.365 214.697C186.341 214.917 174.631 219.761 165.243 229.228C155.856 238.694 150.94 250.033 150.498 263.242L150.498 263.242L150.498 263.248C150.94 277.991 155.798 290.101 165.077 299.569ZM267.092 309.95L267.095 309.953C269.871 312.608 273.258 313.935 277.25 313.935C281.134 313.935 284.466 312.607 287.24 309.953L287.171 309.88L287.24 309.952C290.126 307.187 291.57 303.81 291.57 299.828V211.172C291.57 207.299 290.126 203.978 287.242 201.214C284.468 198.339 281.136 196.9 277.25 196.9C273.255 196.9 269.867 198.339 267.093 201.215L267.165 201.285L267.093 201.215C264.429 203.98 263.096 207.301 263.096 211.172V299.828C263.096 303.808 264.428 307.184 267.092 309.95ZM302.643 239.092L302.645 239.095C305.529 241.748 308.86 243.076 312.634 243.076C318.559 243.076 323.604 245.207 327.774 249.473L327.775 249.474C331.945 253.63 334.028 258.603 334.028 264.399V299.993C334.028 303.974 335.416 307.35 338.191 310.116L338.194 310.119C341.078 312.772 344.464 314.1 348.348 314.1C352.341 314.1 355.673 312.772 358.339 310.116C361.114 307.35 362.502 303.974 362.502 299.993L362.502 263.41L362.502 263.407C362.06 250.088 357.145 238.694 347.757 229.228C338.368 219.761 326.659 214.917 312.635 214.697L312.631 214.697C308.747 214.808 305.416 216.247 302.643 219.011C299.868 221.776 298.48 225.097 298.48 228.969C298.48 232.95 299.868 236.326 302.643 239.092ZM440.372 249.473L440.373 249.474C444.543 253.63 446.626 258.603 446.626 264.399C446.626 270.194 444.543 275.223 440.372 279.489C436.202 283.645 431.212 285.721 425.397 285.721C419.471 285.721 414.427 283.644 410.257 279.489C406.086 275.222 404.003 270.194 404.003 264.399C404.003 258.603 406.086 253.63 410.256 249.474L410.257 249.473C414.427 245.207 419.472 243.076 425.397 243.076C431.212 243.076 436.202 245.207 440.372 249.473Z" stroke="black" stroke-opacity="0.1" stroke-width="0.2"/>
<path d="M460.355 229.393C451.077 219.926 439.423 215.027 425.4 214.697L425.395 214.697C411.262 215.027 399.497 219.926 390.108 229.393C380.83 238.75 375.971 250.42 375.529 264.395L375.529 264.402C375.971 278.377 380.83 290.102 390.108 299.569L390.109 299.569C399.498 308.927 411.262 313.77 425.395 314.1L425.4 314.1C439.423 313.77 451.077 308.927 460.356 299.569C469.744 290.102 474.658 278.378 475.1 264.402L475.1 264.395C474.658 250.42 469.744 238.75 460.355 229.393ZM460.355 229.393C460.356 229.393 460.356 229.393 460.356 229.393L460.285 229.463M460.355 229.393C460.355 229.393 460.355 229.393 460.355 229.393L460.285 229.463M460.285 229.463C469.654 238.801 474.559 250.446 475 264.399C474.559 278.351 469.654 290.051 460.285 299.499C451.025 308.837 439.396 313.67 425.397 314C411.288 313.67 399.549 308.837 390.179 299.499C380.92 290.051 376.07 278.351 375.629 264.399C376.07 250.446 380.92 238.801 390.179 229.463C399.549 220.015 411.288 215.127 425.397 214.797C439.396 215.127 451.025 220.015 460.285 229.463ZM137.471 264.399L137.471 264.397C137.25 250.64 132.39 239.024 122.892 229.558C113.503 219.981 101.739 215.027 87.6051 214.697L87.6051 214.697L87.6004 214.697C73.577 215.027 61.8678 219.926 52.4791 229.393C43.201 238.75 38.3417 250.42 37.9 264.395L37.8999 264.395L37.9 264.402C38.3417 278.378 43.2563 290.102 52.6445 299.569C62.0333 309.036 73.7429 313.88 87.7665 314.1L87.7709 314.1C91.6546 313.989 94.9856 312.551 97.7592 309.786C100.533 307.021 101.922 303.7 101.922 299.828C101.922 295.846 100.478 292.524 97.5925 289.869C94.8191 287.105 91.5428 285.721 87.7681 285.721C81.8423 285.721 76.7973 283.644 72.6277 279.489C68.4569 275.222 66.3736 270.194 66.3736 264.399C66.3736 258.603 68.457 253.63 72.6272 249.474L72.6281 249.473C76.7981 245.207 81.8429 243.076 87.7681 243.076C93.5825 243.076 98.5723 245.207 102.743 249.473L102.744 249.474C106.914 253.63 108.997 258.603 108.997 264.399C108.997 268.38 110.385 271.756 113.16 274.522L113.16 274.522L113.163 274.524C116.047 277.178 119.433 278.506 123.317 278.506C127.31 278.506 130.642 277.178 133.308 274.522C136.083 271.756 137.471 268.38 137.471 264.399ZM77.6102 254.442L77.6102 254.442C74.9466 257.207 73.614 260.528 73.614 264.399C73.614 268.378 74.946 271.754 77.6102 274.52L77.6101 274.52L77.613 274.523C80.3882 277.178 83.7752 278.506 87.7681 278.506C91.6515 278.506 94.9832 277.178 97.7577 274.523L97.7578 274.523C100.643 271.758 102.088 268.381 102.088 264.399C102.088 260.526 100.643 257.205 97.7592 254.44C94.9855 251.566 91.6534 250.127 87.7681 250.127C83.7727 250.127 80.3848 251.566 77.6102 254.442ZM165.077 299.569L165.078 299.569C174.466 308.927 186.176 313.77 200.199 314.1L200.203 314.1C214.337 313.77 226.101 308.872 235.49 299.404C244.988 289.828 249.848 278.158 250.069 264.4V264.399C250.069 260.418 248.681 257.096 245.906 254.44C243.241 251.674 239.908 250.292 235.915 250.292C232.03 250.292 228.644 251.675 225.76 254.439C222.984 257.095 221.595 260.418 221.595 264.399C221.595 270.194 219.512 275.223 215.341 279.489C211.171 283.645 206.181 285.721 200.366 285.721C194.44 285.721 189.396 283.644 185.226 279.489C181.055 275.222 178.972 270.194 178.972 264.399C178.972 258.603 181.055 253.63 185.225 249.474L185.226 249.473C189.396 245.207 194.441 243.076 200.366 243.076C204.14 243.076 207.417 241.747 210.191 239.093L210.121 239.021L210.191 239.093C213.076 236.328 214.52 232.951 214.52 228.969C214.52 225.097 213.132 221.776 210.357 219.011C207.584 216.247 204.253 214.808 200.369 214.697L200.365 214.697C186.341 214.917 174.631 219.761 165.243 229.228C155.856 238.694 150.94 250.033 150.498 263.242L150.498 263.242L150.498 263.248C150.94 277.991 155.798 290.101 165.077 299.569ZM267.092 309.95L267.095 309.953C269.871 312.608 273.258 313.935 277.25 313.935C281.134 313.935 284.466 312.607 287.24 309.953L287.171 309.88L287.24 309.952C290.126 307.187 291.57 303.81 291.57 299.828V211.172C291.57 207.299 290.126 203.978 287.242 201.214C284.468 198.339 281.136 196.9 277.25 196.9C273.255 196.9 269.867 198.339 267.093 201.215L267.165 201.285L267.093 201.215C264.429 203.98 263.096 207.301 263.096 211.172V299.828C263.096 303.808 264.428 307.184 267.092 309.95ZM302.643 239.092L302.645 239.095C305.529 241.748 308.86 243.076 312.634 243.076C318.559 243.076 323.604 245.207 327.774 249.473L327.775 249.474C331.945 253.63 334.028 258.603 334.028 264.399V299.993C334.028 303.974 335.416 307.35 338.191 310.116L338.194 310.119C341.078 312.772 344.464 314.1 348.348 314.1C352.341 314.1 355.673 312.772 358.339 310.116C361.114 307.35 362.502 303.974 362.502 299.993L362.502 263.41L362.502 263.407C362.06 250.088 357.145 238.694 347.757 229.228C338.368 219.761 326.659 214.917 312.635 214.697L312.631 214.697C308.747 214.808 305.416 216.247 302.643 219.011C299.868 221.776 298.48 225.097 298.48 228.969C298.48 232.95 299.868 236.326 302.643 239.092ZM440.372 249.473L440.373 249.474C444.543 253.63 446.626 258.603 446.626 264.399C446.626 270.194 444.543 275.223 440.372 279.489C436.202 283.645 431.212 285.721 425.397 285.721C419.471 285.721 414.427 283.644 410.257 279.489C406.086 275.222 404.003 270.194 404.003 264.399C404.003 258.603 406.086 253.63 410.256 249.474L410.257 249.473C414.427 245.207 419.472 243.076 425.397 243.076C431.212 243.076 436.202 245.207 440.372 249.473Z" stroke="#FFFEFE" stroke-opacity="0.1" stroke-width="0.2"/>
<defs>
<filter id="filter0_ii_5689_1860" x="37.7997" y="194.8" width="437.401" height="121.4" filterUnits="userSpaceOnUse" color-interpolation-filters="sRGB">
<feFlood flood-opacity="0" result="BackgroundImageFix"/>
<feBlend mode="normal" in="SourceGraphic" in2="BackgroundImageFix" result="shape"/>
<feColorMatrix in="SourceAlpha" type="matrix" values="0 0 0 0 0 0 0 0 0 0 0 0 0 0 0 0 0 0 127 0" result="hardAlpha"/>
<feOffset dy="2"/>
<feGaussianBlur stdDeviation="3"/>
<feComposite in2="hardAlpha" operator="arithmetic" k2="-1" k3="1"/>
<feColorMatrix type="matrix" values="0 0 0 0 0.541974 0 0 0 0 0.756243 0 0 0 0 0.596256 0 0 0 0.5 0"/>
<feBlend mode="normal" in2="shape" result="effect1_innerShadow_5689_1860"/>
<feColorMatrix in="SourceAlpha" type="matrix" values="0 0 0 0 0 0 0 0 0 0 0 0 0 0 0 0 0 0 127 0" result="hardAlpha"/>
<feOffset dy="-2"/>
<feGaussianBlur stdDeviation="2.5"/>
<feComposite in2="hardAlpha" operator="arithmetic" k2="-1" k3="1"/>
<feColorMatrix type="matrix" values="0 0 0 0 0.203045 0 0 0 0 0.694118 0 0 0 0 0.706243 0 0 0 1 0"/>
<feBlend mode="normal" in2="effect1_innerShadow_5689_1860" result="effect2_innerShadow_5689_1860"/>
</filter>
<linearGradient id="paint0_linear_5689_1860" x1="-4.32765" y1="154.814" x2="467.101" y2="365.337" gradientUnits="userSpaceOnUse">
<stop stop-color="#ADF8BB"/>
<stop offset="1" stop-color="#97E9EF"/>
</linearGradient>
<linearGradient id="paint1_linear_5689_1860" x1="-4.32765" y1="154.814" x2="467.101" y2="365.337" gradientUnits="userSpaceOnUse">
<stop stop-color="#ADF8BB"/>
<stop offset="1" stop-color="#97E9EF"/>
</linearGradient>
<linearGradient id="paint2_linear_5689_1860" x1="-4.32765" y1="154.814" x2="467.101" y2="365.337" gradientUnits="userSpaceOnUse">
<stop stop-color="#ADF8BB"/>
<stop offset="1" stop-color="#97E9EF"/>
</linearGradient>
<linearGradient id="paint3_linear_5689_1860" x1="-4.32765" y1="154.814" x2="467.101" y2="365.337" gradientUnits="userSpaceOnUse">
<stop stop-color="#ADF8BB"/>
<stop offset="1" stop-color="#97E9EF"/>
</linearGradient>
</defs>
</svg>
