<svg fill="none" height="24" viewBox="0 0 24 24" width="24" xmlns="http://www.w3.org/2000/svg" xmlns:xlink="http://www.w3.org/1999/xlink"><radialGradient id="a" cx="0" cy="0" gradientTransform="matrix(0 10 -10 0 12 12)" gradientUnits="userSpaceOnUse" r="1"><stop offset=".000889826" stop-color="#ff7193"/><stop offset=".997479" stop-color="#5200ff"/></radialGradient><path clip-rule="evenodd" d="m10.5 8.52v-4.54c0-1.41-.64-1.98-2.23-1.98h-4.04c-1.59 0-2.23.57-2.23 1.98v4.53c0 1.42.64 1.98 2.23 1.98h4.04c1.59.01 2.23-.56 2.23-1.97zm11.5-.25v-4.04c0-1.59-.64-2.23-2.23-2.23h-4.04c-1.59 0-2.23.64-2.23 2.23v4.04c0 1.59.64 2.23 2.23 2.23h4.04c1.59 0 2.23-.64 2.23-2.23zm-11.5 7.46v4.04c0 1.59-.64 2.23-2.23 2.23h-4.04c-1.59 0-2.23-.64-2.23-2.23v-4.04c0-1.59.64-2.23 2.23-2.23h4.04c1.59 0 2.23.64 2.23 2.23zm3.25 1.77c0-.4142.3358-.75.75-.75h2.25v-2.25c0-.4142.3358-.75.75-.75s.75.3358.75.75v2.25h2.25c.4142 0 .75.3358.75.75s-.3358.75-.75.75h-2.25v2.25c0 .4142-.3358.75-.75.75s-.75-.3358-.75-.75v-2.25h-2.25c-.4142 0-.75-.3358-.75-.75z" fill="url(#a)" fill-rule="evenodd"/></svg>