<svg fill="none" height="24" viewBox="0 0 24 24" width="24" xmlns="http://www.w3.org/2000/svg"><g stroke="#1a1323" stroke-width="1.5"><path d="m3.03293 10h17.93417c1.0201 0 1.4207-1.35142.5719-1.92941l-8.3952-5.71684c-.6926-.47167-1.595-.47167-2.2876 0l-8.39518 5.71684c-.84878.57799-.4482 1.92941.57191 1.92941z"/><path d="m6 10h4v8h-4z"/><path d="m14 10h4v8h-4z"/><path d="m19.382 18c.3787 0 .725.214.8944.5528l1 2c.3324.6649-.1511 1.4472-.8944 1.4472h-16.76397c-.74338 0-1.22687-.7823-.89442-1.4472l1-2c.16939-.3388.51565-.5528.89442-.5528z"/></g></svg>