<svg fill="none" height="24" viewBox="0 0 24 24" width="24" xmlns="http://www.w3.org/2000/svg"><path d="m10 9c0 .55228-.44772 1-1 1s-1-.44772-1-1 .44772-1 1-1 1 .44772 1 1z" fill="#1a1323"/><path d="m16 15c0 .5523-.4477 1-1 1s-1-.4477-1-1 .4477-1 1-1 1 .4477 1 1z" fill="#1a1323"/><g stroke="#1a1323" stroke-width="1.5"><path d="m10.054 2.65818c1.1212-.95554 2.7704-.95554 3.8917 0l.6826.58172c.4805.40948 1.0779.65693 1.7072.70715l.894.07135c1.4685.11719 2.6347 1.28332 2.7519 2.75185l.0713.89402c.0502.6293.2977 1.22671.7072 1.70721l.5817.68262c.9555 1.1213.9555 2.7704 0 3.8917l-.5817.6826c-.4095.4805-.657 1.0779-.7072 1.7072l-.0713.894c-.1172 1.4686-1.2834 2.6347-2.7519 2.7519l-.894.0713c-.6293.0502-1.2267.2977-1.7072.7072l-.6826.5817c-1.1213.9555-2.7705.9555-3.8917 0l-.68265-.5817c-.48049-.4095-1.07791-.657-1.70721-.7072l-.89402-.0713c-1.46852-.1172-2.63466-1.2833-2.75185-2.7519l-.07134-.894c-.05022-.6293-.29768-1.2267-.70715-1.7072l-.58172-.6826c-.95554-1.1213-.95554-2.7704 0-3.8917l.58172-.68262c.40947-.4805.65693-1.07791.70715-1.70721l.07134-.89402c.11719-1.46853 1.28333-2.63466 2.75185-2.75185l.89402-.07135c.6293-.05022 1.22672-.29767 1.70721-.70715z"/><path d="m9 15 6-6" stroke-linecap="round"/></g></svg>