<svg width="24" height="24" viewBox="0 0 24 24" fill="none" xmlns="http://www.w3.org/2000/svg">
<g id="Explore">
<g id="mouse">
<path id="Vector" d="M16.1497 12.83L14.4197 13.41C13.9397 13.57 13.5697 13.94 13.4097 14.42L12.8297 16.15C12.3397 17.64 10.2397 17.61 9.7797 16.12L7.8297 9.84C7.4497 8.59 8.5997 7.44001 9.8297 7.82001L16.1197 9.76999C17.6097 10.24 17.6297 12.34 16.1497 12.83Z" stroke="#1A1323" stroke-width="1.5" stroke-linecap="round" stroke-linejoin="round"/>
<path id="Vector_2" d="M12 22C17.5228 22 22 17.5228 22 12C22 6.47715 17.5228 2 12 2C6.47715 2 2 6.47715 2 12C2 17.5228 6.47715 22 12 22Z" stroke="#1A1323" stroke-width="1.5" stroke-linecap="round" stroke-linejoin="round"/>
</g>
</g>
</svg>
