<svg fill="none" height="54" viewBox="0 0 54 54" width="54" xmlns="http://www.w3.org/2000/svg" xmlns:xlink="http://www.w3.org/1999/xlink"><linearGradient id="a" gradientUnits="userSpaceOnUse" x1="27" x2="27" y1="0" y2="153"><stop offset="0" stop-color="#ff7193" stop-opacity=".3"/><stop offset="1" stop-color="#5200ff" stop-opacity=".3"/></linearGradient><linearGradient id="b" gradientUnits="userSpaceOnUse" x1="27.5907" x2="28.0272" y1="23.318" y2="42.9447"><stop offset="0" stop-color="#ff7193"/><stop offset="1" stop-color="#ff7193"/></linearGradient><rect fill="url(#a)" height="54" rx="16" width="54"/><path d="m37.22 26.4249h3.03v-2.16c0-3.105-2.535-5.64-5.64-5.64h-17.22c-3.105 0-5.64 2.535-5.64 5.64v10.095c0 3.105 2.535 5.64 5.64 5.64h17.22c3.105 0 5.64-2.535 5.64-5.64v-1.785h-2.85c-1.62 0-3.105-1.185-3.24-2.805-.09-.945.27-1.83.9-2.445.555-.57 1.32-.9 2.16-.9z" fill="url(#b)"/><path d="m30.275 12.9249v5.8351h-12.885c-3.105 0-5.64 2.535-5.64 5.64v-5.64c0-1.785 1.095-3.3751 2.76-4.0051l11.91-4.5c1.86-.69 3.855.675 3.855 2.67z" fill="#a83752"/><path d="m41.6937 27.955v3.0901c0 .825-.66 1.4999-1.5 1.5299h-4.94c-1.62 0-3.105-1.185-3.24-2.805-.09-.945.27-1.83.9-2.445.555-.57 1.32-.9 2.16-.9h5.12c.84.03 1.5.705 1.5 1.53z" fill="#a83752"/><path d="m27.1176 25h-8.2352c-.4824 0-.8824-.4533-.8824-1s.4-1 .8824-1h8.2352c.4824 0 .8824.4533.8824 1s-.4 1-.8824 1z" fill="#281932"/></svg>