<?xml version="1.0" encoding="utf-8"?>
<!-- Generator: Adobe Illustrator 24.2.0, SVG Export Plug-In . SVG Version: 6.00 Build 0)  -->
<svg version="1.1" id="图层_1" xmlns="http://www.w3.org/2000/svg" xmlns:xlink="http://www.w3.org/1999/xlink" x="0px" y="0px"
	 viewBox="0 0 500 500" style="enable-background:new 0 0 500 500;" xml:space="preserve">
<style type="text/css">
	.st0{clip-path:url(#SVGID_2_);}
	.st1{fill-rule:evenodd;clip-rule:evenodd;fill:#F848A8;}
</style>
<g>
	<defs>
		<rect id="SVGID_1_" width="500" height="500"/>
	</defs>
	<clipPath id="SVGID_2_">
		<use xlink:href="#SVGID_1_"  style="overflow:visible;"/>
	</clipPath>
	<g class="st0">
		<g>
			<path class="st1" d="M388.96,146.97c-12.66,12.37-22.89,23.75-28.72,30.57c-7.11-0.14-15.07-0.14-23.32,0l-7.82-13.94
				c-7.39-13.22-15.5-27.87-31.14-25.31c-14.08,2.42-23.18,14.5-24.17,32.7c-0.28,3.84,0.43,7.82,1.99,11.38
				c-30.57,7.68-58.44,24.03-78.78,36.97c-40.24,25.74-100.67,63.85-123.71,93.85c-16.64,21.61-9.95,55.46-9.95,55.46h243.15
				c39.81,0,60.43-9.81,71.1-22.75c10.52-12.66,14.22-28.44,14.22-69.68v-61.71c21.04-3.41,38.68-16.21,44.08-37.82
				C444.27,143.41,409,127.34,388.96,146.97z"/>
		</g>
		<g>
			<path d="M274.2,183.09c-1.68,0-3.17-1.19-3.49-2.9c-0.36-1.93,0.91-3.79,2.84-4.15c4.81-0.9,9.54-1.34,14.45-1.34
				c9.97-0.14,24.07,0,24.21,0c1.96,0.02,3.54,1.63,3.52,3.59s-1.66,3.55-3.59,3.52c-0.14,0-14.15-0.14-24.09,0
				c-4.52,0-8.81,0.4-13.19,1.22C274.64,183.07,274.42,183.09,274.2,183.09z"/>
		</g>
		<g>
			<path d="M383.27,196.02c-0.25,0-0.5-0.03-0.76-0.08c-1.92-0.42-3.14-2.31-2.72-4.23c3.56-16.42,15.04-29.61,30.7-35.29
				c1.84-0.67,3.88,0.28,4.55,2.13c0.67,1.85-0.28,3.88-2.13,4.55c-13.35,4.84-23.13,16.1-26.18,30.12
				C386.38,194.89,384.91,196.02,383.27,196.02z"/>
		</g>
		<g>
			<path d="M265.25,250.77c2.28-2.28,4.27,1.42,7.11,7.11c2.84,5.69,4.27,8.53,8.53,11.38c4.27,2.84,8.53,1.42,11.38-5.69
				c2.84-7.11,2.84-11.38,4.27-17.06c1.42-5.69,5.69-7.11,7.11,1.42c1.42,8.53-0.71,20.62-8.53,28.44
				c-7.11,7.11-15.64,4.27-22.75-2.84S262.4,253.61,265.25,250.77z"/>
		</g>
		<g>
			<path d="M148.65,370.21c0,0-1.42-1.42-1.42-7.11s2.84-19.91,7.11-28.44c4.27-8.53,11.38-22.75,25.59-24.17s21.33,2.84,29.86,5.69
				c8.53,2.84,19.05,2.99,24.46,0.14c4.55-2.28,8.39-5.69,11.09-10.1c2.84-4.27,11.66-4.83,2.84,9.95
				c-8.53,14.22-27.02,12.8-35.55,11.38c-11.38-1.85-18.49-8.53-31.28-7.11c-8.96,1-14.22,8.53-19.91,21.33
				c-5.26,11.94-5.69,18.49-7.11,22.75c-1.42,4.27,0,5.69-4.98,5.69"/>
		</g>
		<g>
			<path d="M88.93,324.71c2.84,0,3.7,5.97,2.56,12.23c-1.14,6.26-2.56,13.37-8.25,13.37s-4.27-11.38-2.84-15.64
				C81.82,330.4,83.24,324.71,88.93,324.71z"/>
		</g>
		<g>
			<path d="M114.52,321.87c4.55,0,1.42,11.38,1.42,17.06c0,5.69-2.84,12.8-7.82,11.38c-4.98-1.42-5.97-8.39-3.55-15.64
				C107.41,326.13,110.25,321.87,114.52,321.87z"/>
		</g>
	</g>
</g>
</svg>
