<svg width="235" height="46" viewBox="0 0 235 46" fill="none" xmlns="http://www.w3.org/2000/svg">
<circle cx="23" cy="23" r="20" fill="url(#paint0_linear_3647_958)"/>
<path d="M26.477 43L26.2937 38.7743C25.9112 29.9528 18.7295 23 10 23C10.8236 23 11.7288 22.9933 12.688 22.9815C23.6341 22.8462 33.0677 14.073 33.0677 3M10 23.1324C17.6387 23.3413 32.9162 22.0881 39.2455 24.5941C45.5747 27.1 47.0732 31.3333 47.0732 31.3333" stroke="white" stroke-width="5" stroke-linecap="round" stroke-linejoin="round"/>
<path d="M71.4471 42C66.7613 42 62.9732 40.4615 60.0826 37.3844C57.1617 34.3073 55.7012 30.1792 55.7012 25C55.7012 19.7903 57.1464 15.647 60.037 12.5699C62.8971 9.5233 66.7005 8 71.4471 8C75.2504 8 78.4909 9.02061 81.1685 11.0618C83.846 13.103 85.5195 16.0582 86.1889 19.9274H79.9362C79.3885 17.7948 78.3692 16.1801 76.8783 15.0833C75.4178 13.9561 73.6074 13.3925 71.4471 13.3925C68.5565 13.3925 66.2745 14.4283 64.601 16.5C62.958 18.5412 62.1365 21.3746 62.1365 25C62.1365 28.6559 62.958 31.5045 64.601 33.5457C66.2441 35.5869 68.5261 36.6075 71.4471 36.6075C73.6987 36.6075 75.6308 35.9373 77.2434 34.5968C78.856 33.2563 79.8297 31.3979 80.1644 29.0215H86.3258C85.9303 33.1649 84.3177 36.3638 81.488 38.6183C78.6887 40.8728 75.3417 42 71.4471 42Z" fill="black"/>
<path d="M110.087 41.2688H104.336C104.062 40.7814 103.849 39.8217 103.697 38.3898C102.115 40.6747 99.5893 41.8172 96.1207 41.8172C93.5344 41.8172 91.4654 41.1927 89.9136 39.9436C88.3922 38.6944 87.6316 36.9579 87.6316 34.7339C87.6316 30.4382 90.6438 27.9857 96.6684 27.3763L100.228 27.0565C101.415 26.9041 102.267 26.6299 102.784 26.2339C103.301 25.8073 103.56 25.1828 103.56 24.3602C103.56 23.3548 103.225 22.6237 102.556 22.1667C101.917 21.6792 100.822 21.4355 99.2699 21.4355C97.5964 21.4355 96.3945 21.7249 95.6643 22.3038C94.934 22.8522 94.5081 23.8118 94.3863 25.1828H88.7269C89.0616 19.8208 92.5912 17.1398 99.3155 17.1398C105.857 17.1398 109.128 19.5009 109.128 24.2231V36.7903C109.128 38.862 109.448 40.3548 110.087 41.2688ZM97.4899 37.7043C99.2851 37.7043 100.746 37.2168 101.871 36.2419C102.997 35.2366 103.56 33.8047 103.56 31.9462V29.7984C103.012 30.2858 102.115 30.6057 100.867 30.7581L97.7637 31.1237C96.2424 31.3065 95.147 31.672 94.4776 32.2204C93.8387 32.7384 93.5192 33.5 93.5192 34.5054C93.5192 35.5108 93.8539 36.3029 94.5233 36.8817C95.2231 37.4301 96.212 37.7043 97.4899 37.7043Z" fill="black"/>
<path d="M122.043 41.9086C115.166 41.9086 111.576 39.1971 111.272 33.7742H116.886C117.038 35.2366 117.509 36.2724 118.3 36.8817C119.122 37.491 120.4 37.7957 122.134 37.7957C125.238 37.7957 126.79 36.8513 126.79 34.9624C126.79 34.1093 126.455 33.4543 125.785 32.9973C125.116 32.5403 123.914 32.1595 122.18 31.8548L119.487 31.3979C114.345 30.5448 111.774 28.1685 111.774 24.2688C111.774 22.0448 112.626 20.3082 114.33 19.0591C116.034 17.7796 118.437 17.1398 121.541 17.1398C128.265 17.1398 131.734 19.8056 131.947 25.1371H126.516C126.455 23.7357 126.014 22.7455 125.192 22.1667C124.371 21.5573 123.154 21.2527 121.541 21.2527C118.802 21.2527 117.433 22.1667 117.433 23.9946C117.433 24.7867 117.738 25.4113 118.346 25.8683C118.955 26.2948 119.959 26.6299 121.358 26.8737L124.325 27.3306C127.185 27.8486 129.254 28.6711 130.532 29.7984C131.84 30.9256 132.495 32.4946 132.495 34.5054C132.495 36.8817 131.582 38.7097 129.756 39.9892C127.931 41.2688 125.359 41.9086 122.043 41.9086Z" fill="black"/>
<path d="M145.229 41.8172C141.761 41.8172 138.946 40.69 136.786 38.4355C134.656 36.2115 133.591 33.2258 133.591 29.4785C133.591 25.7007 134.656 22.6998 136.786 20.4758C138.885 18.2518 141.7 17.1398 145.229 17.1398C148.302 17.1398 150.813 17.9624 152.76 19.6075C154.707 21.2222 155.848 23.4158 156.183 26.1882H150.432C150.158 24.8172 149.565 23.7661 148.652 23.0349C147.74 22.3038 146.599 21.9382 145.229 21.9382C143.434 21.9382 142.019 22.5932 140.985 23.9032C139.981 25.1828 139.479 27.0412 139.479 29.4785C139.479 31.9158 139.996 33.7894 141.03 35.0995C142.065 36.379 143.465 37.0188 145.229 37.0188C146.629 37.0188 147.8 36.638 148.744 35.8763C149.717 35.0842 150.311 33.957 150.524 32.4946H156.274C155.97 35.328 154.814 37.5977 152.806 39.3038C150.797 40.9794 148.272 41.8172 145.229 41.8172Z" fill="black"/>
<path d="M179.865 41.2688H174.114C173.84 40.7814 173.627 39.8217 173.475 38.3898C171.893 40.6747 169.367 41.8172 165.899 41.8172C163.312 41.8172 161.243 41.1927 159.692 39.9436C158.17 38.6944 157.41 36.9579 157.41 34.7339C157.41 30.4382 160.422 27.9857 166.446 27.3763L170.006 27.0565C171.193 26.9041 172.045 26.6299 172.562 26.2339C173.079 25.8073 173.338 25.1828 173.338 24.3602C173.338 23.3548 173.003 22.6237 172.334 22.1667C171.695 21.6792 170.6 21.4355 169.048 21.4355C167.374 21.4355 166.173 21.7249 165.442 22.3038C164.712 22.8522 164.286 23.8118 164.164 25.1828H158.505C158.84 19.8208 162.369 17.1398 169.094 17.1398C175.635 17.1398 178.906 19.5009 178.906 24.2231V36.7903C178.906 38.862 179.226 40.3548 179.865 41.2688ZM167.268 37.7043C169.063 37.7043 170.524 37.2168 171.649 36.2419C172.775 35.2366 173.338 33.8047 173.338 31.9462V29.7984C172.79 30.2858 171.893 30.6057 170.645 30.7581L167.542 31.1237C166.02 31.3065 164.925 31.672 164.256 32.2204C163.617 32.7384 163.297 33.5 163.297 34.5054C163.297 35.5108 163.632 36.3029 164.301 36.8817C165.001 37.4301 165.99 37.7043 167.268 37.7043Z" fill="black"/>
<path d="M198.951 20.75V8.73118H204.701V41.2688H199.133V37.9785C197.399 40.5376 194.919 41.8172 191.694 41.8172C188.438 41.8172 185.867 40.69 183.98 38.4355C182.064 36.181 181.105 33.1953 181.105 29.4785C181.105 25.7007 182.064 22.6998 183.98 20.4758C185.837 18.2518 188.408 17.1398 191.694 17.1398C194.858 17.1398 197.277 18.3432 198.951 20.75ZM186.993 29.6613C186.993 32.0986 187.525 33.9418 188.59 35.1909C189.655 36.44 191.131 37.0645 193.017 37.0645C194.904 37.0645 196.395 36.4095 197.49 35.0995C198.555 33.7894 199.087 31.9158 199.087 29.4785C199.087 27.0412 198.555 25.1676 197.49 23.8575C196.425 22.5475 194.934 21.8925 193.017 21.8925C191.161 21.8925 189.686 22.578 188.59 23.9489C187.525 25.3199 186.993 27.224 186.993 29.6613Z" fill="black"/>
<path d="M229.161 24.371C230.87 25.1237 232.213 26.2213 233.19 27.664C234.197 29.0753 234.701 30.7375 234.701 32.6505C234.701 35.7554 233.602 38.2487 231.404 40.1304C229.176 42.0435 226.2 43 222.476 43C218.324 43 215.15 41.9651 212.952 39.8952C210.785 37.7939 209.701 34.8772 209.701 31.1452H215.699C215.791 35.4731 217.989 37.6371 222.293 37.6371C224.155 37.6371 225.62 37.1667 226.688 36.2258C227.757 35.2849 228.291 34.0148 228.291 32.4153C228.291 30.6904 227.741 29.3575 226.643 28.4167C225.544 27.4758 224.017 27.0054 222.064 27.0054H219.637V22.3481H222.018C225.834 22.3481 227.741 20.7957 227.741 17.6909C227.741 16.2796 227.253 15.1819 226.276 14.3979C225.299 13.5824 223.956 13.1747 222.247 13.1747C218.553 13.1747 216.615 14.9467 216.432 18.4906H210.48C210.541 15.1349 211.578 12.5475 213.593 10.7285C215.638 8.9095 218.538 8 222.293 8C225.803 8 228.581 8.83109 230.626 10.4933C232.702 12.1241 233.74 14.3508 233.74 17.1734C233.74 20.3723 232.213 22.7715 229.161 24.371Z" fill="url(#paint1_linear_3647_958)"/>
<defs>
<linearGradient id="paint0_linear_3647_958" x1="3" y1="23" x2="48.1064" y2="23" gradientUnits="userSpaceOnUse">
<stop stop-color="#EA4225"/>
<stop offset="0.460147" stop-color="#DC9E3D"/>
<stop offset="1" stop-color="#8042F2"/>
</linearGradient>
<linearGradient id="paint1_linear_3647_958" x1="209.701" y1="30.5" x2="238.756" y2="23.4572" gradientUnits="userSpaceOnUse">
<stop stop-color="#8042F2"/>
<stop offset="0.385417" stop-color="#367AB3"/>
<stop offset="0.8125" stop-color="#84CE9C"/>
</linearGradient>
</defs>
</svg>
