<svg fill="none" height="54" viewBox="0 0 54 54" width="54" xmlns="http://www.w3.org/2000/svg" xmlns:xlink="http://www.w3.org/1999/xlink"><linearGradient id="a" gradientUnits="userSpaceOnUse" x1="27" x2="27" y1="0" y2="54"><stop offset="0" stop-color="#ff7193" stop-opacity=".08"/><stop offset="1" stop-color="#5200ff" stop-opacity=".12"/></linearGradient><linearGradient id="b" gradientUnits="userSpaceOnUse" x1="13" x2="34" y1="40.5" y2="28"><stop offset=".0110715" stop-color="#ff2c78"/><stop offset="1" stop-color="#ff86c0" stop-opacity="0"/></linearGradient><linearGradient id="c" gradientUnits="userSpaceOnUse" x1="38.5" x2="22" y1="20.5" y2="34"><stop offset="0" stop-color="#ff4e85"/><stop offset="1" stop-color="#ea008c" stop-opacity=".13"/></linearGradient><circle cx="27" cy="27" fill="url(#a)" r="27"/><path d="m27.678 34.9571c.2748.0639.2999.4237.0323.5129l-1.58.52c-3.97 1.28-6.06.21-7.35-3.76l-1.28-3.95c-1.28-3.97-.22-6.07 3.75-7.35l.524-.1735c.4029-.1334.795.2707.6806.6793-.0567.2026-.1113.414-.1646.6342l-.98 4.19c-1.1 4.71.51 7.31 5.22 8.43z" fill="url(#b)"/><path d="m32.1702 18.21-1.67-.39c-3.34-.79-5.33-.14-6.5 2.28-.3.61-.54 1.35-.74 2.2l-.98 4.19c-.98 4.18.31 6.24 4.48 7.23l1.68.4c.58.14 1.12.23 1.62.27 3.12.3 4.78-1.16 5.62-4.77l.98-4.18c.98-4.18-.3-6.25-4.49-7.23zm-1.88 10.12c-.09.34-.39.56-.73.56-.06 0-.12-.01-.19-.02l-2.91-.74c-.4-.1-.64-.51-.54-.91s.51-.64.91-.54l2.91.74c.41.1.65.51.55.91zm2.93-3.38c-.09.34-.39.56-.73.56-.06 0-.12-.01-.19-.02l-4.85-1.23c-.4-.1-.64-.51-.54-.91s.51-.64.91-.54l4.85 1.23c.41.09.65.5.55.91z" fill="url(#c)"/></svg>