<svg fill="none" height="19" viewBox="0 0 18 19" width="18" xmlns="http://www.w3.org/2000/svg"><g stroke="#1a1323" stroke-linecap="round" stroke-linejoin="round"><path d="m10.75 10.0625v2.775c0 2.34-2.1825 4.2375-4.875 4.2375s-4.875-1.8975-4.875-4.2375v-2.775c0 2.34 2.1825 4.0125 4.875 4.0125s4.875-1.6725 4.875-4.0125z"/><path d="m10.75 6.31172c0 .6825-.1875 1.3125-.5175 1.8525-.8025 1.32-2.4525 2.15998-4.3575 2.15998s-3.555-.83998-4.3575-2.15998c-.33-.54-.5175-1.17-.5175-1.8525 0-1.17.54749-2.2275 1.42499-2.9925.885-.7725 2.10001-1.245 3.45001-1.245s2.565.4725 3.45 1.2375c.8775.7725 1.425 1.83 1.425 3z"/><path d="m10.75 6.31172v3.74998c0 2.34-2.1825 4.0125-4.875 4.0125s-4.875-1.6725-4.875-4.0125v-3.74998c0-2.34 2.1825-4.2375 4.875-4.2375 1.35 0 2.565.4725 3.45 1.2375.8775.7725 1.425 1.83 1.425 3z"/></g></svg>